<?xml version="1.0" encoding="utf-8"?>
<!-- Generator: Adobe Illustrator 23.0.6, SVG Export Plug-In . SVG Version: 6.00 Build 0)  -->
<svg version="1.1" id="Layer_1" xmlns="http://www.w3.org/2000/svg" xmlns:xlink="http://www.w3.org/1999/xlink" x="0px" y="0px"
	 viewBox="0 0 514.5 583" style="enable-background:new 0 0 514.5 583;" xml:space="preserve">
<style type="text/css">
	.st0{fill:#FFFFFF;}
	.st1{fill:#00944C;}
</style>
<title>yellow-bucket</title>
<g>
	<path class="st0" d="M493.7,478.5c-1.5-4.6-4.5-6.1-8.5-6.2c-3.3-0.2-6.5-0.2-9.8,0.1c-1.8,0.3-4.7,1.9-4.7,2.9
		c0.2,2.1,1.3,4,3,5.1C480.8,484.9,487.3,482.7,493.7,478.5z M486.9,522.3l2-3.3c-2.1-1.3-4.2-3.3-6.4-3.6
		c-5.4-0.6-10.8-0.8-16.2-0.6c-0.9,0-2.5,2.6-2.4,4s1.6,3.7,2.8,3.8C473.4,523.4,480.3,524.2,486.9,522.3L486.9,522.3z M447.4,573.7
		c-3.1-7.8-3.1-8-6.9-8.2c-3.3-0.3-6.6-0.1-9.9,0.3c-1.5,0.3-4.1,2.3-4,2.9c0.5,1.8,2,4.6,3.4,4.7
		C435.5,574,440.9,573.7,447.4,573.7L447.4,573.7z M494.9,496.5c-3.4,0-5-0.4-6.3,0.1c-1.8,0.7-3.3,2.1-5,3.2
		c1.2,1.7,2.2,4.5,3.7,4.8c4,0.8,8,1,12,0.7c1.3-0.1,3.5-2,3.6-3.2c0-1.8-1-3.4-2.5-4.3C498.7,497,496.8,496.6,494.9,496.5z
		 M489.2,530.2c3.3,8.2,5.1,9.4,13.2,8.5c1.8-0.2,3.5-1.8,5.2-2.8c-1.4-1.9-2.5-5.1-4.1-5.4C498.8,529.7,494.1,530.2,489.2,530.2
		L489.2,530.2z M468.3,538.4c0.9-1.1,3.2-2.6,3.7-4.7c0.9-3-4.4-6.6-8.9-5.7c-1.5,0.3-3.5,2.5-3.8,4.2
		C458.8,535.2,463.1,538.5,468.3,538.4z M460.7,545.4c-0.7,0.7-3,1.8-3.4,3.4c-0.8,3.3,2.9,6,7.8,5.3c1.8-0.2,4.3-1.8,4.7-3.3
		C470.6,547.5,466.9,545.1,460.7,545.4L460.7,545.4z"/>
	<path class="st1" d="M196.7,1.3c3.4,2.1,7.4,0.9,11,0.8c9.4-0.4,17.1,1.7,24.1,8.6c5.2,5.1,11.8,8.6,15.3,15.6
		c3.1,6.3,6.6,12.4,5.6,19.9c-0.7,5.2,2,6.8,7,7.4c12.4,1.7,24.7,3.9,36.9,6.5c24.6,5.2,48.5,12.3,70.2,25.7
		c9.9,6.1,18.3,13.7,24.6,23.4c3.8,6,5.8,12.6,4.4,19.9c-0.4,2.1,0.1,4.3,0.2,6.4c0.2,2.9,0.8,5.9,0.5,8.7
		c-1.2,13.1-2.7,26.3-4,39.4c-2.1,20.4-4.3,40.9-6.2,61.4c-1,11-1.9,22-2.3,33c-0.1,3.3,0.8,6.5,2.3,9.3c4.2,7.5,5,14.2-1.5,21.1
		c-5.2,5.4-4.8,12.8-5.4,19.8c-1.3,14.3-2.9,28.5-4,42.8c-0.5,7.4-0.6,14.8-0.3,22.1c0.1,2.3,2,4.5,2.8,6.8
		c2.4,6.4,3.2,12.8-1.3,18.8c-1.7,2.3-3.9,4.9-4.2,7.5c-2.1,14.8-5.2,29.6-3.4,45.4c4.2,0.2,7.8,0.5,11.4,0.5
		c22.5,0.1,45.1,0.2,67.6,0.3c4,0,8.4-0.6,11.2,3.2c1,1.3,2,3.5,1.6,4.9s-2.6,2.8-4,2.8c-11.4,0-22.9,0.4-34.3-0.8
		c-17.6-1.8-35.1-2.2-52.6,2.8c8.1,0.9,16.3,1.7,24.4,2.6c12.8,1.4,26.2,1.1,38.1,5c10,3.3,19,3.9,28.8,1.8
		c6.6-1.4,11.3,2.5,15.9,6.2c1.1,0.9,1.8,3.6,1.2,4.7c-1.1,1.4-2.8,2.1-4.6,1.9c-19.9-5.4-39.4,3.7-59.2-0.2c0,0.9,0,1.8,0,2.7
		c4.1,0,8.2-0.3,12.2,0.1c4.3,0.4,8.6,1.5,13,2.1c2.2,0.3,4.4-0.1,6.6,0.1c4.1,0.4,7.5,2.7,7.5,6.7c-0.1,5.6-7.2,3.8-10.3,4.4
		c-3.8,0.9-7.8,1.1-11.6,0.4c-8.7-1.7-15-0.3-24.4,5c4,0,5.8,0,7.6,0c8.8-0.3,17.7-0.7,26.5-0.8c1.4,0,3.3,0.3,4.1,1.2
		c1.6,1.8,3.3,3.9,3.6,6.1c0.1,0.9-3,2.9-4.9,3.3c-2.4,0.6-5.1,0.2-7.7,0.3c-19.9,0.7-39.8,1.5-59.6,2.3c-1,0-2,0.6-5.8,1.8
		c4.3,1.2,6.3,2.3,8.3,2.3c17,0.2,34,0.1,51,0.2c2.9,0,6.2-0.4,8.7,0.7c1.8,0.8,3.5,3.6,3.8,5.7c0.2,1.2-2.4,3.5-4.2,4.1
		c-2.4,0.8-5.1,0.5-7.7,0.4c-16.6-0.6-33.1-1.7-49.7-1.8c-8.6,0-17.2,1.8-25.9,2.7c0.4,4.9,3.2,5.5,6.2,5.7
		c10.6,0.8,21.3,1.5,31.9,2.3c2.2,0.2,4.5,0.1,6.5,0.9c3.2,1.3,4.3,4.4,2.9,7.3c-0.7,1.4-3.5,2.5-5.3,2.5c-11-0.4-22-1.1-33-1.9
		c-15.4-1.2-30.7-2.9-46.1-3.9c-8.8-0.5-17.6-0.1-26.2-0.1c-0.5,1.1-1.2,1.8-1.1,2.3c0.5,2.3,1.1,4.5,1.7,6.8
		c-2.8,0.3-5.6,1.2-8.3,0.8c-14.2-2.1-28.5-5.4-42.8-3.4c-22.1,3.1-44.2,2.1-66.3,1.8c-17.3-0.1-34.5-2.6-51.2-7.3
		c-15.9-4.7-31.8-9.2-47.4-14.6s-29-14.3-42.1-24c-4.5-3.3-6.1-7.5-6.4-13.2c-1.1-20.9-2.8-41.8-4.4-62.7
		c-0.5-6.6-1.5-13.1-1.9-19.7c-0.3-5.6-0.3-10.7-4.7-15.3c-4-4.1-3.1-9.8-0.5-14.5c3.7-6.7,2.9-13.5,2-20.5c-0.6-4.4-1-8.8-1.3-13.1
		c-1.4-16-2.8-32.1-4.1-48.1c-0.3-3-0.4-6-0.3-9c0.1-7,0-13.7-4.5-20c-1.8-2.5-2.1-7.6-0.8-10.3c5.3-10.8,2.7-21.7,2-32.6
		c-0.1-2.2-1-4.3-1.1-6.5c-0.9-15.4-1.4-30.9-2.6-46.3c-0.9-11.7-2.8-23.3-3.8-35c-0.6-6.6-0.3-13.3-0.6-19.9c-0.1-2-1.3-3.9-2-5.8
		l0.8-5.5c1.9-2.3,1.9-4.7-0.1-7l-0.8-16.4c0.8-1.2,1.5-2.4,2.3-3.6c3.8-5.8,6.4-13.1,11.6-17c9-6.8,19.3-12.1,29.6-16.9
		c8.3-3.8,17.3-6,26.1-8.9c7.9-2.7,7.7-2.7,8.2-10.8c0.2-5.3,1.4-10.3,1.8-15.4c0.8-10.6,7.7-15.2,18.2-17c6-1,11.8-2.5,17.5-4.6
		c17.1-6.6,34.9-10.8,53.1-12.6c6.8-0.6,13.4-2.7,20-4.2L196.7,1.3z M55.4,150.7l0.1,0.1c-2.9-3.3-5.9-6.5-8.8-9.8
		c-5-5.6-8.7-11.8-9.2-19.6c-0.4-6.3-0.7-5.8-7.6-6.6c-6-0.7-12.8-0.3-18.9-6.1c8.4,0,15.2,0.3,21.9-0.1c3.2-0.2,6.2-1.3,8.9-3.2
		c7.9-5.9,15.5-12.3,23.1-18.6c1.2-1.2,2.3-2.4,3.3-3.8c-6.1-7.6-13.1-9.2-21-5.2s-15.8,8-23.4,12.3C5.4,100.6,1.5,121.6,14.9,138
		c2.6,3,5.5,5.9,8.5,8.5c8.1,7.3,17.7,11.9,27.9,15.4c11.8,4,23.7,7.7,35.5,11.5c3.9,1.3,6.2,0,7.2-3.8c-4.5-2.1-8.9-4-13.2-6.1
		C72.3,159.3,63.9,154.9,55.4,150.7z M110.8,79.7c3.2,0.2,4.4,2.1,4.6,5.1c0.7,11.8,1.4,23.5,2.1,35.3c0.8,12.9,1.5,25.7,2.3,38.6
		c0,1.8,0.4,3.7,1.2,5.3c1,1.8,2.6,3.8,4.3,4.5c12.2,4.6,25.2,5.7,37.9,5.9c4.8,0.1,8.2,0.3,11.6,3.5c3,2.9,8.2,3.7,8.5,9.2
		c-4,2.9-6.9,0.7-10.1-1.4c-2.6-1.8-5.6-3.1-8.7-3.8c-13-2.2-26.1-4-39.2-6c-4.4-0.7-8.6-1.9-13-2.4c-1.3,0.1-2.5,1-3.1,2.2
		c-0.3,0.9,0.8,3,1.7,3.3c3.9,1.2,7.8,2.1,11.8,2.7c14.2,1.7,28.5,3.1,42.7,4.6c3.4,0.4,6.9,0.4,6.6,6.3c-7.6,0.9-15.3,0.8-22.9-0.2
		c-16.7-2.5-33.4-5.3-49.9-8.5c-25.1-4.9-49.5-11.7-71.2-25.8c-6.1-4-11.9-8.4-18.4-13c-1.9,8.7,0.4,16.4,1.1,24.4
		c1.8,19.4,3.2,38.8,4.5,58.3c1.1,16.5,1.4,33.1,2.8,49.6c0.5,5.6,0,10.5-2.8,13.3l6.1,13.5c3.6,1.2,7.2,1.5,9.4,3.4
		c23.2,19.3,51.3,27.4,79.7,33.5c21.6,4.4,43.5,7.4,65.4,8.9c26.9,2,53.8,0.3,80.7-1.9c1.4-0.1,3.3-0.1,4.2-1
		c6.7-6.6,15.9-6.1,23.9-7.2c29.3-3.9,54.5-17.3,79-32.6c1.5-0.9,2.4-2.6,3.6-4c-2-0.4-4,0.1-5.6,1.3c-21.1,13.9-43.7,24.3-68.7,29
		c-4.7,0.9-9.5,1-14.2,2c-19.5,4-39.4,5.1-59.2,5.8c-12.5,0.4-25-1.5-37.5-1.7c-20-0.4-39.5-3.5-59.1-6.9
		c-25.2-4.3-49.6-11.4-72.5-22.7c-6.9-3.4-13.2-8.2-19.4-12.8c-2.5-1.9-4.3-5-6.1-7.7c-0.4-1-0.3-2.1,0.4-3c1-0.7,2.8-1.4,3.7-1
		c2,0.8,3.7,2.4,5.5,3.6c6.7,4.5,13.3,9.3,20.2,13.4c18.4,10.8,38.9,15.2,59.4,20c25.4,6,51.4,9.3,77.5,9.9c21,0.4,42-1,63-1.9
		c8.8-0.4,17.6-1.4,26.3-2.6c7.3-1,14.4-2.9,21.6-4.2c16-2.8,31.3-8.7,45-17.5c7.9-5.1,9.9-22.8,2.6-28.4
		c-6.2-4.7-6.3-10.5-6.2-16.5c0.4-26.5,1-53.1,1.7-79.6c0.1-5.3-2.9-8.4-7-8c-10.2,1-11.4-4.8-11.6-12.5c-0.1-2.9-1.2-5.8-1.4-8.7
		c-1-10-4.6-14.7-14.2-14.5c-17.7,0.3-35.3,1.4-53,2.6c-11.7,0.8-23.4,2.3-35,3.8c-6.9,0.9-13.7,2.3-20.6,3.6
		c-5.1,0.9-7.5,4.3-7.9,9.2c-0.2,2.6,0.1,5.2-0.2,7.8c-0.8,5.4-1.8,10.9-3.1,16.2c-0.6,1.3-1.8,2.1-3.2,2.3c-1,0-2.5-1.5-2.9-2.6
		c-0.3-1.8-0.3-3.5,0-5.3c0.8-6.6,2.4-13.1,2.3-19.7s1.1-12.3,7.3-17.6c-4.2-0.2-6.8-0.1-9.2-0.6c-1.5-0.4-4.1-2-4-2.7
		c0.4-1.9,1.5-4.7,3-5.1c5.3-1.5,10.7-2.6,16.2-3.2c15-1.8,29.9-3.6,44.9-4.9c18.3-1.6,36.6-2.8,55-3.9c6.1-0.4,10.5,2.2,13.2,8.1
		c1.1,2.3,3,4,5.4,4.8c6.3,1.4,9.1,5.8,11.4,11c1.3,2.9,3,5.6,4.5,8.4c1.3-0.4,2.5-0.9,3.8-1.5c1.9-1.2,3.6-2.6,5.5-3.8
		c9.8-6.1,14.5-24,3.2-34.7c-8.3-7.9-18-14.2-28.6-18.5c-32.7-13.7-67.3-18.7-102.3-20.2c-23.2-1-46.5-1-69.6,2
		c-5.3,0.7-10.7,1.6-16.1,2.4c1.2,12.2,2.4,23.2,3.4,34.2c0.5,3.7,0.4,7.4-0.3,11c-0.4,2-2.7,4.6-4.5,5c-3.6,0.8-3.7-2.6-3.8-5.2
		c-0.8-12.1-1.5-24.2-2.3-36.3c-0.4-2.5-0.9-5-1.5-7.5l-11.7,3.4c-2.9,0.3-5.9,0.3-8.7,1.1c-4.9,1.5-10.4,2.6-14.1,5.7
		c-4.2,3.6,0.4,9,0.4,13.6c0,0.7,0,1.5,0.1,2.2c0.8,10.3,1.3,20.6,2.5,30.8c0.9,7.6,2.8,15.2,4.4,22.7c1,4.6,7.3,8.9,11.7,7.9
		c5.1-1.3,3.1-5.6,3.4-9c0.1-1.9,0.1-3.8,0-5.7c-0.7-13.6-1.4-27.3-2.2-40.9c-0.3-4.4-0.9-8.8-1.6-13.2
		C106.1,89.4,106.8,84.3,110.8,79.7z M22.4,312c0,10.9-0.4,19.4,0.1,27.8c1.1,16.1,3.5,32.2,3.8,48.3c0.2,9.9,4.1,16.7,11.3,22.7
		c20.7,17.5,44.7,28.9,70.3,36c32.2,8.9,64.9,14.8,98.8,12.5c18-1.3,35.9-1.1,53.8-4.6c20.4-4,40.3-9,58.5-19
		c11.9-6.5,23.3-14,31.5-26.1c-2-1.6-3.9-2.7-5.2-4.3c-1.5-1.9-3.5-4.1-3.6-6.3c-0.3-8.1-0.1-16.2,0.2-24.3
		c0.4-11.4,1.1-22.8,1.4-34.1c0-1.6-1.2-3.2-2-5.1c-25.1,9.3-50,16.7-76.4,20.3c0.7,1.4,1.9,2.6,1.9,3.8c0.4,15,0.8,30.1,0.9,45.2
		c0,1-1.7,2.7-2.7,2.8c-1.6,0.1-4.1-0.3-4.9-1.4c-1.1-1.6-1.4-4-1.4-6c0-11.8,0.3-23.6,0.4-35.4c0-2.4-0.6-4.9-1.1-7.9
		c-4.3,0-7.9-0.2-11.6,0c-10.6,0.6-21.3,1.7-31.9,2.1c-28,1-55.8-1.7-83.4-6.5c-24.3-4.2-48.4-8.9-71.3-18.6
		c-3.2-1.2-6.5-2.2-9.9-3.1c-3.2,8.2,1.1,16.2-2.9,23.4c-4.4-1-5-3.7-5.2-6.8c-0.4-4.7-1.4-9.5-1.5-14.2
		C40.5,321.6,30.8,319,22.4,312L22.4,312z M347.4,524.6c-8.9-2.2-8.2-8-8.1-13.7c0.1-17,0.2-34,0.3-51c0-3.6,0-7.2,0-11.1
		l-53.9,24.5c4.3,4,2.8,9.4,2.4,14.3c-0.1,1.5-2.3,3.7-3.9,4.1c-3.4,0.8-4.9-1.9-4.8-5.4c0-0.9,0-1.7-0.2-2.6
		c-1.3-9.2-2.3-9.8-12.2-7.8c-19.4,4.1-39.2,6.5-59,7.2c-19.2,0.5-38.1-1.8-57.2-4.1c-29.3-3.4-57.8-11.7-84.4-24.6
		c-3.1-1.5-6.6-2.3-11.4-4v30.2c-6.4-1.6-8.4-4.9-8.4-9.9c0-6.6-0.4-13.3-0.1-19.9c0.4-4.9-1.9-9.6-6-12.3c-2.7-1.9-5.4-3.6-9.2-6
		c0,10.7-0.5,20.2,0.1,29.7c1,16.9,3.4,33.7,3.8,50.5c0.2,8.6,3.4,14.4,10.1,18.2c15.7,8.9,31.2,18,48.5,24
		c28.5,9.9,57.9,13.9,87.6,16.5c20.6,1.8,41.4,0.2,61.8-2.5c20.1-2.6,39.7-7.9,58.8-14.8C318.6,548.4,332.8,538.8,347.4,524.6z
		 M104.1,72.3c23.4-4.6,46-6.5,68.7-8.7s45.4,1.7,69.1,0.3c0-8.5-0.2-15.8,0-23.1c0.5-12.2-3.7-18.1-18.8-18.6c-3,0-5.9,0.2-8.8,0.6
		c-4,0.4-8,1-12,1.5c-9.8,1.2-19.7,2.2-29.5,3.6c-10.9,1.6-21.7,4.2-32.6,5c-10.5,0.8-20.3,3.6-30,7c-1.9,0.7-4.9,2.1-5.1,3.5
		C103.8,52.7,99.6,61.9,104.1,72.3z M351.9,422.1c-1.3-0.2-1.7-0.4-1.9-0.2c-1.3,0.7-2.5,1.5-3.7,2.4
		c-19.5,14.2-39.8,26.5-63.3,33.1c-23.2,6.5-46.8,9.2-70.7,10.3c-25.8,1.2-51.4-2-76.8-6.3c-32.8-5.5-63.4-16.4-90.7-35.6
		c-4.8-3.4-8.9-7.7-13.3-11.6c-2.1-1.8-4.3-2.3-6.8,0.5c15.4,12.9,29.9,25.7,47.9,34c30.1,13.8,61.6,23.1,94.4,25.3
		c32.3,2.2,64.9,2.5,96.9-4.4c10.8-2.3,22.7-2.8,30.8-12.5c0.9-1,2.6-1.3,4-1.9c6.4-2.6,13.2-4.7,19.3-8
		C330,440.5,343.3,435.1,351.9,422.1z M371.4,140.4c-0.8,0.6-1.4,1.4-1.8,1.3c-10.8-2.2-17,4.8-23.1,11.8c-1.1,1.2-2.3,3.8-1.7,4.7
		c1.2,1.7,3.1,2.9,5.1,3.4c2.2,0.3,4.4,0,6.4-0.9c12.5-5.3,23.1-13.1,29.9-25.2c7.5-13.4-1.1-34.4-15.8-39.2
		c-0.7-0.3-1.4-0.5-2.1-0.5c-5.6,1.2-11.2,2.6-17.2,4c10.3,15.3,10.8,15.4,10.3,25.7c-0.3,6.6,1.8,10.5,7.9,12.5
		C370.2,138.4,370.7,139.6,371.4,140.4L371.4,140.4z M96.1,33.4c39-11.9,79.6-13.8,119.1-21.7c-10.2-1.4-20.5-2.9-30.6-2.4
		s-20.4,2.7-30.4,4.8c-10.4,2.1-20.7,4.8-30.8,8.2C114.2,25.5,103.6,25.9,96.1,33.4L96.1,33.4z M292.4,73.1c5.1,1.8,8.9,3,12.5,4.5
		c10.2,4.2,21,7.5,30.3,13.2c8.6,5.4,15.5,3.7,26.2-1.5c-1.9-0.7-3.8-1.6-5.6-2.5c-15-9.1-31.9-13.3-48.6-17.7
		C302.8,68,297.6,67.1,292.4,73.1z M65.6,72.7c3.5,2.6,5.4,4.4,7.6,5.6c7.6,4.1,19.2-0.7,20.7-9.2c1.3-6.8,1.3-13.9,1.3-20.9
		c0-4.4-2.8-7-7.9-7.8v27.8C80,65.7,74,69.7,65.6,72.7z M285.8,66.2c-15.9-5.8-17.6-5.8-23.4,0.4c6.8,2.2,13,5.5,20.2,3.6
		C283.9,69.9,284.7,67.7,285.8,66.2L285.8,66.2z"/>
	<path class="st1" d="M514.5,556.4c-6.9-0.2-13.9-0.3-20.8-0.7c-1.8-0.2-3.6-0.8-5.2-1.7c-1.1-0.6-2.7-2.5-2.4-3
		c0.7-1.4,2.3-3.3,3.4-3.3c8.3,0.4,16.6,1.3,24.9,2L514.5,556.4z"/>
	<path class="st1" d="M321.6,583c-1.4-2.3-2.8-4.7-4.3-7.2c5.9-3,10.6-1.2,14.8,1.7c1,0.7,0.4,3.6,0.6,5.5H321.6z"/>
	<path class="st0" d="M0,126.4c3.1,3,3,5.9,0,8.9V126.4z"/>
	<path class="st1" d="M493.7,478.5c-6.3,4.2-12.9,6.4-20,2c-1.7-1.2-2.8-3.1-3-5.1c0-1.1,2.9-2.7,4.7-2.9c3.3-0.3,6.5-0.3,9.8-0.1
		C489.1,472.4,492.2,473.9,493.7,478.5z"/>
	<path class="st1" d="M486.9,522.3c-6.7,1.9-13.5,1.1-20.3,0.3c-1.1-0.1-2.7-2.5-2.8-3.8s1.5-3.9,2.4-4c5.4-0.3,10.8-0.1,16.2,0.6
		c2.3,0.3,4.3,2.3,6.4,3.6L486.9,522.3z"/>
	<path class="st1" d="M447.4,573.7c-6.5,0-12,0.3-17.3-0.2c-1.4-0.1-2.9-2.9-3.4-4.7c-0.2-0.6,2.4-2.7,4-2.9
		c3.3-0.5,6.6-0.6,9.9-0.3C444.3,565.7,444.3,565.8,447.4,573.7z"/>
	<path class="st1" d="M494.9,496.5c1.9,0.1,3.8,0.5,5.6,1.2c1.5,1,2.4,2.6,2.5,4.3c-0.1,1.2-2.3,3.1-3.6,3.2c-4,0.3-8,0.1-12-0.7
		c-1.5-0.3-2.5-3.1-3.7-4.8c1.6-1.1,3.2-2.5,5-3.2C489.8,496.1,491.5,496.5,494.9,496.5z"/>
	<path class="st1" d="M489.2,530.2c4.9,0,9.7-0.5,14.2,0.3c1.6,0.3,2.8,3.5,4.1,5.4c-1.7,1-3.4,2.6-5.2,2.8
		C494.3,539.5,492.5,538.3,489.2,530.2z"/>
	<path class="st1" d="M468.3,538.4c-5.2,0.1-9.4-3.1-8.9-6.2c0.3-1.6,2.3-3.9,3.8-4.2c4.5-0.8,9.7,2.7,8.9,5.7
		C471.4,535.7,469.1,537.3,468.3,538.4z"/>
	<path class="st1" d="M460.7,545.3c6.3-0.2,10,2.2,9,5.4c-0.4,1.5-3,3-4.7,3.3c-4.9,0.7-8.6-2-7.8-5.3
		C457.6,547.1,459.9,546,460.7,545.3z"/>
	<path class="st0" d="M355.7,86.8c1.8,0.9,3.7,1.7,5.6,2.5c-10.7,5.2-17.5,6.9-26.2,1.5c-9.3-5.8-20.1-9-30.3-13.2
		c-3.6-1.5-7.4-2.7-12.5-4.5c5.1-6,10.4-5,14.7-3.9"/>
	<path class="st1" d="M277.1,143.3c5,1.3,12.6,2.3,19.6,5.2c9.1,3.8,9.2,12.1,0.7,17.6c-1.8,1.3-3.8,2.3-5.9,2.8
		c-10.7,2.2-21.4,5.1-32.5,3.4c-8.3-1.3-16.6-2.6-24.9-3.8c-4.4-0.6-9-1-10-6.6c-0.9-4.8,1.6-8.9,7.2-11c4.8-1.9,9.7-3.2,14.8-4.1
		C255.4,145.5,264.9,144.6,277.1,143.3z M243.8,155.8c9.9,5.2,35.4,3.6,45.2-3.2C274.3,150.7,259.7,152.6,243.8,155.8L243.8,155.8z"
		/>
	<path class="st1" d="M337,215.8c-0.6,22.1-1.4,44.1-1.9,66.2c-0.1,5.1,0.3,10.3,1,15.4c0.4,3-0.3,5.3-3.1,6.1
		c-3.4,0.9-5.6-1.1-6.6-4.3c-0.3-1.1-0.4-2.2-0.3-3.3c0-8.5,0-17,0.3-25.4c0.4-10.6,1.4-21.2,1.7-31.9c0.3-14,0.2-28,0.3-42
		c0-2.2,0-4.4,0.2-6.6c0.2-2.8,1.4-5.7,4.5-4.9c1.8,0.5,4,3.4,4.1,5.4c0.5,8.4,0.2,16.9,0.2,25.4L337,215.8z"/>
	<path class="st1" d="M309.3,188.7c4.9,0.9,5.5,3.8,5.4,6.8c-0.4,11.7-1,23.4-1.5,35.2c-0.1,3.3-0.3,6.6-0.3,9.9
		c-0.1,21.4-0.1,42.7-0.2,64.1c0,2.7,1.1,6.8-3,7.1c-4.4,0.3-3.6-3.9-3.6-6.6c0-27.3-0.2-54.5,0.3-81.8
		C306.6,212.2,308.2,200.9,309.3,188.7z"/>
	<path class="st1" d="M214,192.1l-10.1,1.4c0,21.3,0,42.3,0,63.1c0,1.5,0.1,3.1-0.5,4.3c-0.7,1.1-1.8,1.9-3.1,2.2
		c-0.6,0.1-2.2-1-2.3-1.8c-0.4-2.2-0.6-4.4-0.6-6.5c0-19.9-0.1-39.7,0-59.6c0-9.5,1.9-10.7,11.4-7.8c1.9,0.7,3.8,1.4,5.6,2.3
		L214,192.1z"/>
	<path class="st1" d="M97.5,270.9c-0.7-4.6-1.8-9.3-1.9-14c-0.4-11.4-0.1-22.9-0.4-34.3c-0.2-7.3-1.2-14.6-1.6-21.9
		c-0.3-3.3-0.3-6.6,0-9.9c0.2-1.5,1.7-2.8,2.7-4.1c1.2,1.5,3,2.8,3.5,4.5c0.6,2,0.1,4.4,0.2,6.6c0.5,11.7,1.3,23.5,1.5,35.2
		c0.1,7.6-1.6,15.4-0.6,22.9C101.6,261.3,101,266,97.5,270.9z"/>
	<path class="st1" d="M240.4,191.4c6.1-4.2,10.9-4.8,15.9-5.2c12.4-1.1,24.8-2.7,37.1-4c0.4-0.1,0.7-0.1,1.1-0.1
		c3.7,0.5,9.8-2.6,10.7,2.2c1.2,6.5-5.5,3.6-8.9,4.4c-15.4,3.6-31.3,5-47.1,4.3C247,192.8,244.7,192.1,240.4,191.4z"/>
	<path class="st1" d="M270.5,240.5c-6.4,0.5-8.7-2-8.7-7c0-11-0.2-22.1,0.1-33.1c0-1.7,2-3.4,3-5.1c1.8,1.5,4.2,2.8,5.2,4.7
		c0.9,1.8,0.4,4.3,0.4,6.5C270.5,217.9,270.5,229.2,270.5,240.5z"/>
	<path class="st1" d="M283.9,220.3c0-7.3,0-14.7,0-22c0-2.7,0.5-5.9,4-4.8c1.8,0.6,4.1,3.4,4.1,5.3c0.1,5.4-1.2,10.9-1.4,16.3
		c-0.3,7.7-0.1,15.4-0.1,23.1c0.1,2.2,0,4.4-0.4,6.6c-0.3,1.1-2.1,2.9-2.6,2.8c-1.4-0.6-3.4-1.9-3.5-3.1c-0.4-5.5-0.3-11-0.4-16.5
		c0-2.6,0-5.1,0-7.7L283.9,220.3z"/>
	<path class="st1" d="M153.1,121.2c-4.9-12.7-4.6-23.3-4.2-33.9c0-1.8,0.5-3.6,1.4-5.2c1.4-2.4,3.5-2.4,5.4-0.4
		c0.6,0.5,0.9,1.1,1.1,1.9C157,95.4,159.4,107.5,153.1,121.2z"/>
	<path class="st1" d="M33.5,186.6c0-3.3-0.3-6.7,0.2-9.9c0.2-1.3,2.1-2.4,3.2-3.5c0.9,1,2.6,1.9,2.7,3c0.9,9.5,1.7,19,2.2,28.5
		c0.1,1.1-2,2.5-3.4,3.2c-0.4,0.2-2.4-1.6-2.6-2.7c-1.2-6.1-2-12.2-3-18.4L33.5,186.6z"/>
	<path class="st1" d="M282.7,115.6c-2-1.9-3.1-2.4-3.5-3.3c-3.2-8.5-2.8-17,0.1-25.5c0.3-0.9,2.4-2.1,3.2-1.9
		c1.2,0.6,2.1,1.8,2.3,3.2c-0.1,7.3-0.5,14.5-1,21.8C283.6,111.8,283.2,113.7,282.7,115.6z"/>
	<path class="st1" d="M146.4,93c0,1.1,0.4,3-0.1,4.7c-0.6,1.6-1.6,2.9-3.1,3.8c-0.4,0.3-2.9-1.3-3.1-2.2c-1-5-1.7-10-2-15.1
		c-0.1-1.2,2.7-3.8,3.3-3.5c1.8,0.7,3.8,2.2,4.4,3.9C146.6,86.9,146.3,89.6,146.4,93z"/>
	<path class="st1" d="M180.4,139c4.5,11.2-4.8,20.2-5.6,30.6c-5.5-5.3-1.3-10.7-0.8-15.9s2.4-10.2,3.7-15.3L180.4,139z"/>
	<path class="st1" d="M272.4,255.8c0,2.9-1.4,5.5-4.9,5.6c-4.1,0-5.4-3.1-5.6-6.7c-0.1-3-0.2-6,3.9-6.5
		C269.4,247.9,272,250.9,272.4,255.8z"/>
	<path class="st1" d="M170.3,95.5c4.6,3.4,2.1,9,4,13.1c0.4,0.7-1.6,3.1-2.9,3.8c-0.7,0.4-3.5-0.9-3.5-1.6
		c-0.4-4.6-0.6-9.1-0.5-13.7C167.3,96.6,169,96.1,170.3,95.5z"/>
	<path class="st1" d="M172.4,90.8c-6.8-2.1-8.7-5.8-8.1-10.5c0.2-1.7,2.1-3.2,3.2-4.8c1.6,1.2,4.3,2.3,4.6,3.8
		C172.8,82.6,172.4,86.3,172.4,90.8z"/>
	<path class="st1" d="M130.4,133.1c6.4,1.2,4.7,5.9,5.5,9c0.3,1-2.1,3.6-3.6,3.9c-2.8,0.6-6.2-4-5.5-7.7
		C127.4,136.2,129.4,134.5,130.4,133.1z"/>
	<path class="st1" d="M292.1,277c-1.9,2.8-2.8,5.4-4.5,6.3c-2.4,1.1-6.3-3.9-5.4-7.6c0.5-1.9,3-3.2,4.7-4.8L292.1,277z"/>
	<path class="st1" d="M292.3,259.4c-2.1,2.7-3.2,5.5-4.9,6c-1.9,0.6-4-0.5-4.6-2.4c-0.2-0.6-0.2-1.3-0.1-1.9
		c0.6-2.8-0.1-7.5,4.2-7.6C288.4,253.5,290,256.9,292.3,259.4z"/>
	<path class="st1" d="M44.4,251.2c0,0.9-0.1,1.8-0.3,2.6c-0.3,0.9-1.3,2.4-1.7,2.3c-1.3-0.2-2.6-0.8-3.5-1.7c-0.7-0.8-1.1-1.9-1-3
		c0.4-3,0.3-6.6,2-8.8C41.4,240.7,44.3,244.9,44.4,251.2z"/>
	<path class="st1" d="M188.1,110.9c-4.9-0.8-6.5-3.5-6-7c0.2-1.4,2.4-3.6,3.7-3.6c3.5,0,4.9,2.9,4.6,6
		C190.3,107.9,188.8,109.5,188.1,110.9z"/>
	<path class="st1" d="M40.7,233c-6.5-3.6-5.3-8-4.3-12.7C42.6,223.3,42.6,223.3,40.7,233z"/>
	<path class="st1" d="M205,278.1L201,283c-1.2-2-3-3.8-3.4-5.9c-0.5-2.3,0.1-5.8,3.5-5C202.6,272.4,203.5,275.7,205,278.1z"/>
	<path class="st1" d="M201.7,305c-1-0.7-1.4-0.8-1.6-1.1c-2.2-3-3.7-6.3-1.5-9.9c0.3-0.5,2.1-0.6,2.8-0.2
		C204.3,295.7,204.3,297.4,201.7,305z"/>
	<path class="st1" d="M186.4,80.9l-4.3-4.5c1.2-1.1,2.6-3.1,3.6-2.9c1.6,0.3,3,2,4.5,3.2L186.4,80.9z"/>
	<path class="st1" d="M158.3,145.7l-4.4,3.9c-1-2.1-2.2-4.1-2.7-6.3c-0.2-0.8,1.5-2,2.3-2.9L158.3,145.7z"/>
	<path class="st1" d="M185.3,85.5c1.3,2.1,2.6,3.3,2.7,4.7c0.1,0.7-2.4,2.5-2.8,2.3c-1.4-0.8-2.4-2-3-3.4
		C182.1,88.4,183.8,87.2,185.3,85.5z"/>
	<path class="st1" d="M155.9,129.9l-3.1,2.4c-0.6-0.8-1.8-1.8-1.6-2.4c0.3-1.1,1.5-1.9,2.3-2.8L155.9,129.9z"/>
	<path class="st1" d="M334.8,374.6c0,7.7,0,15.4,0,23.1c0,2.6-0.3,5.8-3.7,5.5c-2.1-0.2-4.5-2-5.8-3.8c-1.2-1.6-1.5-4.2-1.4-6.3
		c0.6-15,1.3-30,2.2-45c0.1-1.4,2-4,2.8-3.8c1.9,0.3,4.2,1.4,5.1,3c1,1.7,0.8,4.2,0.8,6.4c0.1,7,0,14,0,20.9L334.8,374.6z"/>
	<path class="st1" d="M103.1,416.4c-1-1.7-2.8-3.5-2.8-5.2c-0.3-15.8-0.3-31.6-0.4-47.4c0-0.7-0.1-1.7,0.4-2.1c0.9-1,2-1.7,3.3-2.1
		c0.7-0.1,2.1,1,2.4,1.8c0.5,1.4,0.7,2.9,0.6,4.3c0,15.4,0,30.9-0.1,46.3c-0.2,1.4-0.6,2.7-1.1,3.9L103.1,416.4z"/>
	<path class="st1" d="M200.4,406.8c-0.9-2.3-2.6-4.5-2.7-6.8c-0.3-11.4-0.3-22.7,0-34.1c0-1.4,1.7-2.8,2.5-4.3
		c1.4,0.9,3.1,1.6,4.1,2.8c0.9,1.1,1.4,2.5,1.5,4C206.4,381.2,206.7,394,200.4,406.8z"/>
	<path class="st1" d="M304,375.5c0-4.8-0.3-9.6,0.2-14.3c0.2-1.5,2.5-3.9,3.9-3.9s4.3,2.3,4.2,3.5c-0.4,10.6-1.3,21.1-2.3,31.7
		c-0.5,0.9-1.4,1.6-2.5,1.6c-1.2-0.3-3.2-1.3-3.2-2.2c-0.3-5.5-0.1-11-0.1-16.5H304z"/>
	<path class="st1" d="M290.5,373.5c-0.1,3.3,0.3,6.8-0.7,9.9c-0.6,1.8-3.4,3.7-5.4,4c-1.3,0.2-4.4-2.5-4.3-3.8
		c0.3-7.3,0.9-14.6,2-21.8c0.1-1,2.8-2.4,4.2-2.3s3.6,1.8,3.8,3c0.5,3.6,0.2,7.3,0.2,11L290.5,373.5z"/>
	<path class="st1" d="M280.1,421.6c-0.3-3.6-1.1-5.6-0.5-7.1c0.9-2.2,2.2-4.2,3.9-5.9c0.5-0.5,3.6,0.5,3.7,1.1
		c0.4,2.7,0.8,5.8-0.1,8.3C286.5,419.3,283.6,419.8,280.1,421.6z"/>
	<path class="st1" d="M284.6,403.4c-5.3-0.5-5.5-3.7-4.9-6.5c0.3-1.6,2.3-3.9,3.6-4c3.3-0.3,5.9,3.5,4.8,7
		C287.6,401.5,285.5,402.6,284.6,403.4z"/>
	<path class="st1" d="M41.2,367.8c2-1.9,2.9-3.7,4.3-4.1c2.8-0.7,5.5,0.4,5.1,3.8c-0.3,2.2-2.1,4.3-3.1,6.4L41.2,367.8z"/>
	<path class="st1" d="M332.4,486c0,11.3,0.2,22.6-0.2,33.8c-0.1,1.8-2.8,4.8-4.5,4.9s-3.9-2.3-5.7-3.8c-0.4-0.3-0.3-1.4-0.3-2.1
		c0.4-15,0.8-30.1,1.3-45.1c0-3.7,0.3-7.3,1.1-10.9c0.4-1.5,2.8-3.6,4.3-3.6s4.2,2.3,4.2,3.6c0.4,7.7,0.2,15.4,0.2,23.2L332.4,486z"
		/>
	<path class="st1" d="M308,511.8c0,7,0.1,14-0.1,21c0,1.1-1.5,3.1-2.3,3.1c-1.7,0-3.4-0.7-4.7-1.8c-0.9-1.1-1.4-2.5-1.4-4
		c0.6-13.9,1.3-27.8,2.2-41.7c0.1-1.3,2.1-2.5,3.2-3.8c1,1.4,3,2.7,3,4.1c0.3,7.7,0.1,15.5,0.1,23.2L308,511.8z"/>
	<path class="st1" d="M280.5,499.3c4.4,0.8,7.5,1.7,7.5,6c0.1,6.5,0.2,13,0,19.4c-0.1,2.9-0.6,5.8-1.6,8.5c-0.8,1.5-2.2,2.6-3.9,2.9
		c-1.5,0-2.9-1.7-4.3-2.8c-0.5-0.6-0.7-1.3-0.7-2C277.6,520.8,275.9,510.1,280.5,499.3z"/>
	<path class="st1" d="M206.1,555c0.1,2.9,0.1,5.9-0.1,8.8c-0.1,1.2-1.5,3.1-2.3,3.1c-1.7,0-3.4-0.7-4.7-1.8c-1-1.1-1.5-2.5-1.5-4
		c-0.3-5.1-0.2-10.3,0.1-15.4c0.1-1.6,2.5-4.4,3.4-4.2c1.8,0.3,4.2,2,4.7,3.6c0.9,3.1,0.5,6.5,0.6,9.8L206.1,555z"/>
	<path class="st1" d="M102.9,524.8c1.8-2.3,2.9-5.3,4.5-5.6c3.4-0.6,5.4,2.2,5.3,5.4c-0.1,3-1.2,6-2,9c-0.1,0.3-2.6,0.4-2.9-0.1
		C106.1,530.9,104.8,528.2,102.9,524.8z"/>
	<path class="st1" d="M54.4,504.5c-7.3-3.8-6-9.8-4.7-16.1C58.7,492.6,59.5,495.5,54.4,504.5z"/>
	<path class="st1" d="M201.8,534.8c-2.2-4.2-3.8-6-4.2-8.1c-0.5-2.6,0.2-5.3,3.6-5.6c4.1-0.3,5.2,2.4,4.7,5.6
		C205.6,528.8,204.1,530.6,201.8,534.8z"/>
	<path class="st1" d="M112.3,489.4c-2.1,2.1-3.5,4.5-4.8,4.5c-4.1-0.3-4.7-4-5-7.2c-0.2-2.6,1.4-5.9,4.2-4.7
		C109,482.9,110.3,486.5,112.3,489.4z"/>
	<path class="st1" d="M274.9,519.3c-2.6,2.6-4.1,5.3-5.7,5.5c-3.4,0.3-5-2.4-5.2-5.8s1.5-5.2,4.6-4.5
		C270.4,514.9,272,517,274.9,519.3z"/>
	<path class="st1" d="M264.8,498.8c4.6-0.2,6.6,1.9,6.5,5.1c0,1.2-2.7,3.3-4.3,3.4c-3.3,0.2-5.4-2.1-4.9-5.5
		C262.3,500.5,264.2,499.4,264.8,498.8z"/>
	<path class="st1" d="M109.6,511.7c-5.9-1.7-6.1-5.2-4.7-9c0.3-0.7,2.9-1.5,3.6-1C112.4,504.3,111.3,507.8,109.6,511.7z"/>
	<path class="st1" d="M271.6,490.1c-3.2,1-4.8,2-6.1,1.7s-2.4-2-3.6-3c1.2-1,2.6-3,3.6-2.8C267.1,486.4,268.6,488,271.6,490.1z"/>
	<path class="st1" d="M201.1,506.5c1.3,2.7,2.4,4.3,2.7,6.1c0.1,0.6-1.6,1.5-2.5,2.3c-1.2-1.5-2.6-3-3.4-4.7
		C197.8,509.8,199.5,508.4,201.1,506.5z"/>
	<path class="st1" d="M181.5,31c4.1,0,8.2-0.4,12.2,0.1c3.3,0.3,6.4,1.4,9.3,3c5.6,3.5,5.8,9.9,0.3,13.5c-3.7,2.5-7.7,4.3-12,5.3
		c-10,2.5-20,5.2-30.1,6.2c-6.7,0.7-13.8-1.2-20.6-2.5c-4.6-0.9-8.3-4.2-8.4-9.1c-0.1-4.4,3.4-7.3,7.5-8.7
		c10.7-3.9,21.6-7.2,33.1-7.8C175.7,30.9,178.6,31.1,181.5,31L181.5,31z M157.3,43.7c10.8,1.3,19.4-0.2,28.4-3
		c-0.9-1.3-1.3-2.3-1.7-2.3c-6.9,0.7-13.8,1.3-20.7,2.3C161.7,40.8,160.3,42.1,157.3,43.7z"/>
	<path class="st1" d="M55.4,150.7c-1.2,2-2,5.3-3.6,5.8c-2.4,0.7-5.4-0.4-8-1.2c-0.6-0.1-1.1-2.6-0.9-2.7c2.4-1.2,4.9-2.5,7.5-3
		c1.6-0.3,3.5,0.8,5.2,1.2L55.4,150.7z"/>
	<path class="st1" d="M99.9,139.9c-2.3-2.1-3.6-2.7-3.8-3.5c-1.8-12-3.7-23.9-5-36c-0.4-3.8-1.6-8.6,3.2-10.8
		c2.6-1.2,5.1,3.3,5.3,10.5C100,112.8,100,125.6,99.9,139.9z"/>
	<path class="st0" d="M157.3,43.7c2.9-1.5,4.4-2.8,6-3c6.9-1,13.8-1.6,20.7-2.3c0.3,0,0.8,1,1.7,2.3C176.8,43.5,168.1,45,157.3,43.7
		z"/>
</g>
</svg>
