<?xml version="1.0" encoding="utf-8"?>
<!-- Generator: Adobe Illustrator 23.0.6, SVG Export Plug-In . SVG Version: 6.00 Build 0)  -->
<svg version="1.1" id="Layer_1" xmlns="http://www.w3.org/2000/svg" xmlns:xlink="http://www.w3.org/1999/xlink" x="0px" y="0px"
	 viewBox="0 0 763.8 371.7" style="enable-background:new 0 0 763.8 371.7;" xml:space="preserve">
<style type="text/css">
	.st0{fill:#FFD100;}
	.st1{fill:#FFFFFF;}
	.st2{fill:#EF483E;}
</style>
<title>orange-wagon</title>
<g>
	<path class="st0" d="M286.7,0h38.8c9.9,3.3,19.7,2.2,29.6,0h33.3c20.2,1.5,40.4,3.7,60.7,4.4c16.7,0.6,31,4.3,40,19.8
		c1.4,2.4,3.2,4.5,4.8,6.8c6.3,8.8,5.8,10-5.1,13.3c-0.2,0.1-0.3,0.2-0.4,0.3c0.7,3.4,1.9,6.5,1.9,9.7c0.7,25.5,1.2,51.1,1.9,76.6
		c0.3,13.5,1.2,27.1,1,40.6c-0.2,7.5,0.1,16.8-4,22.2c-6.9,9.1-4.9,15.2,1.6,22.2c1.2,1.3,2.2,2.9,3.9,5c3.8-6,7.6-3.2,11.6-0.8
		c6,3.7,12.4,6.9,18.3,10.7c26.8,17.5,53.8,34.5,79.4,53.9c15.4,11.7,31.7,22.3,47.9,32.9c15.9,10.5,32.2,20.6,48.4,30.7
		c2.7,1.8,5.9,2.9,9.2,3.1c18.2,0.3,36.3,0.1,54.5,0v5.5c-4.6,0.1-9.3,0.2-13.9,0.3c-16,0-31.9,0.1-47.9,0c-2.7,0-5.8-0.3-8-1.6
		c-12.8-7.3-25.7-14.6-38.1-22.5c-7.2-4.6-13.3-10.9-20.4-15.8c-28.3-19.7-56.9-39.1-85.3-58.5c-2.9-2-5.9-3.7-9.4-6
		c-0.8,4.4-1.3,7.3-1.8,10.5c-1,0.1-2,0.1-3.1,0c-6.1-1.5-7.5-6.5-8.9-11.7c-4.1-14.9-13-22.4-29.5-24.4c1.2,3.8,2.8,7.2,3.1,10.6
		c1.1,11,7.9,17.6,16.4,23c10.6,6.8,21.1,13.9,32,20.2c30.4,17.6,59.2,37.7,87.8,58c13.8,9.8,27.6,20,46.1,17.9c0.5,0,1.1,0.6,3,1.7
		l-32,3c4.2,1.7,8.3,1.8,12.5,1.7s8.2-1,12.5,2.1c-17.7,4.5-42.8,4.4-49-0.3l8.1-2.2c-6.5-0.8-10.8-1.2-15.1-1.9
		c-4.3-0.7-9,0.7-12.5-3.4c5.2-0.8,10.4-1,15.6-0.8c3.6,0.1,7.7,0,8.1-4c0.2-2.1-3-4.6-4.8-6.8c-0.7-0.6-1.5-1.1-2.3-1.5
		c-11.5-8.3-23.1-16.4-34.4-24.9c-17-12.9-36-22.4-54.9-32.5c-6.6,10.9-11.5,22.7-19.8,31.4c-8,8.5-19.4,13.8-30.2,21.1
		c3.3,0.2,5.6,0.4,8,0.5c27.4,1.4,54.7,2.6,82.1,4.1c3.6,0.2,7.7,0,11.6,5c-25.3-0.1-48.8-3.3-72.4-0.9l13.8,2
		c0,0.8,0.1,1.6,0.1,2.4c-3,0.4-6.1,1.1-9.1,1c-24.3-1-48.6-2.4-72.9-3c-25.2-0.6-50.5-0.5-75.7-0.7c-1.9-0.2-3.8-0.5-5.6-0.9v-1.5
		l13.5-2.6c-0.7-1.2-0.8-1.6-1.1-1.7c-1.8-1.2-3.7-2.3-5.5-3.4c-21.3-12.5-36.8-29.8-42.5-54.4c-2.1-9.3-3.5-18.7-4.3-28.1
		c-0.5-5.2-1.9-8.1-7.5-8c-13.8,0.1-27.9-1.4-41.4,0.7c-10.3,1.5-19,7.3-21.8,20c-4.1,18.6-12.8,35.2-27.1,48.4
		c-5.6,5.2-11,10.5-17.3,16.5l10.9,4.5c-16.3,2.7-32.5,5.1-48.5,4.1c-9.3-0.6-18.1,0.2-27.2,0.9c-7.3,0.5-14.6,0.7-21.9,0.5
		c-6.4-0.2-12.9-1.6-19.3-1.4c-15.4,0.4-30.8,1.7-46.2,2.2c-11.8,0.4-23.7,0.1-35.6,0.1c6.2-2.1,12.5-2.8,18.8-3.7
		c2.1-0.3,5.5-0.3,6-1.4c2.5-5.4,7.1-3.8,11.1-3.9c4.7-0.2,9.5,0,14.3,0l0.4-2.1c-3.4-2.5-6.8-5-10.3-7.4c-9.4-6.6-17.8-14.4-24-24
		c-15.5-23.8-22.6-49.6-17.4-78.2c5.4-29.9,20.5-53.1,46.3-69.1c17.7-10.9,37-16.4,58-15.5c4.7,0.2,9.5,0,13.6,0
		c-1.5-5.1-2.9-9.3-4-13.6c-0.6-2.4-1-4.8-1-7.3c-0.5-25.6-0.9-51.1-1.3-76.7c-0.2-8.7,2.3-15.8,11-19.4c12.8-5.3,25.4-11,38.3-15.9
		c5.7-2.1,11.8-3.3,17.9-3.6c26.2-1.2,52.3-1.8,78.5-2.7C283.1,0.9,284.9,0.5,286.7,0z M196.1,166.6l-2-2
		c-4.4-8.8-12.3-12.9-21.4-15.3l21.5,15.3l2,2l1.9,1.9l1.8,1.9l1.8,1.8l1.8,1.8l9.7,14.1c-0.8-6.5-3.6-11.5-9.8-14l-1.8-1.8
		l-1.8-1.8l-1.8-1.9L196.1,166.6z M331.1,62.8l1.8-1.9c2.5-2.3,4.8-4.9,7.6-6.7c1.9-1.2,5.2-2.4,6.6-1.5s1.6,4.2,2.4,6.6
		c3-1.9,6.2-4.3,9.7-6.1s7.5-7.1,11-1.8c3.2,4.8-2.4,7.6-5.5,10.1c-12.3,9.8-24.7,19.3-37.3,28.7c-2.1,1.6-4.9,2.4-7.5,3.1
		c-8.6,2.4-9.7,3.8-10.3,12.7c-0.9,14.1-1.4,28.3-3.2,42.3c-1.5,11.7-1.8,23.2,0.6,34.8c1.6,7.5,2.1,15.2,3.5,22.7
		c0.9,4.9,1.3,10.1,6.7,13.9c1.5-5.2,3-9.6,3.8-14c0.2-1.4-1.2-4.2-2.5-4.6c-4.7-1.8-5.6-5.5-5.7-9.6c-0.3-13.5-0.8-27.1-0.2-40.6
		c0.2-4.9,3.1-9.7,4.8-14.5c0.5-1.4,1.8-2.7,1.8-4.1c0-6.6,4.5-8.8,9.7-10.6c17.1-5.9,34.2-12.1,52.9-8.9c2.7,0.4,5.5-0.4,8.3-0.4
		c5.6,0.1,11.2,0.5,17.5,0.7c0.3-1.1,0.5-2.2,0.6-3.3c-0.5-19.7-1-39.4-1.8-59.1c-0.2-5.4-2-6.3-8-6.1c-6.7,0.3-13.4,0.1-20.1,0.2
		c-3.7,0.1-7.4,0.1-11,0.3c-8.3,0.5-16.5,1.5-24.8,1.7c-13.2,0.3-26.4,0.1-39.6,0.1c7,0.2,5.4,6.8,7.3,10.9l7.8-8.6
		c2.2,10-4.9,17.2-5.9,27.5c4.9-7.8,8.5-14.2,12.8-20.1c1.2-1.6,4.5-2.9,6.3-2.5c3.7,0.9,2.4,4.3,1.9,6.9l-1.8,1.9l-2.1,2l-0.1-0.2
		L331.1,62.8z M246,105.5l-0.3,0.2L246,105.5l1.8-2c2.6-2.5,5-5.2,7.8-7.6c2.5-2.2,5.4-4,8.1-5.9c-7.4,2.2-12.4,7-15.7,13.6
		L246,105.5z M188.6,210.8l3.6-1.7l0.1,0.1l-3.6,1.7l-3.9,1.8l-12.8,7.3l-0.3,0.2l0.2-0.3c5.9,0.5,9.7-2.9,12.8-7.3L188.6,210.8z
		 M271.7,129.1l8.5-20.3l-2.7-1c-4.3,6.3-4.3,14.1-5.7,21.4L271.7,129.1z M221.9,114.5c1.6-0.9,3.6-1.4,4.7-2.8
		c8.4-10.8,16.5-21.6,26-34.1c-14.6,10.5-23.7,22.8-30.5,37l-0.3,0.2L221.9,114.5z M171.9,161.1l0.1-0.1c0.5,0.8,1,1.6,1.4,2.4
		c4.4,7.9,4.4,7.9-3.3,13.3c-3.1,2.2-4.4,4.8-2.5,8.5c6.1,0.3,8.3-8.5,16-6.2c-1.4,2-2,3.4-3,4.4c-9.7,9.7-19.5,19.3-29.2,28.9
		c-1.9,1.9-3.6,4-5.5,6l-0.2,0.7l0.3-0.5c8.1-5.5,16.2-11,24.2-16.7c3.8-2.7,7-6.1,11-8.4c6.1-3.6,14.1-0.7,18.1,6.1
		c4.1,7,2.9,10.8-4.7,15.5c-7.2,4.4-14.4,8.8-21.6,13.3l1,2l34.1-11.9c-0.6-2.3-0.8-4.7-1.7-6.9c-5-11.5-9.9-23.1-15.2-34.5
		C187.5,168.6,180.3,164,171.9,161.1L171.9,161.1z M53.3,290.5l-1.4-2.1c2.8-2.5,5.2-5.6,8.3-7.5c11.6-7,23.6-13.4,35.2-20.3
		c2.4-1.4,5.3-4.3,5.4-6.5c0.1-4.3-4.2-4.6-7.6-4.6c-7.7,0-15.3,0.4-23,0.5c-3.1,0-6.2-0.3-9.2-0.5c3.5-5,7.8-6.2,12.4-6.5
		c6.8-0.4,13.5-0.6,20.3-1c3-0.1,6.3,0.3,7.6-4.9c-12.7-8.6-28.7-12.4-39.9-24.1l40,14.6c-1.4-4.5-1.9-7.5-3.1-10.2
		c-5.6-13-11.2-26-16.9-38.9c-1.2-2.8-3.2-5.5,0.8-8.2c6.5,5,12,10.5,15.3,18.1c3.4,7.9,7.2,15.6,11.1,23.4c1.6,2.8,3.3,5.5,5.2,8
		l2-0.4c0.9-2.8,1.7-5.6,2.3-8.5c2.5-14.9,4.8-29.8,7.5-44.6c0.4-2.3,2.7-6.2,3.9-6.1c4.1,0.3,3.3,4.2,3.4,7.1
		c0,0.3-0.1,0.6-0.1,0.9c-2.1,15.5-4.2,31.1-6.1,46.7c-0.3,2.5-0.1,5.1-0.1,8.7c7.4-3.9,10.5-8.5,10.4-15.9
		c-0.3-13.5,0.2-27.1,0.4-40.6c0.1-5.8,0.1-11.7,5.6-15.8c-0.5-0.6-1.1-1.1-1.8-1.5c-1.1-0.6-2.3-0.9-3.5-1.2
		c-18.5-2.3-36.5,1.3-53.5,7.4c-19.4,7-31.8,22.5-41.2,40.3c-3.1,5.9-4.2,12.8-6.4,19.2c-8.6,24.3-9,48.6,3.9,71.3
		c11.7,20.7,28.8,35.8,53.2,40.7c2.7,0.5,5.2,1.9,7.9,2.5c7.7,1.9,15.4,2.8,22,1c-2.1-8.6-4.2-16.2-5.7-23.9
		c-2.2-11.2-3.8-22.5-5.9-33.7c-1.7-9.2-4.2-10.5-12.2-6.3c-12,6.3-23.8,12.9-35.8,19.2C60.5,288,56.9,289.1,53.3,290.5z M396,240.7
		l-2.7-0.4c-1,6.2-4.9,9-10.3,9c-11,0-22.2,0.3-33.1-0.8s-14.5,0.8-13.3,11.3c1.9,16.4,3.5,33.3,13.8,47.2
		c4.4,5.9,9.4,11.3,14.9,16.1c3.8,3.4,8.7,5.6,13.4,7.8c8.5,4,16.8,7.9,26.7,8.6c11.7,0.8,22.6-2.4,33.9-3.2
		c12.3-0.9,21.3-7.7,29-16.3c10.3-11.5,15.6-25.8,18.9-40.5c1.9-8.2,1.8-16.8-0.5-24l-47.1,6.8c10.6,2.4,21,3,31.4,3.9
		c4.3,0.4,9.2,0.5,10.7,7h-43.1c11.9,9.7,26,16.2,35.4,30.8c-3.8-0.5-6.5-0.2-8.3-1.3c-5.8-3.3-11.5-7-16.9-10.9
		c-4.1-2.9-7.2-7.4-14.1-8.5c1.1,3.6,1.7,6.2,2.8,8.5c3.9,8.7,8,17.3,11.8,26.1c1.3,3.1,3.5,6.6-0.5,11.1c-5.8-7.2-10.9-15-15-23.4
		c-4-7.9-6.5-16.8-14.1-23.2c-2.9,17.2-0.9,34.6-3.5,52.1c-5.8-2.2-5.2-6.4-5.2-9.8c-0.2-10.8,0-21.6-0.1-32.3
		c-0.1-6.8-1.9-9.3-8.3-9.8c-3-0.1-5.9,0.8-8.2,2.6c-6.5,5.1-12.6,10.8-18.8,16.3c-3,2.6-6,5.3-9.2,7.7c-2.4,1.8-5.4,4.2-8,1.1
		c-0.6-0.7,1.7-4.8,3.4-6.4c6.4-5.8,13.2-11.1,19.8-16.6c3.1-2.6,6.2-5,9.2-7.7c2.6-2.4,4.5-11.5,2.2-13.5c-2.3-2.1-5.8-2.8-8.9-3.2
		c-3.3-0.4-6.7,0.4-10.1,0.6c-8.3,0.5-16.6,1.1-24.9,1.1c-2,0-5.3-1.6-5.7-3.1c-0.5-1.9,0.9-4.7,2.2-6.6c0.9-1.3,3.1-1.8,4.9-2.1
		c4.2-0.7,8.5-1.6,12.8-1.5c8.9,0.1,17.8,1.1,26.7,1.2c3.2,0,6.4-1.4,9.6-2.2C398.4,247.1,397.2,243.9,396,240.7L396,240.7z
		 M476.8,198.7l2.2-1c0.6-9.2,2-18.4,1.8-27.5c-0.6-23.6-1.9-47.3-2.8-70.9c-0.8-19.5,0.2-39,3-58.3c-11.5,1-22.8,1.6-34,3
		c-8.2,1-8,1.5-9.1,9.8c-3.9,31.2-5.8,62.5-6.7,93.9c-0.1,3.9,0,7.8,0,10.2c8.5,3.1,15.7,4.8,22.1,8.2c8.5,4.5,10.9,12,7.4,19.4
		L476.8,198.7z M183.8,297.2c-3-0.9-5-1-6.2-2c-5.4-4.5-10.4-9.6-15.9-14c-6.6-5.3-13.5-10.5-20.5-15.3c-3.2-2.2-16.4,1.8-18.2,5.1
		c-0.4,0.8-0.6,1.7-0.5,2.7c1.8,17.5,3.4,34.9,5.5,52.4c0.7,5.5,3.4,7.1,9.1,6.5c3.4-0.4,6.7-1,10-1.8c29.8-6.7,50.8-23.6,60.7-53.1
		c2-5.9-0.9-10.4-6.9-10.9c-6-0.6-12.3-1.2-18.4-1.7c-7.1-0.6-14.2-1.2-23-1.9L183.8,297.2z M406.4,141.2c-12,3.8-12,3.8-13.1-7.4
		c-0.1-0.6-0.1-1.2-0.2-1.8c-1.1-7.5-2.9-9-10.4-7.6c-3.6,0.9-7.1,1.9-10.6,3.2c-5.3,1.7-10.5,3.8-15.8,4.9
		c-3.1,0.6-7.1,0.7-9.5-0.8c-6.8-4.2-11.8,0.1-17.1,2.5c-0.9,0.4-1.6,2.6-1.5,3.9c1,9.7,2,19.4,3.4,29.1c1,7.2,2.9,8.6,9.8,7
		c4.1-1,8-3.1,12.1-4.4c5.2-1.7,10.5-3.6,15.9-4.4c10.9-1.5,22-2,32.9-3.3c1.5-0.2,3.9-2.2,4-3.6C406.7,153,406.4,147.5,406.4,141.2
		L406.4,141.2z M247.4,263.7c-3.6-0.5-6.4-0.8-9-1.3c-11.1-1.9-12.8-1-16.1,9.5c-7.5,23.2-19.4,43-40.5,56.4
		c-0.3,0.1-0.5,0.3-0.7,0.5c-0.9,1.4-1.8,2.9-2.7,4.4c1.5,0.9,2.9,2.3,4.4,2.5c5.3,0.6,10-0.7,14.7-3.8c18-11.8,30.6-28.3,41.3-46.3
		C242.5,279.2,246.9,272.7,247.4,263.7L247.4,263.7z M223,203.1l-1.7,0.9c1.8,8.7,3.5,17.3,5.2,26c0.9,4.8,3.4,6.8,8.5,6
		c7-1,14-1.9,21.1-2.3c8.6-0.5,17.2-0.9,25.8-0.7c14.4,0.3,28.9,1.2,43.3,1.8c4.5,0.2,7.7-1.6,9.1-6.1c2.9-9.4,8.8-16.9,15.2-24
		c2.6-2.9,4.6-5.8,1.9-11.1c-4,4.8-7.6,9.3-11.3,13.6c-5.1,6-10.3,12-15.7,17.8c-1,1-3.9,1.9-4.7,1.2c-3.2-2.4-6-1.8-9.5-0.6
		c-1.9,0.6-5.3,0-6.5-1.5c-3.7-4.2-7.9-3.8-12.7-3.1s-9.8,1.1-14.7,1.5c-7.7,0.6-15.4,0.5-23,1.8c-12.6,2.1-15.7,0.9-22.5-10.3
		C228.6,210.1,225.7,206.7,223,203.1z M505,267.2c-8.3,31-4.7,32.5-37.2,70.7c1.6,0.2,3.1,0.3,4.7,0.4c1.2,0,2.4-0.3,3.5-0.8
		c17-8.6,34.6-16.9,42.2-36.3c2.5-6.4,3.6-13.5,4.7-20.4c0.3-1.6-1.2-4.4-2.7-5.4C515.5,272.4,510.3,270,505,267.2L505,267.2z
		 M149.9,31.7c3.9,3.4,8.4,5.5,10.8,2.7c4.6-5.3,9.7-3.9,15.1-3.9c66.2-0.4,132.3-0.9,198.4-1.4c1.6,0,3.1-0.3,4.7-0.4
		c-3.4-1.6-7.1-2.4-10.9-2.3c-26.2,0-52.3,0.1-78.5,0.3s-52.1-2.5-78.2-0.8c-5.5,0.4-11-0.4-16.6-0.8c-6.1-0.4-12.3-1.7-18.4-1.2
		C167.7,24.7,158.2,24.3,149.9,31.7z M425.6,228.7c6.6,1.1,11.6-0.7,15.1-5.6c4.8-6.7,9.4-13.6,14.1-20.4c1.8-2.7,1.3-4.8-0.7-7.4
		c-7.5-9.6-18.2-11.7-29.3-13c-3.6-0.4-4.9,1.7-5.5,4.7c-1,5.1-2.3,10.2-2.9,15.3c-0.4,2.8,0.3,5.6,0.5,8.5l1.3-0.1
		c2.4-4.5,4.7-9.1,7.1-13.6l2.1,0.8C430.1,207.9,423.8,217.8,425.6,228.7z M364.8,204.1c-0.9-0.1-1.8-0.4-2-0.1
		c-5.8,7.1-11.8,14-17,21.4c-3,4.3-1.4,7.7,4.2,8.1c11.9,0.8,23.8,0.8,35.7,0.8c1.1,0,2.2-1.5,4-2.8c-8.3-5.4-15.8-9.9-25.2-6.1
		c-3.5,1.4-7.3,1.5-8.8-2c-1-2.2-0.3-6,1-8.4C358.7,211.2,361.9,207.9,364.8,204.1L364.8,204.1z M416.3,29.4l0.7,2.1l51.8-4.6
		c-3.7-5.9-7.9-9-12.9-8.5c-9.7,1-19.3,2.6-28.8,4.9C423.3,24.2,419.9,27.3,416.3,29.4z M452.3,226.1l32.2,7.2
		c-1.6-3.5-2.3-6.5-4-8.5c-3.6-4.1-7.3-7.9-11.3-11.6c-1.9-1.8-4.2-2.6-6.3,0L452.3,226.1z M387.4,206c-0.6-3-0.8-4.2-1.1-5.4
		c-0.7-3.4,0.1-6.2,3.5-7.6c3.8-1.6,7.4-0.8,9.8,2.7c2.1,3.1,3.8,6.4,5.7,9.7l2-0.5c0-6,0.1-12,0-18.1c-0.1-3.3-2.6-4.3-5.2-3.4
		c-8.4,2.8-16.6,5.9-25.9,9.3C380.1,197.2,383.1,200.9,387.4,206L387.4,206z M423.1,111.2c5-30.4,4.3-57.8-0.7-66.3
		c-0.7,1.2-1.8,2.2-1.8,3.1C421.4,69.1,422.3,90.1,423.1,111.2z M400.1,225.5c2.1,5.4,3.6,9.9,5.5,14.2c0.6,1.5,2.2,3.3,3.5,3.5
		c1.1,0.1,3-1.8,3.5-3.2c1.6-4.4,2.7-9,3.9-13.1L400.1,225.5z M433.8,174.6c-3.6-8.7-6.8-16.5-10-24.2c-1,1.4-1.5,3-1.5,4.7
		c-0.2,3.6-0.6,7.3-0.6,11C421.6,174.5,422.6,175.3,433.8,174.6L433.8,174.6z M126.7,246.2c0.1-2.9-4.3-6.8-7.6-6.7
		s-7.1,4.4-7.2,8.4c0,3.8,1.3,6.7,5.6,7S126.6,250.6,126.7,246.2L126.7,246.2z M186.4,234.5c7.7,0,13.8,0.3,19.9-0.1
		c3.2-0.2,4.8-2.7,3.9-5.9c-1-3.5-3.4-2.6-5.8-1.6C198.9,229.2,193.4,231.5,186.4,234.5L186.4,234.5z M229.4,169
		c6.6,0.5,9.2-4,11.6-8.5c6.6-12.2,6.9-14,4.7-19.7C240.1,150.3,242.2,163.9,229.4,169L229.4,169z M411.7,263
		c-1.3,4.5-0.8,7.8,3.5,9.1c0.7,0.2,3-2.2,3.2-3.6C419.1,263.4,414.8,264.4,411.7,263L411.7,263z M281.9,103.1l2.7,0.8
		c3.6-3.4,3.8-7.6,3.2-12l-1.9-0.6C284.5,95.4,283.2,99.3,281.9,103.1z M293.9,199.3c-4.6,0.7-5.9,2.5-3.9,5.1
		c0.4,0.6,1.6,0.6,2.4,1L293.9,199.3z M195.2,125.2l1.9,0.8l3.2-8.6l-1.2-0.5C197.9,119.6,196.6,122.4,195.2,125.2L195.2,125.2z
		 M373.9,181l0.5,1.8l5.9-1.7l-0.5-1.8L373.9,181z M426,245.2c-1-1-1.7-1.9-2.1-1.8c-0.9,0.2-1.6,0.7-2.1,1.5
		c-0.2,0.5,0.4,1.4,0.7,2.1L426,245.2z M399.6,175c0-0.2,0-0.4,0-0.6c-0.3-0.1-0.5-0.1-0.8-0.1v0.8L399.6,175z M230.2,184.5l0.3,0.8
		l1.4-0.5c-0.4-0.3-0.8-0.6-1.2-0.9C230.5,184.1,230.4,184.3,230.2,184.5z M237.4,200.9l0.3,0.7l0.3-0.7L237.4,200.9z"/>
	<path class="st1" d="M528.5,221.5c-9.3-18.8-15.3-25.1-24.3-25.7C504.1,212.1,513.5,216.1,528.5,221.5z"/>
	<path class="st2" d="M141.6,349.9l-0.2-2.3c-11.2,0-22.5-0.3-33.7,0.1c-18.4,0.7-36.7,1.9-55.1,3c-2.3,0.1-4.6,1.3-6.9,1.9l0.5,2.9
		c5-0.2,10-0.2,15-0.8c5.5-0.6,10.8-2.4,16.3-2.6c16.9-0.5,33.8-0.4,50.6-0.7C132.6,351.2,137.1,350.4,141.6,349.9z M437.6,359.8
		c-15.5-5.9-31.1-0.2-46.6-0.9c-1,0-2,1.5-3,2.3C404.8,364.3,421.1,360.9,437.6,359.8L437.6,359.8z M457.6,359.6l-0.3,2.7
		c4.6,1.1,9.2,2.6,13.8-1.6L457.6,359.6z M227.9,339.4l-1.3-0.1c0.2,0.1,0.4,0.4,0.6,0.4C227.4,339.8,227.6,339.6,227.9,339.4z
		 M684.9,365.4l-1.2-0.3c0.1,0.2,0.1,0.6,0.2,0.6C684.3,365.6,684.6,365.5,684.9,365.4L684.9,365.4z"/>
	<path class="st0" d="M719.4,371.7c0.4-1.3,0.5-3.5,1.3-3.8c6.9-2.5,13.9-1.7,20.7,0.6c0.4,0.1,0.2,2.1,0.2,3.1H719.4z"/>
	<path class="st1" d="M355.1,0c-9.9,2.2-19.7,3.3-29.6,0H355.1z"/>
	<path class="st0" d="M0,353.2c4.4-1.6,8.7-3.7,14.5-1.6c-4.5,5.5-10,2.7-14.5,3.5V353.2z"/>
	<path class="st1" d="M399.6,175l-0.8,0.1v-0.8c0.3,0,0.6,0,0.8,0.1C399.7,174.7,399.7,174.8,399.6,175z"/>
	<path class="st1" d="M230.2,184.5c0.2-0.2,0.3-0.4,0.5-0.6c0.4,0.3,0.8,0.6,1.2,0.9l-1.4,0.5L230.2,184.5z"/>
	<path class="st1" d="M188.8,210.9l3.6-1.7l-0.1-0.1l-3.6,1.7L188.8,210.9z"/>
	<path class="st1" d="M188.6,210.8l-3.9,1.8l0.1,0.1l3.9-1.8L188.6,210.8z"/>
	<path class="st1" d="M271.7,129.1l0.1,0.1L271.7,129.1z"/>
	<polygon class="st1" points="237.4,200.9 238,201 237.7,201.6 	"/>
	<path class="st1" d="M192.4,209.2l-0.1-0.1L192.4,209.2z"/>
	<path class="st1" d="M146.1,218.3l-0.3,0.5l0.2-0.7L146.1,218.3z"/>
	<polygon class="st1" points="172,219.9 171.8,220.2 172.1,220 	"/>
	<polygon class="st1" points="222,114.5 221.8,114.8 222,114.6 	"/>
	<polygon class="st1" points="245.9,105.4 245.7,105.7 246,105.5 	"/>
	<path class="st1" d="M246,105.5l1.9-1.9l-0.1-0.1l-1.9,1.9L246,105.5z"/>
	<path class="st1" d="M329.1,64.8l0.1,0.2L329.1,64.8z"/>
	<path class="st1" d="M331.3,62.9l1.8-1.9l-0.1-0.1l-1.8,1.9L331.3,62.9z"/>
	<path class="st1" d="M331.1,62.8l-2,2l0.1,0.2l2.1-2L331.1,62.8z"/>
	<path class="st1" d="M172.1,160.9l-0.1,0.1L172.1,160.9z"/>
	<path class="st0" d="M528.5,221.5c-15-5.4-24.4-9.4-24.3-25.7C513.2,196.4,519.3,202.7,528.5,221.5z"/>
	<path class="st0" d="M141.6,349.9c-4.5,0.5-8.9,1.4-13.4,1.5c-16.9,0.3-33.8,0.2-50.6,0.7c-5.4,0.2-10.8,2-16.3,2.6
		c-5,0.6-10,0.5-15,0.8l-0.5-2.9c2.3-0.7,4.6-1.8,6.9-1.9c18.3-1.1,36.7-2.3,55.1-3c11.2-0.4,22.4-0.1,33.7-0.1L141.6,349.9z"/>
	<path class="st0" d="M437.5,359.8c-16.5,1.1-32.7,4.5-49.7,1.4c1-0.8,2.1-2.3,3-2.3C406.4,359.6,422.1,353.9,437.5,359.8z"/>
	<path class="st0" d="M457.6,359.6l13.6,1.1c-4.6,4.2-9.2,2.7-13.8,1.6L457.6,359.6z"/>
	<path class="st0" d="M227.9,339.4c-0.2,0.1-0.4,0.4-0.6,0.3c-0.2,0-0.4-0.3-0.6-0.4L227.9,339.4z"/>
	<path class="st0" d="M684.9,365.4c-0.3,0.1-0.7,0.2-1,0.2c-0.1,0-0.1-0.4-0.2-0.6L684.9,365.4z"/>
	<path class="st0" d="M351.4,90.6c6.7-3.1,13.3-6.2,20-9.1c2.7-1.1,6.4-3.4,7.9,0.5c0.7,1.8-1.6,6-3.7,7.4
		c-11,7.2-21.5,15.5-34.6,18.9c-2,0.5-5.2,1.8-6.1,0.9c-4.8-4.6-9.5-1.9-16.4,0.7c1.3-3.7,1.5-6.1,2.8-7.4
		c12.5-12.8,26-24.4,42-32.7c3.2-1.7,7-3.1,10.5-3.1c2.4,0,6,2.4,6.7,4.5c0.9,2.8-2,4.4-5.2,5c-9.8,1.7-17.2,7.6-23.9,14.5l-3.8,1.7
		l-0.1-0.1L351.4,90.6z"/>
	<path class="st1" d="M347.7,92.4l3.8-1.7l-0.1-0.1l-3.8,1.7L347.7,92.4z"/>
	<path class="st1" d="M347.6,92.2l0.1,0.1L347.6,92.2z"/>
</g>
</svg>
