<?xml version="1.0" encoding="utf-8"?>
<!-- Generator: Adobe Illustrator 23.0.6, SVG Export Plug-In . SVG Version: 6.00 Build 0)  -->
<svg version="1.1" id="Layer_1" xmlns="http://www.w3.org/2000/svg" xmlns:xlink="http://www.w3.org/1999/xlink" x="0px" y="0px"
	 viewBox="0 0 770.2 304.1" style="enable-background:new 0 0 770.2 304.1;" xml:space="preserve">
<style type="text/css">
	.st0{fill:#FFFFFF;}
	.st1{fill:#0083C1;}
</style>
<title>blue-hoe</title>
<g>
	<path class="st0" d="M425.5,292.2c3.2,0.5,5.4,0.2,6.4,1.1c2.7,2.6,3.9-1.3,5.9-0.9c0.1-0.8,0.4-2.3,0.2-2.4
		c-2.4-1-4.8-2.4-7.3-2.4C429.4,287.6,427.9,290,425.5,292.2z"/>
	<path class="st1" d="M770.2,57.9c0.1,6.3-4.4,11.8-10.7,12.8l-1.5,0.2c-8,1.2-13.2-2.9-17.6-8.8c0.7-3.5-2.9-2.8-4.2-3.5
		c-3.1-1.6-6.6-2.5-10-2.6c-9-0.3-18.2-1.2-27,0.2c-8.2,1.4-16.4,3.5-24.3,6.1c-15.2,4.8-28.9,12.9-43.7,18.4
		c-8.6,3.2-16.5,8.3-24.4,13s-15.6,10.4-23.3,15.7c-6.5,4.5-13,9.2-19.4,13.8c-8.5,6-16.3,12.9-24.6,19.2
		c-5.5,4.2-10.4,9.2-15.7,13.9c-26.7,23.5-50.7,49.8-76.6,74.1c-13.7,12.8-26.6,26.5-40.7,39c-6.1,5.5-12.3,10.9-18.2,16.6
		c-1,1-2.5,1.4-3.8,2c0.1,0.2,0.2,0.4,0.3,0.6c0.2,0.2,0.4,0.4,0.7,0.5c11.2,0,22.3,0,34.1,0v11.2c4.3,0,8-0.2,11.7,0.1
		c2.4,0.2,1.2,2.3,1.5,3.7H300.3c-0.5-0.6-0.9-1.8-1.5-1.8c-10-0.7-19.9-1.3-29.9-1.9c-0.9,0-2.2,0.4-2.7-0.1
		c-3.1-2.9-6.9-1.4-10.4-1.8s-6.9-1.4-10.4-1.8c-7.2-0.8-14.3-1.3-21.5-2c-0.8-0.1-1.5-0.9-2.3-1.2c-3.7-1.2-11.6-0.8-16.1,0.7
		c8.5,1,10.3,2.6,10.8,9.9h-39.2c-0.3-3.1-2.8-1.9-4.3-1.8c-4.5,0.2-8.3-0.4-10.3-5.1c10-10.3,21-19.4,32-28.5
		c7.4-6.1,14.7-12.4,22.3-18.4c10.8-8.5,21.5-17.2,31.9-26.2c8.8-7.6,17.1-15.8,25.7-23.6c2.1-2.1,4.5-3.9,7.1-5.2
		c7.8-3.6,15.8-6.8,23.8-10.1c3.4-1.4,6.7-3.5,10.4-4c9-1.2,17.2-6.3,26.5-5.7c3-3.5,7.4-0.4,10.3-2c3.5-1.9,7-1.5,10.5-1.7
		c2-0.1,4.1-0.2,8.1-0.4c-4.1-1.6-6.1-2.8-8.4-3.3c-6.6-1.3-13.3-2.2-19.9-3.6c-7.9-1.6-16.2-1.7-24.4-2c-8.7-0.3-17.4-0.1-26.1-0.1
		c-1.9,0-4.2-0.7-5.5,0.1c-4.3,2.8-8.9,2-13.3,1.6c-5.1-0.6-9.4,1.9-14.2,2.1c-9.7,0.4-19.4,1.2-29.1,1.8c-0.3,0-0.6,0-0.9,0
		c-2.9,0.4-5.2,3-5.9,6c-0.5,2.3-1.2,4.4-2.3,6.5c-6.8,12.6-14.4,24.7-22.8,36.3c-8.6,11.9-18.3,22.8-27.4,34.2
		c-9.4,11.7-22.4,19.6-33.3,29.7c-1,0.9-2.7,1.2-3.8,2.1c-1.5,1.3-2.5,0.8-3.9-0.3c-2.1-1.6-2-3.7-1.3-5.7c0.4-1.1,1.6-1.8,2.6-2.7
		c6.1-5.6,11.9-11.3,18.1-16.7c11.9-10.4,23.1-21.7,31.9-35.1c4.3-6.6,8.1-13.5,11.9-20.3c3.4-6.1,5.1-13.4,7.7-20.1
		c0.7-1.9,0.3-4.3,0.1-6.5c-0.3-2.7-2.5-3.6-5.7-2.8c-1.4,0.5-2.9,0.8-4.3,0.7c-6.7-0.7-13,3.4-19.7,1.9c-10.4,3.5-21.6,3-32.1,5.8
		c-5.1,1.4-10.4,0.5-15,2c-3.3,1.1-6.4,1.1-9.6,1.5c-3.5,0.5-7,1.8-10.4,1.7c-9.1-0.3-17.9,3.4-27.1,2c-0.6-0.1-1.3-0.1-1.9,0.1
		c-8.3,1.9-8.2,1.5-14.5,0.4c-6.9-1.2-13.6-1.8-19.1,5c-6.3,7.8-16.2,10-25.2,13.1c-1.7,0.6-3.9-0.3-6-1c-5.3-1.9-7-6.8-10.6-10
		v-13.1c3.5-1.4,2.7-5.4,4.8-7.7c3.5-3.8,7.8-6.5,12.1-9c12.1-6.9,25.4-10.9,38.6-14.8c3.7-1.1,8.1,0.1,12.1-0.2
		c12-1.1,23.6,2.4,35.6,2c12.1-0.4,24.2-0.3,36.3,0.1c4.1,0.1,7.6-1.3,11.3-2c3.5-0.7,7.4,1.7,10.5-1.7c0.3-0.3,1.2-0.1,1.8-0.1
		c7.2-0.6,14.4-1.1,21.6-1.9c2.9-0.3,5.7-1.4,8.6-1.8c2.6-0.3,5.3,0.2,7.7-1.8c1.1-0.9,3.6-0.2,5.3-0.2c0.9-5.1,1.7-9.9,2.4-14.4
		c4-1.4,7.1-0.1,10.5-2c4.3-2.4,10.8,2.9,12.1,8.8c0.1,0.5,0.4,1.1,0.6,1.8c9.4,0.5,18.8,0.5,27.8-3.3c0.4-0.2,0.8-0.3,1.2-0.3
		c6.9-0.6,13.8-1.7,20.6-1.8c22.7-0.2,45.3,0.4,68-0.3c12-0.3,23.6,2.2,35.5,2.4c5.8,0.1,11.6,1.4,16.9,3.8c2.5,1.2,4.5,1.2,6.9,1.4
		c2,0.2,3.8,0,3.4-2.8c0-0.4,0.8-0.9,1.3-1.3c10.3-10.9,20-22.6,31.2-32.6c9.8-8.7,19.9-17.3,30.1-25.6c13.6-11.1,29-18.6,43.9-27.3
		c6.5-3.8,13.2-7.3,20.1-10.6c10.5-5,20.9-10.2,32.1-13.9c6.7-2.2,13.3-5.4,20-8c11.7-4.5,23.1-9.3,35.7-10.4
		c5.1-3.2,11.1-3.3,16.8-4.5c2.3-0.5,4.7-0.6,7-1.1c0.9-0.2,1.6-1.2,2.4-1.8h44.8c0.8,0.6,1.5,1.6,2.4,1.8c2.5,0.6,5,0.4,7.8,1.5
		c10.2,4.2,15.5,10.7,13.9,22.5c-2.3,1.8-4.7,4.2-7.6,5.9c-6.4,3.7-15.9,2.3-21.7-2.2s-10.8-11-19.6-8.9c-6.1,1.6-12.5,2.3-18.8,1.9
		c-2.8,3.4-7.2,1.5-10.7,3.5s-8.3,1.3-12,2.6c-10.6,3.6-21.6,6.1-32,10.4c-6.6,2.7-13.3,5.5-20.1,7.6c-7.4,2.2-14.7,5.2-21.5,8.8
		c-8.2,4.4-16,9.3-24.1,13.8c-14.1,7.7-26.6,17.7-38.5,28.4c-3.7,3.3-6.6,7.9-10.7,10.2c-3.5,1.8-6.5,4.4-8.8,7.6
		c-4.6,7.1-11.1,12.1-16.7,18.2c-1.7,1.8-3.9,3.3-5.2,5.3c-3.8,6.1-8.3,11.7-13.3,16.9c-1.3,1.4-3.1,2.4-3.8,4
		c-4.6,10.7-12.2,19.7-17.3,30.1c-0.6,1.2-1.1,2.3-2.3,4.9c5.2-1.8,8.9-3.5,12.7-4.3c13-2.5,24-8.5,34-17c4.4-3.7,8.4-7.9,13.2-10.9
		c7.6-4.8,14.1-10.9,21.2-16.2c5.3-4,9.7-9.4,15.2-13c9.1-5.9,16.5-13.6,25.2-20c9.1-6.7,17.7-14.1,26.7-21.1
		c13-10,26.8-18.7,41.4-26.2c7.9-4.1,15.7-8.6,24-11.7c10.2-3.9,20.7-7.1,31.1-10.4c12.8-4,26-6.7,39.4-8c12-1.3,24.4-1.9,36.5,1.5
		c1.9,0.5,3.8,1.6,5.8,1.8c9.2,0.7,17.1,4,23.6,10.5c0.4,0.4,0.8,1.2,1.3,1.9c1,1.3,2,2.3,2,3.9C770.2,56.1,770.2,57.2,770.2,57.9z
		 M740.1,46.2c0.9,1.8,2.3,3.1,2.1,4.3c-0.6,5.9,3.3,8.6,7.1,11.8c2.8,2.4,6.9-0.7,8.9,2.9c2.1-0.8,4.2-1.6,6.3-2.6
		c2.1-1.2,3-4.7,1.4-6.2c-3-2.8-6-6.3-9.7-7.6c-4.9-1.8-10.4-1.8-33.5-4c3.4,3.1,4.9,6.1,9.2,5.8c3-0.2,5.2-1,7-3.3
		c0.5-0.6,1-1,1.6-1.6 M231.3,151.1c1.7,0.1,3-0.4,4,2.3c2,5.4,2.4,4.4,8.7,3.6c4-0.6,4.2-2,4.3-5c0-0.9,1.6-1.8,1.9-2
		c5.5-0.5,3.3,7.3,8.5,6.6c4-0.5,7.9-1.7,11.9-2.5c0-2.2,0-4,0-5.9c0-0.2,0.4-0.4,1.1-1.1c1,0.6,3,1.1,3.3,2.1c1.4,5.4,4.8,4.7,9,4
		c2.9-0.5,3.5-1.3,3.4-3.9c-0.1-2.4,1.6-2.2,3.1-1.5c0.8,0.5,1.4,1.2,2,1.9c1.9,2.1,3.8,3.9,7.1,3.3c2.8-0.5,3.9-2,4.7-4.5
		c0.5-1.7,5-1.8,5.3-0.2c1.6,7.3,6.9,3.8,10.7,4.8c0.3-0.7,0.5-1.5,0.6-2.3c-0.2-2.9,1.1-5.2,3.8-5.1s4,2.4,3.7,5.3
		c-0.1,1.1-0.1,2.2,0,3.3c5.9,2,9.5-0.2,12-4.8c0.6-0.8,1.2-1.4,2-2c1.3,1.3,2.4,1.9,2.5,2.6c0.4,3,0.2,6.1,4.4,6.8
		c3.7,0.6,4.9-1.8,6.6-4.1s3.5-2.2,5,0.4c1,1.7,1.2,3.8,1.8,5.6c3.9-0.2,8.2,1.5,9.8-3.8c1.5,0.5,4.3-1.3,4.3,1.8
		c0.1,4.4,2.2,5.9,6.3,5.8c1.3,0,3.6,0.8,3.8,1.7c1.4,5.3,7.7,6.9,8.8,12.3c0.2,1,1.8,2.6,2.5,2.5c4.1-0.6,5.9,2.6,8.4,4.7
		c2.8,2.3,5.6,1.5,8.2-2.3s5-7.8,7.3-11.4l-4.8-6.5c9.3-1.5,9.3-1.5,12.2-6l-6.4-5c4.3-3.6,4.3-3.6,9,0.4c6.4-6.5,7-7.2,4.6-17
		c5,0.8,11,4.4,13.1-4.1c-1.3-1.1-2.4-2.3-3.5-3.6c-0.3-0.8-0.3-1.7,0-2.5c0.1-0.3,1-0.6,1.5-0.6c1.2,0,2.3,0.3,3.4,0.8
		c2.3,1.4,4.4,1.9,6.4-0.4s1.7-4.1,0.1-6.5c-0.8-1.2-0.4-3.3-0.6-5.8c4.3,1.9,7.3,3.9,11.2,0.2c3.8-3.5-0.7-5.4,0.2-8.5
		c1.3-0.1,2.7,0,4.1-0.3c6.9-1.1,8.5-3,8.7-9.9c0.1-1.2,0.3-2.4,0.6-3.6c1.4,0.6,2.2,0.9,3,1.2c5.2,2.1,7.3,0.8,7.6-4.6
		c0.1-1.8,0-3.5,0-6.5c2.8,1.2,4.6,2.1,6.4,2.7c0.9,0.1,1.7,0.1,2.6-0.1c0.3-2.6,0.5-4.9,0.8-7.5h6.7c0.3-2.6,0.5-4.8,0.7-7.3
		c5.2,2.4,8.1,2.6,10.7,1.1c6.8-3.9,6.9-4,8.6-12.8c3.4,3.2,6.6,2.5,10.5,0.9c4.9-2.1,1.8-7.2,4.6-10c2.3,1.6,4.3,4.1,6.2,3.9
		c2.7-0.2,5.1-2.4,7.8-3.4c2.3-0.8,1-2.5,1.5-3.8c0.8-1.9,0.6-4.5,4.7-2.3c3.8,2.1,8.5-1,12.4-2.9c4.2-2.1,3.3-6.1,3.3-10.3
		c3.8,0.7,3.8,0.7,6,3.7c0.7,0.9,1.9,2.2,2.6,2.1c2.2-0.5,4.4-1.4,6.3-2.6c1.1-1,1.8-2.3,1.8-3.8c0-4,3.2-2.9,4.5-2.4
		c6.1,2.2,6.9,2.4,11.8-0.2c0.9-0.5,2.3-1.3,2.2-1.9c-0.3-4.6,2.7-4.7,5.1-3.1c3.3,2.3,6.4,0.5,9.4,1.4c0.5-2.4,0.8-4.1,1.1-5.8
		c2.9,0.7,6.2,0.6,7.7,2.2c2.8,2.9,4-0.7,6-0.9c1.2-0.1,2.2-3.1,3.3-4.9c1.5,1.9,3.5,1.9,5.7,1.8s4.5,0.5,6.5-0.2
		c2.1-0.7,3.9-2.5,5.8-3.8c4.8,3.9,4.8,3.9,10.9,2c1.4-0.4,2.5-1.5,3.9-1.8c1.1-0.2,2.8-0.1,3.3,0.6c2.2,2.7,4.5,5.6,5.8,8.7
		c1.5,3.6,4.9,4.7,7.6,5.3c4.3,0.8,8.7,0.8,13,0.1c3-0.4,6.3-2.2,6.6-5.7c0.2-1.8-1.2-4.1-2.4-5.7s-3.3-2.5-4.9-3.6
		c-6.8-4.8-14.7-3.9-22.1-5.2c-10.3-1.9-20.5,2-30.9,1.9c-6-0.1-12.2,0.1-17.8,2c-8.2,2.8-16.7,4.5-25,7.1
		c-11.5,3.6-23,7.3-34.1,13.2c-1.8,0.2-3.7,0.1-5.3,0.7c-6.7,2.6-14,3.7-19.8,8.5c-12.3,2.9-22.1,11.1-33.8,15.2
		c-12.6,10.7-28.2,16.7-41,27.4c-8.9,7.5-18.6,14.1-27,22.2c-12.5,12-25.8,23.5-35.2,38.5c-2.3,3.6-5.7,6.3-10.9,5.2
		c-4.6-1-9.9-0.3-14-2.2c-4.3-2.1-8.6-0.3-12.3-1.8c-4.5-1.9-8.8-1.6-13.3-1.6c-12.1-0.1-24.3,0.5-36.3-0.2s-23.7,2.3-35.6,2
		c-7.5-0.2-14.9-0.2-22.4,0c-3.3-0.1-6.5,0.4-9.6,1.3c-3.6,1.2-8,1.7-12.1,2.3c-6.5,0.9-13.1,1.5-19.6,2.3c-0.3,0-0.4,1-0.3,1.5
		c-2.9,0.2-6-1.1-6.5,3.2c-0.1,0.9-1.8,2.4-2.6,2.3c-5.2-0.8-11.1,2.6-15.7-2.6c-0.8-0.9-3.4-1.4-4.1-0.8c-3.3,2.8-7,1.3-10.5,1.8
		s-6.9,1.6-10.4,1.7c-6,0.1-11.7,3.3-17.9,2c-5,4-11.2,0.4-16.6,2.7c-5.6,2.4-11.5,1-17.3,1c-26.4,0.2-52.8,0.1-79.2,0.1
		c-6.5,0-12.2,1.6-16.2,8l5.9,5.4c-0.1-6.4,2.8-10.1,9.6-10.9c1,1.5,3.3,3.5,3.6,5.8c0.4,2.6-0.9,5.5-1.5,8.1c3.9,1,6.4,0.4,7.4-3.5
		c0.2-0.6,1.1-1.1,1.7-1.6c0.7,0.8,1.4,1.5,2,2.3c0.2,0.2,0,0.6,0,0.9c0.6,2.5,1.8,4.4,4.8,4.3c2.7-0.1,4-1.8,4.5-5.5
		c0.2-1.3,0.4-2.6,0.6-3.8c5.7,0.3,4.3,4.8,5.4,7.2h8.6c0.7-3.6-1.3-8.8,5.6-9v7.5h5.1c5.8,0,5.7-0.1,8.2-6.5
		c0.4-1.1,1.7-1.8,2.8-2.9c0.9,1.1,2.7,2.4,2.6,3.4c-0.6,4.4,2,4.4,4.9,4.1c0.8-0.1,1.7-0.3,2.6-0.5c0.4-3.3-1.2-7.1,3.5-8.6l3,5.1
		h9.8c0.2-0.3,0.4-0.7,0.6-1c0.5-1.5-1.3-4,1.8-4.3c1.6-0.1,3.9-0.9,3.9,2.3c0,0.5,1.8,1.2,2.8,1.3c2.7,0.2,5.4,0.1,8.3,0.1
		c0-2.6-0.2-4.5,0.1-6.2c0.1-0.5,2-1.2,2.8-1c1,0.4,2.5,1.6,2.5,2.5c0,4.7,3.6,2.8,5.3,2.5s3-2.3,4.1-3.9c0.7-1,0.7-2.4,1.3-4.8
		c2.8,3,4.3,5.9,6.5,6.8s5.6,0.6,8.2-0.1c3.4-0.9,1.9-5.2,4.2-8c2.1,2,3.8,3.7,5.6,5.2c2.5,2.1,5,1.8,7-0.8c1.3-1.7,2.2-3.6,3.5-5.7
		c1.3,1.6,2.8,2.5,2.8,3.4c0,3.1,2.5,3.1,3.7,2.3c3.4-2.1,7.1-1,10.4-1.9c3.7-0.9,8.9-0.8,9-6.9C230,152.7,231,152,231.3,151.1z
		 M555.8,109.8c-1.2,0.3-2.6,0.3-3.4,1c-5.3,4.5-10.2,9.6-15.8,13.7c-5.3,3.7-9.2,9-14.4,12.5c-9.8,6.5-17.7,15.3-27.2,22
		c-6.8,4.9-13,10.6-19.5,15.9c-13,10.7-27.9,17.9-43.2,24.2c-4,1.6-8.4,2.1-12.6,3.4c-8.2,2.6-16.4,4.9-25.1,4.6
		c-6.3-0.2-12.5,0-18.9-1.5c-6.2-1.5-13-0.1-19.5-0.4s-13.2-1.5-19.8-1.7c-10.6-0.3-21.1-0.4-31.7,0c-7.1,0.3-14.2,1.4-21.3,2.2
		c1.2,1,2.8,1.5,4.4,1.4c10,0,19.9-0.1,29.8,0.1c3.8,0.1,7.6,0.8,11.3,2c1.5,0.5,2.3,2.8,4.3,5.4c-10.2,0-18.9-0.3-27.5,0.1
		c-8.8,0.3-17.5,1.5-26.3,1.7c-7.5,0.2-13.8,2.2-19,10c6.6-1.8,12.1,0,18-1.7c5.7-1.7,12.2-1,18.4-0.7c5.6,0.3,11.1,1.5,16.1,2.2
		v5.1c-5.9,0-11.5-0.2-17,0.1c-5.4,0.3-10.7,1.4-16,1.7c-5.6,0.3-11.3-0.7-16.7,0.3c-4.9,1-10,1.3-14.7,3.5h6.3
		c12.8,0,25.5,0.1,38.2-0.1c3.8-0.1,6.5,1.5,9.4,3c-1.1,4.1-3.5,4.5-6.5,4.6c-18.7,0.5-37.5-1.7-56.1,1.8c-1.5,0.3-3.1,0.4-4.6,0.6
		c10,1.3,19.8,1.2,29.7,1.3c4.4,0,5.1,1.1,5,7.4h-13.8c-4,0-8.5-1.1-12,0.2c-6.9,2.6-13.5,1.9-20.3,0.6c-0.7-0.2-1.4,0-1.9,0.3
		c-1.3,1.1-2.4,2.3-4.5,4.4h11.4c4.4,0,8.7-0.3,13,0.1c2.3,0.3,6.1,0.8,6.1,3.6s-3.8,2.7-6,3.7c-0.3,0.1-0.6,0.1-0.9,0
		c-5.3,0-10.6-0.3-15.9,0.1s-10.7,1.4-16,1.7c-2.6,0.2-4.4,0.8-5.7,3.8h9.5c5,0,9.9,0.1,14.9,0c3.3-0.1,5,1.5,5.6,5
		c-7.3,0.9-14.4,1.9-21.5,2.4c-5,0.4-9.9,0.4-14.9,0c-3.5-0.3-5.7,1.7-8.3,3.4c1.8,0.3,3.6,0.5,5.4,0.5c12.8,0.8,25.6-1.3,38.4,1.6
		c8.9,2,18.3,1.7,27.3,3.8c3.5,0.8,8.1-1.1,11,0.4c4,2.1,7.8,1.8,11.5,1.4c3.9-0.4,6.8,2.1,10.4,2.1c6.9,0.1,13.8,0.6,20.7,1.5
		c11.7,1.2,23.6,0.6,35.4,0.2c4.1-0.2,8.1-1.4,11.6-3.5c6.2-4,11.4-9.8,17.8-13.5c6.6-3.9,11.2-9.9,17.3-14.3
		c10.5-7.6,19.9-16.8,29.6-25.5c6.8-6.1,13.3-12.5,20.2-18.6c12.5-11.1,23.9-23.5,35.8-35.4c1.6-1.6,3.4-3.1,0.6-5.2
		c1-0.9,2-2.7,2.9-2.6c7.5,0.8,11.8-3.8,10.2-10.7c-0.4-1.5,1-3.5,1.7-5.6c1.8,1.8,2.9,2.9,4,4c5.1-2.5,8.4-5.9,6.9-12.2
		c-0.2-0.7,0.4-1.6,0.7-2.5c6.4,2.3,6.4,2.3,11.8-2.1c0.7-0.6,1.4-1.3,2.2-1.5c4.3-0.7,4.1-3.8,4-7c0-1.4,0.2-2.9,0.4-4.9
		c3.5,1.6,6.5,4.3,9-0.2c0.3-0.6,1.7-0.5,2.3-1c4.1-3.2,8.5-6.3,7-12.5c11.5-1.4,11.3,0.6,10.3-12.7c3.6,1.2,6,2,8.5,2.8
		c3.8,1.3,4.7-3.1,7.7-3.9c3.3-0.9,0.1-5,2.5-7.3h10.3v-6.9c2.6-1.5,4.6,2.8,6.5-0.6c2.7,0.6,4.3-1.2,6.5-2.5
		c2.9-1.8,0.8-4.9,2.5-6.5c2.3-2.1,4.4,1.1,7,0.6c5.9-1.1,9.3-4.2,9.7-10.3c6.7,2.8,8.6,2.9,10.5-1.2c1.7-3.6,2.7-6.4,6.8-2.6
		c0.3,0.1,0.6,0.1,0.9,0c3.3-1.8,6.9-3.2,9.8-5.4c1.3-1,1.4-3.6,2.3-6.2c4.6,3.5,9.1,2.6,13.8-0.1c1.7-1,4-0.8,6-1.3
		c2.6-0.6,5-4.7,3.4-6.3c-0.9-0.9-4.1-1.4-4.7-0.7c-2.3,2.7-5.3,0.8-7.7,1.8c-12.8,4.9-25.6,10.1-38.1,15.8
		c-13.1,6-25.7,13.1-37.7,21.3C572.3,95.7,563.8,102.5,555.8,109.8L555.8,109.8z M31.1,175.4h-5c-2.8,0-5.7-0.4-8.3,0.1
		c-5.1,1-11.6,9.5-12.2,15.1c-0.3,2.5,3,7,5.8,7.1c7.6,0.5,14.6-1.3,20.4-6.6c0.6-0.7,0.9-1.6,0.9-2.6
		C32.3,184.4,31.7,180.2,31.1,175.4z M673.4,49.7c3.5,1.2,5.8,2.9,7.1,2.4c3.2-1.5,6.3-1.6,9.5-1.8c1.4-0.3,2.7-0.9,3.8-1.8
		c0.7-0.7,1.3-1.6,1.8-2.5c-0.7-0.4-1.4-1.1-2.1-1.2C687,44.6,681.1,47,673.4,49.7L673.4,49.7z M702,47.7c7.3,2.2,12.3-1.2,18.7-1.8
		c-3.6-2.2-7,0.1-9.5-2.9c-0.7-0.9-4-0.1-5.9,0.6C704.2,44.1,703.6,45.7,702,47.7L702,47.7z"/>
	<path class="st1" d="M440.2,304.1c0-2.7-0.5-5.6,2.5-7.1s5.5,1.2,8,2.1c0.7,0.3,0.5,3.3,0.7,5L440.2,304.1z"/>
	<path class="st1" d="M220.1,304.1c0.4-2-3.9-2.7-1.3-5.3c2.1-2.1,3.9-3,6.9-1.3c4.1,2.3,4.3,2,1.8,6.6H220.1z"/>
	<path class="st1" d="M425.5,292.2c2.4-2.3,3.8-4.6,5.3-4.6c2.4,0,4.9,1.4,7.3,2.4c0.3,0.1-0.1,1.6-0.2,2.4c-2-0.4-3.3,3.5-5.9,0.9
		C430.9,292.4,428.7,292.7,425.5,292.2z"/>
	<path class="st1" d="M291.9,283.6c-7,0-12.9,0.1-18.7,0c-1.2-0.1-2.2-0.6-3.2-1.3c-1.2-0.9-4.5-0.1-3.2-3c0.9-1.5,2.4-2.6,4.1-3
		c6.1-1.2,11.6,2.2,17.7,2.4C289.5,278.7,290.4,281.2,291.9,283.6z"/>
	<path class="st1" d="M281.9,263.1c4,0,7.4-0.2,10.8,0.1c3.1,0.4,6.3,1,9.3,1.8c0.7,0.2,1.8,0.7,1.9,1.3c0.1,0.9-0.2,1.7-0.8,2.3
		c-0.8,0.8-1.9,1.9-2.8,1.9c-5-0.3-10,1.2-14.9-1.6C282.3,267.1,281.9,267.6,281.9,263.1z"/>
	<path class="st1" d="M313,251.9c4,0,7-0.1,10,0.1c1.4,0.2,2.8,0.6,3.9,1.4c1.9,1.3,2.1,3,0.1,4.3c-1.4,1-3.1,1.5-4.8,1.5
		c-2.8-0.3-5.6-1-8.2-2.2C313.3,256.7,313.4,254.3,313,251.9z"/>
	<path class="st1" d="M333.4,242.2c5.1-6.3,11.3-1.7,17.3-4.1c0,2.5,0.5,4.4-0.2,5.3s-2.6,0.9-4,1c-2.4,0.2-4.9,0.2-7.3,0
		C337.2,244.1,335.4,243,333.4,242.2z"/>
	<path class="st1" d="M238.3,274.7c5.7-0.7,10.9-1.2,15.6,2.5c-0.9,3.3-2.6,5.1-5.9,4.6C243.9,281.1,239.9,280.1,238.3,274.7z"/>
	<path class="st1" d="M309.2,238.5c5.2,1.3,10.7-2.2,13.7,4.1c-3.7,5.6-8.3,1.6-12.4,1.6C310.1,244.2,309.9,241.2,309.2,238.5z"/>
	<path class="st1" d="M363.5,226.1c0.1,1.2,0.2,2.1,0.2,3c-0.1,0.7-0.2,1.3-0.4,2h-12.5v-5H363.5z"/>
	<path class="st1" d="M296.3,257.5c-2.8,0-5.1,0.5-7-0.2c-1.6-0.6-2.7-2.5-4-3.9c1.2-1.1,2.3-2.9,3.7-3.3
		C294.1,248.8,295.9,250.6,296.3,257.5z"/>
	<path class="st1" d="M268.3,268.7c-3,0-6.1,0.2-9.1-0.1c-1-0.1-2.1-1.1-2.9-1.9c-1.3-1.3-1.3-2.4,0.4-3.6c2.7-1.9,5.2-0.1,7.8,0.1
		S268.9,265,268.3,268.7z"/>
	<path class="st1" d="M340,210.8c4.3,1.1,9.9-2.6,13,4.7c-3.6,1.8-7.3,1-10.6,0.8c-1.2-0.1-2.3-2.3-3.4-3.6L340,210.8z"/>
	<path class="st1" d="M326.6,231.4v-5.6c3.3-0.1,6.6-0.1,9.9,0.1c1,0.1,2.2,1.8,2.5,3c0.1,0.6-1.5,2.2-2.5,2.3
		C333.2,231.6,329.9,231.4,326.6,231.4z"/>
	<path class="st1" d="M373,215.7c-4,2.3-7.5,4.2-11.3,0.8c-0.7-0.8-1.2-1.6-1.7-2.5c0.7-0.4,1.4-1.3,2-1.2
		C365.6,213.3,370,210.9,373,215.7z"/>
</g>
</svg>
