<svg id="Layer_1" data-name="Layer 1" xmlns="http://www.w3.org/2000/svg" viewBox="0 0 770.22 304.14">
  <defs>
    <style>
      .cls-1 {
        fill: #fff;
      }

      .cls-2 {
        fill: #0083c1;
      }
    </style>
  </defs>
  <title>blue-hoe</title>
  <g>
    <path class="cls-1" d="M434.66,446.13c3.18.49,5.42.17,6.42,1.13,2.68,2.59,3.9-1.31,5.93-.88.07-.84.42-2.32.17-2.43-2.37-1-4.83-2.43-7.27-2.44C438.5,441.51,437.09,443.88,434.66,446.13Z" transform="translate(-9.15 -153.93)"/>
    <path class="cls-2" d="M779.35,211.85a12.64,12.64,0,0,1-10.71,12.76l-1.48.23c-7.95,1.24-13.17-2.94-17.57-8.78.68-3.51-2.93-2.78-4.24-3.49A23.85,23.85,0,0,0,735.3,210c-9-.33-18.19-1.21-27,.21A170.77,170.77,0,0,0,684,216.3c-15.18,4.83-28.86,12.86-43.68,18.37-8.57,3.19-16.51,8.25-24.38,13s-15.61,10.4-23.31,15.75c-6.53,4.53-13,9.22-19.44,13.81-8.51,6-16.35,12.89-24.6,19.24-5.49,4.23-10.44,9.24-15.67,13.85-26.68,23.52-50.72,49.81-76.65,74.1-13.71,12.84-26.62,26.51-40.66,39-6.15,5.45-12.28,10.91-18.22,16.6-1,.95-2.52,1.36-3.79,2a2.14,2.14,0,0,0,.29.63,1.31,1.31,0,0,0,.73.45c11.16,0,22.32,0,34.13,0v11.2c4.32,0,8-.18,11.67.06,2.39.16,1.2,2.34,1.48,3.67H309.43c-.49-.62-.94-1.75-1.47-1.79-9.95-.73-19.91-1.33-29.87-1.94-.92,0-2.22.4-2.72-.07-3.15-2.9-6.94-1.35-10.43-1.83s-6.9-1.42-10.38-1.79c-7.16-.77-14.34-1.26-21.5-2-.79-.07-1.48-.92-2.29-1.17-3.72-1.17-11.61-.81-16.09.66,8.51,1,10.32,2.63,10.82,9.89H186.33c-.33-3.13-2.8-1.85-4.27-1.78-4.47.21-8.32-.44-10.33-5.06,10-10.34,21-19.4,32-28.52,7.4-6.14,14.66-12.44,22.25-18.39Q242.24,391.54,257.9,378c8.79-7.62,17.07-15.81,25.68-23.64a29.1,29.1,0,0,1,7.14-5.22c7.83-3.58,15.83-6.84,23.77-10.12,3.36-1.38,6.7-3.55,10.44-4,9-1.16,17.16-6.3,26.54-5.71,3-3.46,7.37-.36,10.34-2,3.53-1.92,7-1.51,10.52-1.68,2-.09,4.08-.2,8.12-.41-4.07-1.62-6.14-2.83-8.35-3.25-6.63-1.28-13.3-2.21-19.93-3.57-7.93-1.61-16.2-1.73-24.35-2-8.69-.31-17.39-.07-26.09-.07-1.87,0-4.2-.72-5.51.13-4.28,2.79-8.94,2-13.27,1.56-5.06-.57-9.35,1.92-14.16,2.11-9.69.39-19.37,1.18-29.06,1.8-.31,0-.62,0-.93,0-2.91.44-5.16,2.95-5.89,6a25.9,25.9,0,0,1-2.29,6.5,348.32,348.32,0,0,1-22.77,36.34c-8.57,11.91-18.28,22.8-27.4,34.2-9.35,11.7-22.39,19.59-33.29,29.74-1,.94-2.68,1.17-3.77,2.06-1.54,1.26-2.53.83-3.91-.28-2.09-1.65-2-3.7-1.25-5.72.41-1.06,1.64-1.82,2.56-2.66,6.06-5.56,11.93-11.3,18.12-16.74,11.88-10.42,23.09-21.7,31.92-35.08,4.34-6.57,8.13-13.52,11.92-20.31,3.38-6.07,5.12-13.35,7.66-20.08.72-1.9.34-4.31.12-6.46-.27-2.74-2.46-3.64-5.71-2.75a12.45,12.45,0,0,1-4.33.74c-6.73-.67-13,3.37-19.74,1.92-10.43,3.55-21.61,3-32.12,5.79-5.09,1.35-10.38.53-15,2-3.3,1.08-6.39,1.07-9.59,1.53-3.49.5-7,1.83-10.41,1.72-9.12-.28-17.91,3.38-27.07,2a5,5,0,0,0-1.93.06c-8.28,1.94-8.19,1.46-14.52.39-6.88-1.17-13.64-1.8-19.1,5-6.31,7.84-16.19,10-25.25,13.07-1.72.59-3.89-.29-6-1-5.27-1.88-7-6.83-10.62-10V336.79c3.47-1.39,2.69-5.41,4.83-7.74,3.49-3.81,7.76-6.51,12.13-9,12.07-6.93,25.36-10.85,38.56-14.79,3.71-1.11,8.06.15,12.06-.23,12-1.15,23.63,2.37,35.56,2q18.15-.54,36.32.06c4.07.13,7.58-1.28,11.34-2,3.47-.68,7.42,1.66,10.48-1.73.29-.32,1.18-.08,1.79-.13,7.19-.62,14.4-1.14,21.57-1.92,2.89-.31,5.68-1.38,8.56-1.75,2.64-.34,5.25.22,7.72-1.77,1.12-.9,3.55-.16,5.33-.16.86-5.06,1.68-9.94,2.43-14.37,4-1.4,7.12-.1,10.49-2,4.29-2.43,10.76,2.88,12.11,8.81.13.55.38,1.08.64,1.83,9.39.45,18.79.51,27.75-3.27a4.73,4.73,0,0,1,1.23-.31c6.88-.63,13.76-1.72,20.65-1.79,22.66-.22,45.34.37,68-.27,12-.34,23.64,2.19,35.55,2.39a42.17,42.17,0,0,1,16.89,3.83c2.45,1.17,4.55,1.19,6.88,1.42,2,.21,3.77.05,3.4-2.81-.05-.37.82-.86,1.25-1.31,10.32-10.94,20-22.64,31.16-32.6,9.81-8.74,19.9-17.29,30.13-25.61,13.62-11.06,29.05-18.63,43.92-27.31q9.79-5.72,20.06-10.56c10.55-5,20.91-10.23,32.12-13.87,6.74-2.19,13.25-5.42,20-8,11.66-4.5,23.13-9.32,35.74-10.39,5.12-3.21,11.1-3.28,16.75-4.53,2.31-.5,4.71-.58,7-1.13.9-.21,1.62-1.18,2.43-1.8h44.76c.8.62,1.53,1.59,2.43,1.8,2.55.61,5,.37,7.77,1.5,10.18,4.18,15.49,10.73,13.86,22.48-2.32,1.83-4.72,4.22-7.56,5.87-6.37,3.71-15.92,2.31-21.71-2.24s-10.78-11-19.59-8.89a59.57,59.57,0,0,1-18.8,1.87c-2.77,3.38-7.22,1.48-10.7,3.5s-8.32,1.29-12,2.55c-10.59,3.65-21.56,6.06-32,10.4-6.56,2.73-13.31,5.46-20.14,7.57a122,122,0,0,0-21.53,8.81c-8.16,4.36-16,9.33-24.12,13.79-14.12,7.74-26.57,17.74-38.55,28.36-3.72,3.29-6.56,7.9-10.73,10.24a24.5,24.5,0,0,0-8.78,7.64c-4.57,7.08-11.15,12.12-16.66,18.21-1.67,1.84-3.92,3.27-5.19,5.33a105,105,0,0,1-13.25,16.87c-1.27,1.35-3.1,2.43-3.79,4-4.64,10.7-12.21,19.7-17.28,30.13-.57,1.16-1.09,2.34-2.26,4.87,5.21-1.79,8.86-3.53,12.69-4.28,12.95-2.53,24-8.55,34-17,4.35-3.71,8.41-7.92,13.21-10.92,7.6-4.75,14.09-10.86,21.2-16.19,5.32-4,9.67-9.35,15.19-13,9.06-5.9,16.55-13.65,25.19-20,9.11-6.72,17.72-14.13,26.66-21.11a271,271,0,0,1,41.38-26.2c7.9-4.13,15.74-8.55,24-11.71,10.21-3.89,20.72-7.07,31.14-10.4a197.91,197.91,0,0,1,39.39-8c12-1.28,24.44-1.88,36.46,1.49,1.94.54,3.8,1.63,5.76,1.79,9.16.73,17.08,4,23.64,10.54.37.36.82,1.16,1.34,1.85,1,1.28,2,2.31,2,3.9C779.39,210.07,779.32,211.16,779.35,211.85Zm-30.14-11.72c.92,1.77,2.25,3.1,2.13,4.28-.58,5.86,3.3,8.55,7.11,11.8,2.8,2.4,6.92-.74,8.93,2.95a60,60,0,0,0,6.29-2.63c2.12-1.17,3-4.69,1.39-6.2-3-2.83-6-6.3-9.72-7.63-4.89-1.78-10.43-1.76-33.51-4,3.37,3.07,4.9,6.11,9.17,5.77,3-.23,5.19-1,7-3.25.47-.57,1-1,1.57-1.58M240.42,305.07c1.68.12,3-.4,4,2.33,2,5.44,2.38,4.44,8.68,3.56,4-.57,4.19-2,4.34-5,0-.92,1.63-1.76,1.85-2,5.47-.54,3.27,7.33,8.54,6.64,4-.53,7.93-1.66,11.87-2.52,0-2.18,0-4,0-5.89,0-.22.41-.44,1.07-1.1,1.05.63,3,1.12,3.27,2.06,1.39,5.44,4.76,4.67,9,4,2.9-.48,3.54-1.27,3.4-3.9-.12-2.36,1.59-2.21,3.08-1.48a8.11,8.11,0,0,1,2,1.93c1.9,2.07,3.78,3.85,7.06,3.32,2.83-.45,3.89-1.95,4.72-4.52.54-1.67,5-1.76,5.32-.19,1.57,7.32,6.92,3.76,10.73,4.77a10.2,10.2,0,0,0,.58-2.3c-.18-2.85,1.08-5.21,3.83-5.12s4,2.35,3.68,5.28a26.07,26.07,0,0,0,0,3.29c5.91,2,9.45-.22,12-4.84a10.62,10.62,0,0,1,2-2c1.27,1.27,2.41,1.87,2.5,2.6.4,3,.19,6.09,4.43,6.79,3.69.61,4.89-1.76,6.6-4.15s3.5-2.17,5,.37c1,1.66,1.22,3.76,1.78,5.6,3.88-.22,8.19,1.47,9.79-3.75,1.5.48,4.25-1.27,4.3,1.76.08,4.4,2.16,5.87,6.28,5.8,1.3,0,3.56.82,3.78,1.68,1.38,5.27,7.67,6.86,8.82,12.25.22,1,1.78,2.62,2.53,2.51,4.14-.56,5.86,2.64,8.39,4.72,2.79,2.3,5.59,1.5,8.17-2.3s5-7.79,7.3-11.39l-4.81-6.48c9.31-1.51,9.31-1.51,12.2-6l-6.42-5c4.31-3.63,4.31-3.63,9,.39,6.42-6.54,7-7.18,4.59-17,4.95.82,11,4.41,13.11-4.1a35,35,0,0,1-3.5-3.63,3.21,3.21,0,0,1,.05-2.45c.11-.33,1-.61,1.55-.56a8.06,8.06,0,0,1,3.39.75c2.33,1.42,4.41,1.85,6.4-.44s1.71-4.07.06-6.45c-.83-1.19-.41-3.25-.64-5.8,4.33,1.9,7.25,3.89,11.23.18,3.77-3.51-.71-5.38.16-8.55,1.25-.08,2.72-.05,4.14-.28,6.85-1.11,8.47-3,8.74-9.85a34.62,34.62,0,0,1,.57-3.65c1.38.57,2.17.91,3,1.22,5.19,2.07,7.27.83,7.6-4.58.11-1.76,0-3.53,0-6.52,2.84,1.23,4.6,2.1,6.44,2.72a7.49,7.49,0,0,0,2.59-.14c.26-2.56.5-4.89.76-7.5H518c.26-2.59.49-4.84.74-7.29,5.25,2.38,8.12,2.62,10.7,1.13,6.78-3.9,6.86-4,8.6-12.84,3.39,3.17,6.57,2.54,10.53.89,4.94-2.06,1.8-7.2,4.63-10,2.33,1.59,4.33,4.05,6.16,3.93,2.66-.17,5.13-2.43,7.82-3.39,2.27-.8,1-2.54,1.52-3.76.84-1.95.62-4.52,4.73-2.28,3.81,2.08,8.48-1,12.42-2.9,4.24-2.07,3.29-6.15,3.29-10.32,3.84.69,3.79.73,6,3.69.67.89,1.9,2.24,2.57,2.09a19.09,19.09,0,0,0,6.32-2.61,5.16,5.16,0,0,0,1.79-3.8c0-4,3.16-2.93,4.55-2.43,6.11,2.21,6.88,2.43,11.85-.16.88-.46,2.28-1.32,2.23-1.91-.33-4.63,2.74-4.73,5.1-3.08,3.33,2.34,6.4.48,9.43,1.43.45-2.39.77-4.09,1.09-5.82,2.86.74,6.18.61,7.73,2.21,2.82,2.89,4-.72,6-.89,1.24-.12,2.22-3.14,3.32-4.86,1.49,1.9,3.55,1.88,5.7,1.77s4.51.49,6.47-.16c2.13-.7,3.89-2.49,5.75-3.76,4.82,3.86,4.83,3.9,10.92,2,1.36-.42,2.55-1.48,3.92-1.75,1.07-.21,2.8-.06,3.35.64,2.18,2.74,4.48,5.55,5.85,8.72,1.55,3.6,4.86,4.66,7.62,5.25a38.92,38.92,0,0,0,13,.09c3-.4,6.26-2.17,6.6-5.68.18-1.84-1.16-4.11-2.41-5.73s-3.3-2.47-4.9-3.6c-6.8-4.77-14.7-3.91-22.09-5.24-10.33-1.87-20.5,2-30.88,1.86-5.95-.08-12.24.12-17.78,2-8.24,2.75-16.71,4.54-25,7.11-11.55,3.58-23,7.32-34.07,13.18-1.77.21-3.68.08-5.3.71-6.68,2.61-14,3.72-19.77,8.51-12.26,2.85-22.09,11.1-33.8,15.16-12.6,10.66-28.23,16.68-41,27.42-8.86,7.49-18.61,14.15-27,22.17-12.52,12-25.79,23.46-35.18,38.46-2.27,3.63-5.7,6.31-10.87,5.19-4.63-1-9.92-.26-14-2.23-4.3-2.09-8.65-.25-12.33-1.78-4.47-1.86-8.83-1.62-13.3-1.64-12.11-.06-24.26.49-36.34-.17s-23.67,2.31-35.58,2c-7.45-.16-14.92-.19-22.37.05a30.72,30.72,0,0,0-9.64,1.32c-3.59,1.24-8,1.74-12.12,2.29-6.52.88-13.07,1.45-19.6,2.25-.28,0-.45,1-.28,1.51-2.87.16-6-1.11-6.48,3.18-.11.9-1.83,2.43-2.59,2.31-5.21-.82-11.14,2.64-15.71-2.64-.75-.88-3.4-1.42-4.08-.84-3.28,2.79-7,1.27-10.52,1.77s-6.93,1.65-10.41,1.74c-6,.15-11.7,3.32-17.86,2-5,4-11.24.35-16.59,2.66-5.57,2.41-11.51.95-17.26,1-26.4.18-52.79.1-79.19.07-6.55,0-12.18,1.65-16.18,8l5.88,5.36c-.09-6.37,2.8-10.08,9.58-10.92,1,1.45,3.25,3.48,3.61,5.82.41,2.59-.95,5.45-1.53,8.14,3.9,1,6.45.39,7.41-3.51.16-.65,1.09-1.1,1.66-1.64.67.75,1.37,1.48,2,2.27.15.2,0,.62,0,.92.61,2.53,1.8,4.41,4.82,4.28,2.7-.12,4-1.76,4.51-5.53.16-1.32.44-2.62.64-3.84,5.69.25,4.32,4.78,5.45,7.22h8.62c.7-3.65-1.34-8.78,5.62-9v7.45h5.13c5.77-.05,5.71-.07,8.2-6.54.41-1.06,1.69-1.78,2.75-2.85.93,1.14,2.73,2.39,2.59,3.36-.64,4.43,2,4.41,4.95,4.15.85-.07,1.69-.31,2.57-.47.44-3.25-1.21-7.1,3.51-8.64l3,5.13h9.83a8.85,8.85,0,0,0,.55-1c.48-1.49-1.26-4,1.83-4.27,1.64-.12,3.9-.87,3.9,2.32,0,.46,1.78,1.24,2.78,1.3,2.69.19,5.41.07,8.28.07,0-2.57-.23-4.45.13-6.22.11-.53,2-1.23,2.8-.95,1,.4,2.54,1.65,2.54,2.52,0,4.74,3.65,2.83,5.31,2.55s3-2.34,4.07-3.88c.69-.95.7-2.38,1.33-4.78,2.79,3,4.28,5.86,6.54,6.8s5.57.59,8.19-.07c3.43-.85,1.88-5.24,4.18-8,2.14,2,3.82,3.66,5.63,5.19,2.49,2.09,5,1.83,7-.79,1.26-1.69,2.23-3.6,3.5-5.7,1.32,1.56,2.77,2.5,2.76,3.42,0,3.15,2.51,3.09,3.71,2.34,3.37-2.12,7.07-1,10.45-1.89,3.71-.93,8.87-.83,9-6.92C239.18,306.62,240.14,305.94,240.42,305.07Zm324.52-41.3c-1.19.31-2.6.28-3.41,1-5.33,4.52-10.19,9.65-15.85,13.67-5.28,3.74-9.19,9.05-14.42,12.49-9.82,6.48-17.66,15.25-27.18,22-6.82,4.86-13,10.58-19.5,15.89-13,10.66-27.85,17.87-43.19,24.19-4,1.64-8.44,2.11-12.58,3.41-8.2,2.58-16.42,4.92-25.12,4.62-6.31-.22-12.51,0-18.89-1.53-6.18-1.48-13-.08-19.5-.39s-13.16-1.53-19.75-1.72c-10.56-.3-21.15-.36-31.7,0-7.11.25-14.18,1.42-21.27,2.18a6.18,6.18,0,0,0,4.36,1.44c9.95,0,19.9-.15,29.84.1a41.73,41.73,0,0,1,11.3,1.95c1.45.46,2.31,2.81,4.3,5.43-10.21,0-18.85-.25-27.47.06-8.77.32-17.51,1.47-26.27,1.71-7.52.21-13.81,2.23-19,10.05,6.65-1.84,12.11,0,18-1.72,5.71-1.68,12.23-1,18.36-.67,5.56.29,11.06,1.49,16.14,2.22v5.14c-5.92,0-11.5-.24-17.05.07-5.35.3-10.66,1.43-16,1.73-5.58.31-11.34-.74-16.73.31-4.9.95-10,1.31-14.73,3.49h6.3c12.75,0,25.49.14,38.23-.09,3.81-.07,6.52,1.52,9.39,3-1.07,4.08-3.48,4.52-6.47,4.61-18.7.55-37.5-1.66-56.11,1.81-1.52.28-3.07.4-4.6.6,10,1.27,19.82,1.21,29.69,1.3,4.42,0,5.1,1.13,5,7.44H265.25c-4,0-8.49-1.09-12,.23-6.92,2.56-13.52,1.89-20.34.64a2.65,2.65,0,0,0-1.94.3c-1.28,1.06-2.39,2.32-4.5,4.42h11.41c4.35,0,8.74-.33,13,.14,2.34.25,6.06.81,6.07,3.59s-3.8,2.73-6,3.72a2.4,2.4,0,0,1-.93,0c-5.28,0-10.58-.25-15.85.06s-10.67,1.39-16,1.71c-2.61.16-4.38.8-5.69,3.82H222c5,0,9.94.07,14.92,0,3.3-.06,5,1.52,5.58,5-7.29.85-14.37,1.88-21.48,2.43a94,94,0,0,1-14.91,0c-3.51-.29-5.69,1.72-8.33,3.35a27.53,27.53,0,0,0,5.43.51c12.79.83,25.6-1.3,38.45,1.61,8.9,2,18.3,1.71,27.34,3.83,3.54.83,8.06-1.09,11,.44,4,2.06,7.78,1.75,11.49,1.37,3.9-.4,6.82,2.1,10.44,2.09a194.29,194.29,0,0,1,20.71,1.5c11.68,1.23,23.6.61,35.39.18A23.78,23.78,0,0,0,369.6,447c6.24-4,11.42-9.77,17.8-13.49,6.63-3.86,11.17-9.89,17.27-14.31,10.51-7.62,19.93-16.77,29.6-25.5,6.8-6.14,13.34-12.54,20.18-18.64,12.52-11.15,23.92-23.55,35.8-35.41,1.61-1.6,3.37-3.09.62-5.17,1-.9,2-2.66,2.88-2.57,7.46.83,11.81-3.78,10.18-10.66-.36-1.52,1-3.45,1.66-5.63,1.81,1.8,2.9,2.9,4,4,5.06-2.51,8.43-5.93,6.91-12.22-.18-.72.41-1.63.65-2.47,6.39,2.3,6.38,2.3,11.77-2.12.68-.56,1.38-1.34,2.17-1.47,4.26-.74,4.08-3.84,4-7,0-1.43.21-2.86.38-4.92,3.48,1.62,6.54,4.34,9-.2.31-.58,1.66-.5,2.31-1,4.08-3.21,8.48-6.27,7-12.49,11.53-1.37,11.35.65,10.29-12.68,3.56,1.17,6,2,8.49,2.81,3.81,1.28,4.7-3.15,7.71-3.93,3.34-.86.11-5,2.48-7.33H593v-6.85c2.56-1.48,4.64,2.83,6.48-.56,2.72.58,4.33-1.16,6.45-2.48,2.91-1.8.78-4.88,2.55-6.49,2.3-2.09,4.38,1.08,7,.57,5.89-1.15,9.27-4.21,9.68-10.29,6.71,2.8,8.59,2.86,10.49-1.16,1.7-3.61,2.71-6.36,6.79-2.56a1,1,0,0,0,.9,0c3.31-1.75,6.86-3.2,9.78-5.45,1.33-1,1.43-3.65,2.3-6.17,4.62,3.51,9.12,2.61,13.75-.14,1.65-1,4-.82,6-1.31,2.59-.63,5-4.71,3.43-6.3-.92-.95-4.09-1.37-4.69-.68-2.3,2.66-5.25.81-7.74,1.76-12.85,4.91-25.59,10.07-38.11,15.78a253.63,253.63,0,0,0-37.68,21.26A230.33,230.33,0,0,0,564.94,263.77ZM40.3,329.32h-5c-2.79,0-5.66-.44-8.34.1-5.06,1-11.6,9.5-12.18,15.11-.26,2.53,3,7,5.76,7.12,7.64.49,14.65-1.3,20.42-6.62a3.53,3.53,0,0,0,.87-2.58C41.42,338.29,40.87,334.14,40.3,329.32Zm642.24-125.7c3.47,1.23,5.84,2.95,7.13,2.35,3.15-1.47,6.27-1.55,9.54-1.75a8.1,8.1,0,0,0,3.83-1.83,9.53,9.53,0,0,0,1.78-2.47c-.7-.4-1.4-1.13-2.12-1.16C696.15,198.55,690.25,200.92,682.54,203.62Zm28.58-2c7.34,2.16,12.29-1.24,18.74-1.77-3.59-2.17-7,.11-9.45-2.86-.73-.88-4-.1-5.89.57C713.39,198,712.71,199.65,711.12,201.64Z" transform="translate(-9.15 -153.93)"/>
    <path class="cls-1" d="M225.5,458.07c-.5-7.26-2.31-8.91-10.82-9.89,4.48-1.47,12.37-1.83,16.09-.66.81.25,1.5,1.1,2.29,1.17,7.16.7,14.34,1.19,21.5,2,3.48.37,6.9,1.31,10.38,1.79s7.28-1.07,10.43,1.83c.5.47,1.8,0,2.72.07,10,.61,19.92,1.21,29.87,1.94.53,0,1,1.17,1.47,1.79H236.69c2.48-4.67,2.3-4.34-1.8-6.64-3.07-1.72-4.83-.77-6.93,1.32-2.65,2.64,1.71,3.35,1.27,5.32Z" transform="translate(-9.15 -153.93)"/>
    <path class="cls-2" d="M449.31,458.07c0-2.7-.48-5.63,2.53-7.15s5.45,1.18,8,2.13c.74.28.47,3.27.66,5Z" transform="translate(-9.15 -153.93)"/>
    <path class="cls-2" d="M229.23,458.07c.44-2-3.92-2.68-1.27-5.32,2.1-2.09,3.86-3,6.93-1.32,4.1,2.3,4.28,2,1.8,6.64Z" transform="translate(-9.15 -153.93)"/>
    <path class="cls-2" d="M434.66,446.13c2.43-2.25,3.84-4.62,5.25-4.62,2.44,0,4.9,1.42,7.27,2.44.25.11-.1,1.59-.17,2.43-2-.43-3.25,3.47-5.93.88C440.08,446.3,437.84,446.62,434.66,446.13Z" transform="translate(-9.15 -153.93)"/>
    <path class="cls-2" d="M301.08,437.54c-7.05,0-12.87.07-18.69-.05a6.38,6.38,0,0,1-3.16-1.3c-1.24-.86-4.47-.13-3.23-3a6.23,6.23,0,0,1,4.08-3c6.06-1.21,11.65,2.16,17.66,2.38C298.67,432.61,299.52,435.13,301.08,437.54Z" transform="translate(-9.15 -153.93)"/>
    <path class="cls-2" d="M291,417c4,0,7.41-.24,10.75.07a71.52,71.52,0,0,1,9.33,1.83c.74.17,1.8.7,1.94,1.26a3,3,0,0,1-.81,2.33c-.77.82-1.9,1.93-2.82,1.87-5-.32-10,1.22-14.93-1.63C291.42,421,291.07,421.57,291,417Z" transform="translate(-9.15 -153.93)"/>
    <path class="cls-2" d="M322.11,405.82c4,0,7-.14,10,.07a8.72,8.72,0,0,1,3.94,1.44c1.91,1.25,2.13,3.05.11,4.31a8.34,8.34,0,0,1-4.77,1.53,26.42,26.42,0,0,1-8.18-2.22C322.43,410.6,322.57,408.26,322.11,405.82Z" transform="translate(-9.15 -153.93)"/>
    <path class="cls-2" d="M342.54,396.14c5.12-6.32,11.34-1.68,17.25-4.14,0,2.53.54,4.41-.16,5.31s-2.64.92-4.05,1a35.2,35.2,0,0,1-7.33-.05C346.36,398,344.58,396.93,342.54,396.14Z" transform="translate(-9.15 -153.93)"/>
    <path class="cls-2" d="M247.41,428.62c5.73-.68,10.88-1.21,15.62,2.45-.91,3.27-2.56,5.09-5.9,4.6C253,435.06,249.06,434,247.41,428.62Z" transform="translate(-9.15 -153.93)"/>
    <path class="cls-2" d="M318.36,392.45c5.19,1.26,10.73-2.24,13.67,4.12-3.69,5.65-8.29,1.65-12.35,1.56C319.28,398.13,319,395.11,318.36,392.45Z" transform="translate(-9.15 -153.93)"/>
    <path class="cls-2" d="M372.65,380c.08,1.2.19,2.09.17,3a12.43,12.43,0,0,1-.37,2H360v-5Z" transform="translate(-9.15 -153.93)"/>
    <path class="cls-2" d="M305.49,411.42c-2.81,0-5.12.53-7-.16-1.59-.58-2.68-2.55-4-3.91,1.23-1.13,2.3-2.9,3.74-3.28C303.24,402.77,305,404.58,305.49,411.42Z" transform="translate(-9.15 -153.93)"/>
    <path class="cls-2" d="M277.48,422.62c-3,0-6.06.16-9.07-.09-1-.09-2.06-1.11-2.89-1.91-1.33-1.27-1.29-2.44.36-3.63,2.68-1.93,5.24-.14,7.79.12S278.05,418.9,277.48,422.62Z" transform="translate(-9.15 -153.93)"/>
    <path class="cls-2" d="M349.11,364.68c4.27,1.09,9.88-2.57,13.05,4.68-3.64,1.8-7.26,1-10.61.82-1.21-.07-2.29-2.32-3.42-3.58Z" transform="translate(-9.15 -153.93)"/>
    <path class="cls-2" d="M335.7,385.3v-5.6a85.65,85.65,0,0,1,9.9.14c1,.12,2.19,1.83,2.51,3,.15.56-1.52,2.24-2.46,2.33C342.39,385.48,339.09,385.3,335.7,385.3Z" transform="translate(-9.15 -153.93)"/>
    <path class="cls-2" d="M382.17,369.6c-3.95,2.31-7.54,4.21-11.33.75a13.71,13.71,0,0,1-1.73-2.46c.68-.42,1.41-1.26,2-1.18C374.78,367.22,379.14,364.84,382.17,369.6Z" transform="translate(-9.15 -153.93)"/>
  </g>
</svg>
