<?xml version="1.0" encoding="utf-8"?>
<!-- Generator: Adobe Illustrator 23.0.6, SVG Export Plug-In . SVG Version: 6.00 Build 0)  -->
<svg version="1.1" id="Layer_1" xmlns="http://www.w3.org/2000/svg" xmlns:xlink="http://www.w3.org/1999/xlink" x="0px" y="0px"
	 viewBox="0 0 529 596.2" style="enable-background:new 0 0 529 596.2;" xml:space="preserve">
<style type="text/css">
	.st0{fill:#FFFFFF;}
	.st1{fill:#00944C;}
</style>
<g>
	<path class="st0" d="M319.1,498.7c1.8-4.3,3.2-6.8,3.8-9.5c0.2-0.9-2.1-2.2-3.3-3.3c-1.7,2.5-3.3,5.1-4.7,7.8
		C314.7,494.3,316.7,495.9,319.1,498.7L319.1,498.7z M186.4,530.7c2-3.3,3.9-5.2,4-7.1c0.1-1.5-2.1-3.1-3.2-4.6
		c-1.5,1.8-3.6,3.4-4.3,5.5C182.6,525.7,184.6,527.6,186.4,530.7L186.4,530.7z M213.6,520.2c-3-1.4-5.3-3.1-5.9-2.7
		c-2,1.5-3.4,3.8-5,5.8c1.2,1,2.9,3,3.5,2.8C208.1,525.3,209.6,523.5,213.6,520.2z M339.1,474.7l-5-4c-1,1.7-2.8,3.3-2.7,5
		c0,1.3,2.2,2.6,3.5,3.8L339.1,474.7z M171.2,527.9l1.5-2.7c-1.6-0.7-3.5-2.2-4.9-1.8c-1.7,0.4-3.3,2.3-4.3,3.9
		c-0.3,0.4,1.9,3.4,2.8,3.3C168,530.3,169.6,528.8,171.2,527.9z M232.4,512.6c-1.2,2.3-2.2,4.6-3,7c-0.1,0.3,2.8,1.9,2.9,1.8
		c1.5-1.6,2.7-3.4,3.6-5.4C236,515.6,234.2,514.3,232.4,512.6z M261.6,504.9l-3.7-3.2l-4.2,5.3c1,0.7,2.5,2.3,3.1,2
		C258.4,508.2,259.7,506.6,261.6,504.9L261.6,504.9z M337.3,490.1l-3.8-4.1c-1.1,1.2-3,2.3-3.1,3.5s1.6,2.6,2.5,3.9L337.3,490.1z
		 M231.9,526.5l-2.8,1.9c0.5,0.8,1,2,1.7,2.1c1,0,1.9-0.5,2.4-1.3C233.5,528.7,232.5,527.6,231.9,526.5z"/>
	<path class="st1" d="M77.7,544.5c1.1-3.5,2.2-7,3.5-10.4c0.8-1.9,3.2-3.2,4.8-4.7c0.9,2.2,2.7,4.5,2.5,6.5
		c-0.8,6.8-2.6,13.5-3.5,20.3c-0.2,1.7,1.3,3.5,1.9,5.3c0.9-1.4,2.3-2.8,2.7-4.3c1.3-4.9,1.9-10,3.5-14.8c0.8-2.3,3.4-4,5.1-6
		c1.2,2.7,3.2,5.3,3.4,8.1s-1.3,5.6-1.8,8.4c-0.1,1.4-0.1,2.7,0.1,4.1c0.8-1,2-1.9,2.4-3.1c1.5-4.4,2.5-9.1,4.3-13.4
		c0.7-1.7,3-2.7,4.6-4c1.1,2,3,4,3.1,6c0.2,2.8-1.2,5.7-1.3,8.5c0,1.9,1,3.8,1.6,5.8c1.5-1.7,3.5-3.1,4.4-5c1.3-2.6,1.3-5.7,2.7-8.2
		c1.1-2,3.3-3.3,5.1-4.8c1.1,2.1,2.5,4,3.1,6.2c0.8,3-3.9,8.1,2,8.8c5.9,0.7,4-5.6,5.4-8.9c0.2-0.7,0.4-1.4,0.6-2.1
		c2.2-3.4,4.4-6.8,6.7-10.2c0.9,3.9,1.8,7.8,2.8,11.6c0.5,1.9,1.3,5.4,1.7,5.4c2.6-0.2,5.8-0.6,7.7-2.1c1.7-1.4,1.7-4.8,3.3-6.7
		c2.6-3.3,5.3-4.8,8,0.6c3.3,6.5,7.2,6.4,10.6-0.2c2.6-5.1,5-4.9,9-1.9c5.5,4.1,10.3,4.2,13.6-3.2c0.6-1.4,4.9-2.9,5.5-2.3
		c6.1,6.1,12.8,3.1,19.4,1.7c4.2-0.9,8.4-2.1,12.7-3c6-1.3,11.1-2.9,11-10.8c0-1.8,3.5-3.7,5.4-5.5c1.1,2,2,4.1,3.2,6
		s2.5,3.6,3.8,5.5c2.2-1.9,5.5-3.4,6.4-5.8c2.2-6.1,3.1-12.6,5.1-18.8c0.5-1.6,3-2.5,4.6-3.8c0.7,1.8,2,3.7,2,5.5
		c0,3.2-0.8,6.4-1.2,9.7c-0.4,3.2-3.3,8,2.3,8.8c5.4,0.8,8.4-2,8.3-8.3c-0.1-4.6,1.4-9.3,3.1-13.6c0.7-1.8,3.6-2.8,5.5-4.1
		c0.8,2.2,2.2,4.4,2.3,6.6c0.1,2.8-1.4,5.7-1.2,8.5c0.2,2.3,1.8,4.6,2.8,6.8c2.5-1.6,5.9-2.7,7.4-5c1.9-2.9,2-6.9,3.4-10.1
		c1-1.4,2.6-2.3,4.3-2.2c1,0.2,2,2.5,2.4,4c0.8,3-2.5,8.3,3.3,8.3c1.6,0,3-5.4,4.7-8.2c1.4-2.2,3-4.3,4.5-6.5c1.3,2.3,2.7,4.6,4,6.8
		c0.9,1.4,1.8,2.7,2.8,4.1c0.2-1.5,0.4-3,0.6-4.4c1.9-10.3,3.7-20.6,5.9-30.9c0.3-1.5,2.8-2.5,4.3-3.7c1,1.8,2.9,3.7,2.7,5.4
		c-1.1,7.9-2.8,15.7-4.1,23.5c-0.5,3.4-2.4,7.9,3.5,8.1c5.4,0.2,4.1-3.9,4.5-7.6c1.1-10,3-20,5.1-29.9c0.5-2.3,3.2-4.1,4.8-6.1
		c0.8,2.5,2.5,5.2,2.3,7.6c-0.6,6.5-2,12.9-3,19.3c-0.6,2.8-0.9,5.7-1,8.6c0,1.5,1.5,4.3,2,4.2c1.9-0.2,4.8-1,5.3-2.3
		c1.4-3.7,2.3-7.6,2.8-11.5c1-7.2,0.8-14.7,2.8-21.5c1.6-5.5,5.8-10.2,8.9-15.2c1.9,1.5,5.3,2.7,5.5,4.4c0.8,6.5,1,13,0.6,19.5
		c-0.4,7.6,2.5,11.1,10.2,12c20.8,2.4,41.5,5.4,62.3,8.1c14.6,1.9,16.5,4,15.4,18c-0.2,2.7-0.2,5.3,0.1,8
		c1.3,13.5-0.9,16.4-14.2,19.6c-13,3.1-26,6.3-39,9.5c-1.3,0.3-2.3,1.3-3.5,2c1.2,0.3,2.5,0.6,3.7,0.8c4.6,0.4,9.3,0.5,13.8,1.3
		c1.1,0.2,2.2,2.6,2.4,4c0.1,0.7-1.8,2.3-2.9,2.5c-2.8,0.5-5.8,0.1-8.6,0.7c-3.4,0.8-7.9,1.3-9.9,3.6c-5.2,6.2-11.6,6.4-18.6,6.3
		c-9.8-0.2-19.5,0.1-29.3,0.1c-6.7,0.1-13.3-1.2-19.5-4c-8.2-3.6-18.3-3.3-27.6-4.1c-37.8-3.2-75.6-6.2-113.4-9.2
		c-1.8-0.2-3.8-0.1-5.3-0.9c-15.2-7.9-30.4-2.2-45.2,0.7c-32.6,6.3-65,13.9-97.6,20.6c-4.9,0.8-9.9,0.8-14.9,0
		c-10.4-1.4-20.7-3.4-30.9-5.4c-13.4-2.9-15-5.3-16.1-19.9c-0.8-10-2.6-20-4-30v-19.5c58.7-13.9,117.5-27.8,176.2-41.7
		c20.4-4.8,40.8-9.8,61.1-14.9c10.8-2.7,11.6-3.7,11.9-14.7c0.8-30.1,1.7-60.1,2.3-90.2c0.8-42.4,1.4-84.8,1.8-127.2
		c0.1-6.9-1.1-13.7-1.1-20.6s-2.9-7.2-8.1-4.7c-2.9,1.5-6.2,2.3-8.8,4.1c-4.8,3.7-11.7,3.3-16-1c-4.1-3.8-6.7-9.9-8.4-15.4
		c-0.6-2,3.1-6.1,5.8-8.1c13.7-10,27.7-19.7,41.7-29.4c4.6-3.2,8.3-6.6,8.7-12.9c0.4-5.3,2.7-9.9,8.8-10.8c5.7-0.8,9.9,1.4,12.4,6.6
		c0.5,0.9,1,1.8,1.6,2.7c0.4-1.2,1.2-2.3,1.2-3.5c0.6-26.1,1.1-52.2,1.8-78.2c0.2-6.3-2.9-8.6-8.7-7.7c-3.9,0.6-7.8,1.5-11.6,2.5
		c-6.7,1.9-10,6-9.8,13.5c0.3,16.7,0.2,33.3-0.2,50c-0.1,7.2-1.1,14.4-2,21.6c-0.2,1.5-1.7,2.9-2.6,4.3c-1.3-1.4-3.4-2.7-3.8-4.3
		c-0.6-3.2-0.7-6.5-0.5-9.7c0.6-22.1,1.4-44.2,1.9-66.3c0.2-6,0.6-11.5-6.5-15.7c-7.1-4.2-3.9-18.1,4.1-21.8
		c3.6-1.6,7.6-2.2,11.4-3.3c7.3-2,14.5-4.1,21.8-6.1H306c4.6,0.6,9.2,1.5,13.8,1.8c15.9,1,31.8,1.6,47.6,2.6
		c6.5,0.4,11.1,3.2,11.9,10.2c0.7,5.5,1.3,10.7-5.3,13.8c-11.4,5.4-13.7,10.3-12.4,22.6c1,9.2,2.7,11,11.8,9c7.3-1.6,13.4,0,19.8,3
		c28.4,13.6,43.8,36.7,49.5,67.1c2.9,15.7,5.7,31.4,9.2,46.9c6.5,28.4,26.6,55.3,58.9,59.2c5.8,0.7,8.9,3.1,13.7,4.9
		c2,0.8,3.4,2.6,3.7,4.7c0.5,3.1,0.8,6.2,0.8,9.3c0,2.1-1,4.2-2.7,5.5c-2.1,1.6-4.7,3.9-5.3,4.1c-36.9,14.1-73-5.1-88.3-42.7
		c-6.7-16.6-9.1-34.9-14.1-52.3c-4.8-16.7-9.7-33.3-15.9-49.5c-4.7-12.1-13.6-21.3-26.7-25c-9.5-2.7-13.7,0.4-14.9,10.3
		c-0.2,1.4-0.2,2.8-0.2,4.1c-0.9,109.2-1.8,218.3-2.6,327.3c-0.1,11.5,0.8,11.9,11.8,9.1c2.8-0.7,5.7-1.6,8.5-1.4
		c1.7,0.1,3.3,2.1,4.9,3.3c-1.3,1.5-2.3,4-3.9,4.4c-6.6,2-13.3,3.4-20,4.9c-90.9,19.2-181.8,38.2-272.6,57.8
		c-21.1,4.5-17.4,1.3-22.5,21.9c-1.8,7.4-3.2,14.9-4.5,22.4c-0.4,2.1,0.6,4.4,0.9,6.6c0.9-1.8,1.7-3.6,2.4-5.5
		c2.3-9.5,4.1-19.1,6.7-28.6c0.6-2.2,3.3-3.9,5.1-5.8c1.1,2.5,3,5,3,7.4c-0.1,5.9-1.3,11.8-2,17.8l-2.2,10.6l-0.4,1.4l1-5.3
		L77.7,544.5z M353.4,110h0.2c0-22.5,0-45-0.1-67.4c0-1.4-1-2.7-1.6-4.1c-0.6,1.3-1.6,2.4-1.8,3.7c-0.3,2.2-0.5,4.3-0.4,6.5
		c-0.7,39.1-1.5,78.3-2,117.4c-0.4,32.3-0.1,64.5-0.6,96.8c-0.1,5.4,3.7,15.2-4.6,15.2c-7.4,0-3.8-9.5-3.8-14.5
		c0.2-33.7,1.1-67.4,1.5-101.1c0.4-38.4,0.6-76.8,0.8-115.3c0.1-1.1,0-2.2-0.1-3.3c-0.2-1-0.5-2-0.8-3c-0.4,0.8-0.8,1.7-1,2.6
		c-0.2,1.8-0.1,3.6-0.2,5.4c-0.7,43.5-1.5,87-2.3,130.4c0,1.8,0.5,3.9-0.2,5.4c-1,2.3-2.8,4.2-4.3,6.3c-1-2.1-2.3-4.1-2.8-6.2
		c-0.4-1.7,0.1-3.6,0.1-5.4c0.3-39.5,0.5-78.9,0.7-118.4c0-3-0.8-6-1.2-9c-0.3,2.8-0.7,5.7-0.8,8.6c-0.7,39.1-1.3,78.3-2.2,117.4
		c-0.1,4.2,2.5,9.7-3.6,12.3c-1.2-4.2-3.4-8.3-3.3-12.5c0.4-42,1.3-84.1,1.7-126.1c0-4.9-1.8-9.8-2.7-14.7
		c-0.9,5.1-2.6,10.2-2.7,15.4c-0.9,41.7-1.5,83.3-2.2,125c0,2.9-0.2,5.8-0.7,8.6c-0.5,1.3-1.6,2.2-2.9,2.5c-1.3-0.2-2.5-1.1-3.1-2.4
		c-0.6-1.7-0.8-3.5-0.7-5.3c0.5-29,1.1-58,1.6-86.9c0.3-17.4,0.6-34.8,0.5-52.2c0-2.4-2.1-4.7-3.2-7.1c-0.9,2.5-2.5,4.9-2.6,7.4
		c-0.8,15.2-1.5,30.4-1.8,45.6c-0.9,50-1.7,100-2.2,150c-0.5,55.5-0.5,110.9-0.9,166.4c-0.1,15.9-1,31.9-1.1,47.8
		c0,8.5,1.4,9.5,9.8,7.7c10.6-2.3,21.2-4.8,31.7-7.1c11.5-2.5,11.5-2.5,11.7-14.1c0.6-37,1.4-73.9,1.9-110.9
		C351.9,255,352.7,182.5,353.4,110z M290.7,215.8h0.3c0-24.3,0-48.5,0-72.8c-0.1-1.4-0.4-2.8-0.7-4.2c-0.5,1.2-1.5,2.3-1.4,3.5
		c0.4,8.7-4.4,14.6-10.9,18.8c-13.3,8.6-17.2,20.9-17,36.1c0.4,27.5-0.2,55-0.5,82.6c-0.5,58.7-0.9,117.3-1.4,175.9
		c0,5.7-0.6,12,8.3,12.2c11.8,0.2,18.8-3.9,19.2-12.1c0.6-12.6,1.3-25.3,1.5-38C289,350.4,289.9,283.1,290.7,215.8z M502,258.9
		c2.2,0,4.3,0,6.5,0c1.1,0.1,2.2-0.1,3.2-0.5c2.7-1.5,5.3-3.3,7.9-5c-2.4-1.8-4.6-4-7.2-5.3c-3-1.3-6.1-2.3-9.2-3.1
		c-33.3-9.1-52.5-31.7-60.5-64.5c-3.4-14-6-28.3-8.8-42.5c-5.3-27.1-14.2-51.7-41-65.5c-6.6-3.4-12.9-4.5-19.7-2.4
		c-1.5,0.5-3.6,3.2-3.4,4.4c0.6,2.6,2.6,4.8,4,7.3c1-1.7,2.1-3.3,3.2-4.9c1.3-1.6,2.8-2.9,4.2-4.3c1.7,1.7,3.6,3.2,4.9,5.2
		c0.7,1,0.2,2.8,0.4,4.3c0.3,1.7,0.7,3.4,1.1,5.1c1.2-0.9,2.4-2,3.5-3.1c3.6-3.9,5.8-1.5,7.2,1.9c0.5,1.7,0.6,3.5,0.1,5.3
		c-1.2,6.8,0.7,10.6,8.5,9.6c1.6-0.2,5,1.6,5,2.4c0,8.8,0.9,16.9,9,22.4c0.2,0.1,0.2,0.7,0.2,1c-1.5,6.6-0.5,11.9,7,14.1
		c0.7,0.2,1.5,2.9,1.1,3.8c-5,9.7-2.6,18.1,4,25.9c0.5,1,0.7,2.1,0.4,3.1c-3.3,20.6,4.2,38.6,14.7,55.2
		C460.7,248.4,479.7,256.9,502,258.9z M344.5,531.3c5.1-0.5,10.9-0.7,16.5-1.8c11.6-2.4,23.2-5.4,34.7-8.2
		c18.2-4.3,36.5-8.6,54.7-13c1.6-0.4,3-1.7,4.6-2.5c-1.5-0.8-2.9-2.2-4.5-2.4c-16.9-1.7-33.7-3.4-50.6-4.4c-3.3-0.2-8,2.1-9.8,4.7
		c-5.2,7.6-12.1,10.7-20.8,11.8c-5.7,0.7-11.4,2-17,3.1c-11,2.3-21.9,4.6-32.8,7c-1.2,0.3-2.3,1.4-3.4,2.2c1.3,0.4,2.6,0.7,4,0.9
		C328.1,529.5,336,530.3,344.5,531.3z M335.6,559.3c3-0.2,6-0.2,9.1,0c6.3,0.6,9.4-2.2,10-8.4s-0.5-11-7.7-11.8
		c-8.2-0.9-16.8-0.6-24.7-2.7c-8.6-2.3-10.8,14-20.3,5.9c-0.3,0.6-0.8,1.2-1.2,1.8c-5.6,5.4-6.3,5.2-10-2.2c-0.4-0.9-0.7-1.9-1-2.9
		c-0.4,0.9-0.7,1.8-0.9,2.7c-1.8,10.1,0.6,13.6,10.5,14.6C311.2,557.6,323,558.3,335.6,559.3L335.6,559.3z M425.9,532.6
		c-0.5,1.2-1.8,4.6-3.1,8.1c-1.3-3.4-2.5-6.8-3.7-10.2c-0.5-1.5-0.8-3.2-1.3-4.8c-1,1.6-2.3,3.1-2.9,4.9s-0.3,3.6-0.2,5.4
		c0.1,9.7,1.4,10.8,10.8,8.8c8.1-1.8,16.2-3.7,24.2-5.9c5.9-1.6,11.7-3.5,17.5-5.7c5.1-2,7.5-9.8,5.4-15.7c-2-5.4-6.7-4.3-10-3.1
		c-8.9,3.1-19.9,0.5-26.4,10c-1,0.8-2.4,1.1-3.6,0.7C424.8,519.4,425,524.3,425.9,532.6L425.9,532.6z M272.4,142.5
		c-0.7-1.2-1.1-2.8-1.8-2.9c-1.3-0.3-2.7,0-3.9,0.7c-14.9,10.9-29.7,21.8-44.3,33c-1.7,1.3-2.6,5.4-1.9,7.5s3.8,5,6,5.2
		s5.9-2.1,6.5-4.1c3.2-9.8,11.5-14.6,18.4-20.8c5.2-4.5,10.7-8.6,16-13C269.4,146.6,270.7,144.5,272.4,142.5z M261.4,26.9
		c8.8-2.3,16.9-3.9,24.7-6.7c2-0.7,3.6-4.9,3.8-7.6c0.1-1-4.4-3.7-6.4-3.4c-8.1,1.4-16.2,3.4-24,6c-2.1,0.7-4,4.7-4.2,7.4
		C255.1,23.8,259.1,25.4,261.4,26.9z M131.9,491.9c-5.2-3.9-7.9-7.6-11.1-8.1c-4.3-0.7-5.7,3.4-5.6,7.5c0.1,5.2,2.7,7.6,7.5,6.4
		C125.1,497.1,127.2,495,131.9,491.9z M99.8,503l3.3-0.3c0.9-2.6,3-5.4,2.5-7.7c-0.6-2.5-3.5-4.5-5.3-6.7c-1.5,2.5-4,5-4.1,7.6
		C96,498.2,98.5,500.6,99.8,503z M79.1,507l3,0.2c1.4-2.3,4.2-4.9,3.9-7c-0.4-2.8-3.2-5.2-4.9-7.7c-1.7,2.3-4.3,4.5-4.7,7
		C76.1,501.7,78.1,504.4,79.1,507L79.1,507z M358.4,21.8c4.6-0.6,7.6-0.6,10.2-1.6c0.9-0.3,1-3,1.4-4.6c-1.5-0.2-4-1-4.3-0.5
		c-4.2,6.6-7.1,3.9-10.3-1c-0.6-1-2.8-0.9-4.3-1.4c-0.1,1.7-1,4.3-0.3,4.9C353.2,19.3,355.8,20.7,358.4,21.8z M407.7,535.4
		c0.2-1.3,0.1-2.7-0.4-3.9c-0.7-1.6-2.6-2.8-3.9-4.1c-0.7,1.7-1.8,3.4-1.9,5.1c-0.1,2.9,0,5.7,0.5,8.5c0.5,1.9,1.2,3.8,2,5.5
		c1.3-1.8,2.5-3.6,3.6-5.5C408.1,540.2,407.7,539,407.7,535.4z M150.6,482.4l6.2,8.3c1.3-1.7,4.1-3.7,3.8-5
		c-0.8-3.4-2.9-6.6-4.4-9.8L150.6,482.4z M395.3,537.2c-0.4-0.9-1.8-3.8-3.2-6.7c-0.8,3-1.4,6-1.9,9.1c-0.2,2.1,0.1,4.3,0.7,6.3
		c0.4,1.4,1.5,2.5,2.3,3.8c0.7-1.1,1.3-2.4,1.6-3.7C395.2,543.9,395.1,541.8,395.3,537.2z M183.4,475.1l4.8,8.3
		c1.2-1.7,3.6-3.5,3.5-5c-0.4-3.2-2.2-6.3-3.4-9.4C186.7,470.9,185.2,472.7,183.4,475.1z M223.9,470.8c-1.1-3.2-2.1-6.2-3.4-9
		c-0.2-0.4-2.8-0.2-2.8-0.1c-0.3,3-0.4,6.1-0.5,9.1c0,0.4,0,0.7,0.2,1c1.1,1.5,2.3,3,3.5,4.5C221.9,474.6,222.8,472.8,223.9,470.8
		L223.9,470.8z M177,480.1l-4.8-7.9c-0.9,2-2.8,4.2-2.5,6.1c0.3,2.7,2.1,5.2,3.3,7.8L177,480.1z M144.8,486.8l-5.8-7.3
		c-0.9,1.6-2.8,3.5-2.5,4.9c0.5,2.9,2.2,5.5,3.5,8.3L144.8,486.8z M207,472.7c-1.3-2.6-2.6-5.3-3.9-8c-1,1.6-2.9,3.5-2.6,4.9
		c0.7,3.1,2.5,6,3.8,9L207,472.7z M343.2,18l-6-6.3c-1.4,1.3-4.1,3.5-3.8,3.9c1.2,2.1,2.9,3.9,5,5.3C338.9,21.2,340.8,19.4,343.2,18
		z M54.5,510.7c-1.2-3.1-2.4-6.4-3.7-9.6c-0.6,0-1.2,0.2-1.7,0.4c0,3.4,0.2,6.9,0.6,10.3c0.2,1.4,1.7,2.6,2.6,3.9L54.5,510.7z
		 M42.8,567.5c1.2-0.9,2.8-2.1,4.4-3.4c-1-1.2-2.3-3.4-3-3.3c-3.6,1-7.1,2.2-10.5,3.6L42.8,567.5z M14.4,515.5l-3-4.9
		c-0.7,1.8-2.2,3.7-2.1,5.5c0.2,3.1,1.4,6.1,2.2,9.1C12.3,522.4,13.1,519.6,14.4,515.5L14.4,515.5z M237.8,468.4l-3.8-9.2
		c-0.5,1.9-1.5,4-1.2,5.8c0.4,2.6,1.9,5,2.9,7.5C236.4,471.2,237,470,237.8,468.4L237.8,468.4z M40.7,517.3
		c-1.3-4.5-2.4-8.4-3.5-12.3c0,4.1-0.2,8.1,0,12.2c0.1,1.5,1.2,2.9,1.9,4.3L40.7,517.3z M325.9,14l-5.1-3.8
		c-0.9,1.3-2.8,2.9-2.5,3.9c0.4,1.8,2.2,3.3,3.4,4.9L325.9,14z M67.6,504c-1-1.9-2.1-3.9-3.2-5.9c-0.7,1.3-2.1,2.8-1.9,4
		c0.5,2.4,1.9,4.7,2.9,7C66.1,507.6,66.7,506.2,67.6,504z M26.6,515.5l-3.1-8.1l0.4,8c0,0.4,0.1,0.7,0.1,1.1c0.3,1.3,0.6,2.7,0.9,4
		C25.4,519.1,25.9,517.7,26.6,515.5L26.6,515.5z M249.8,462.9c-0.6-2-1.2-4-1.8-5.9c-0.4,0.7-1.3,1.5-1.2,2.2
		c0.4,2.4,1.1,4.8,1.7,7.1L249.8,462.9z M306,13.5l2.4,1.9c0.3-0.6,1-1.3,0.8-1.7c-0.4-0.9-0.8-1.7-1.4-2.5L306,13.5z"/>
	<path class="st1" d="M28.2,596.2c4.2-2.9,8-7,12.6-8.3c9.6-2.6,19.5-3.8,29.3-5.3c12.8-1.9,25.6-3.5,38.5-5
		c6.1-0.8,12.2-1.1,18.3-0.9c2.8,0.1,5.4,2.3,8.1,3.6c-2.8,1.6-5.4,3.9-8.5,4.6c-3.4,0.9-7.3-0.3-10.7,0.6
		c-11.9,3.3-23.7,7-35.6,10.6L28.2,596.2z"/>
	<path class="st1" d="M157.3,579.6c-3.5-0.3-7.1-0.4-10.6-1.1c-1.3-0.5-2.2-1.5-2.6-2.9c-0.1-1,1.4-2.9,2.3-3c7-0.6,14.1-1.1,21.2-1
		c1.4,0,2.8,2.7,4.1,4.1c-1.6,1.1-3.1,2.9-4.8,3.2c-3.1,0.5-6.4,0.2-9.6,0.2L157.3,579.6z"/>
	<path class="st1" d="M319.1,498.7c-2.4-2.9-4.4-4.5-4.1-5.1c1.4-2.7,2.9-5.3,4.7-7.8c1.2,1.1,3.4,2.5,3.3,3.3
		C322.4,491.9,320.9,494.5,319.1,498.7z"/>
	<path class="st1" d="M186.4,530.7c-1.8-3.2-3.8-5.1-3.5-6.3c0.7-2.1,2.8-3.7,4.3-5.5c1.2,1.5,3.3,3.2,3.2,4.6
		C190.4,525.6,188.4,527.4,186.4,530.7z"/>
	<path class="st1" d="M213.6,520.2c-4,3.3-5.5,5.1-7.4,5.9c-0.7,0.3-2.3-1.8-3.5-2.8c1.6-2,3-4.3,5-5.8
		C208.4,517.1,210.6,518.9,213.6,520.2z"/>
	<path class="st1" d="M339.1,474.8l-4.3,4.9c-1.2-1.3-3.4-2.5-3.5-3.8c0-1.6,1.8-3.3,2.7-5L339.1,474.8z"/>
	<path class="st1" d="M171.2,527.9c-1.6,0.9-3.2,2.4-4.9,2.6c-0.9,0.1-3-2.9-2.8-3.3c1-1.6,2.6-3.4,4.3-3.9c1.4-0.4,3.3,1.1,4.9,1.8
		L171.2,527.9z"/>
	<path class="st1" d="M232.4,512.6c1.9,1.7,3.7,3,3.6,3.4c-1,2-2.2,3.8-3.6,5.4c-0.1,0.2-3-1.5-2.9-1.8
		C230.2,517.2,231.2,514.8,232.4,512.6z"/>
	<path class="st1" d="M261.6,504.9c-1.9,1.8-3.2,3.3-4.8,4.1c-0.5,0.3-2-1.3-3.1-2l4.2-5.3L261.6,504.9z"/>
	<path class="st1" d="M337.3,490.1l-4.5,3.4c-0.9-1.3-2.6-2.7-2.5-3.9c0.1-1.2,2-2.4,3.1-3.5L337.3,490.1z"/>
	<path class="st1" d="M231.9,526.5c0.6,1.1,1.5,2.3,1.3,2.7c-0.5,0.8-1.5,1.3-2.4,1.3c-0.6-0.1-1.1-1.4-1.7-2.1L231.9,526.5z"/>
	<path class="st1" d="M347,342.7l-5.2,8.1c-1.4-2.5-3.8-5-3.8-7.5s2.3-5.2,3.6-7.8L347,342.7z"/>
	<path class="st1" d="M336.6,250.2l-5.7,7.1c-1-2.4-3.1-5-2.8-7.3c0.2-2.3,2.8-4.1,4.3-6.2L336.6,250.2z"/>
	<path class="st1" d="M333.3,210.2c-2.6-3.4-4.8-5.2-4.6-6.4c0.5-2.5,2.3-4.7,3.6-7.1c1.3,1.3,3.6,2.6,3.7,4
		C336,203.1,334.7,205.6,333.3,210.2z"/>
	<path class="st1" d="M336.4,272l-5.2,7c-1.2-1.9-3.4-3.8-3.4-5.7c0-2.4,1.8-4.8,2.8-7.3L336.4,272z"/>
	<path class="st1" d="M314.3,202.5l-6,3.8c-1.3-2.3-3-4.4-3.8-6.8c-0.2-0.5,3-3.1,3.3-2.9C309.8,197.9,311.5,199.9,314.3,202.5z"/>
	<path class="st1" d="M336.4,291.5c-2.5,1.9-4.7,4.3-5.3,3.9c-1.8-1-3.6-3-4-4.9c-0.2-1.2,2.3-2.9,3.5-4.3L336.4,291.5z"/>
	<path class="st1" d="M347.8,289.9l-6.2,4.8c-1.1-1.5-3.4-3.4-3.1-4.5c0.6-1.9,2.6-3.7,4.4-4.7C343.5,285.3,345.6,287.8,347.8,289.9
		z"/>
	<path class="st1" d="M342.7,314.3c1.6,3.5,3.2,5.5,3.1,7.4c-0.1,1.4-2.4,2.7-3.7,4c-1.2-1.8-3.1-3.4-3.4-5.3
		C338.6,319,340.6,317.4,342.7,314.3z"/>
	<path class="st1" d="M323.2,209.7c-2.2-2.6-4.2-3.9-4-4.9c0.2-2.1,1.6-4.1,2.5-6.2c1.2,1,3.4,2,3.5,3.1
		C325.3,203.8,324.2,206,323.2,209.7z"/>
	<path class="st1" d="M333.1,212.6c1.1,2.4,2.6,4.1,2.2,5c-0.8,1.6-2.7,2.6-4.1,3.8c-0.9-1.3-2.7-2.9-2.5-3.7
		C329.4,216,331.1,214.8,333.1,212.6z"/>
	<path class="st1" d="M326.3,219.4c-2.7,0.7-4.3,1.5-5.6,1.3c-0.9-0.2-1.5-2-2.2-3c1.4-0.7,2.8-1.8,4.3-1.8
		C323.6,215.8,324.5,217.5,326.3,219.4z"/>
	<path class="st1" d="M346,303c-1.9,1.6-2.9,3-4.2,3.4c-0.7,0.2-1.9-1.4-2.8-2.2c1-1.2,1.8-2.7,3-3.3
		C342.6,300.6,344.1,301.9,346,303z"/>
	<path class="st1" d="M335.3,232.4c-2,1-3.2,2.1-4.2,2s-1.5-1.7-2.3-2.7c1-0.8,2-2.1,3.1-2.2C332.7,229.5,333.6,231,335.3,232.4z"/>
	<path d="M434.3,534l-0.3,0.8c-0.3-0.1-0.6-0.2-0.8-0.3c-0.1-0.1,0.1-0.5,0.2-0.7L434.3,534z"/>
</g>
</svg>
