<svg id="Layer_1" data-name="Layer 1" xmlns="http://www.w3.org/2000/svg" viewBox="0 0 763.77 371.72">
  <defs>
    <style>
      .cls-1 {
        fill: #ef483e;
      }

      .cls-2 {
        fill: #fff;
      }
    </style>
  </defs>
  <title>orange-wagon</title>
  <g>
    <path class="cls-1" d="M301.51,120.14h38.84c9.86,3.33,19.72,2.2,29.58,0h33.29c20.23,1.52,40.43,3.67,60.69,4.36,16.68.57,31,4.27,40,19.76,1.38,2.39,3.19,4.53,4.79,6.79,6.25,8.82,5.81,10-5.09,13.26a.81.81,0,0,0-.42.34c.69,3.35,1.85,6.53,1.94,9.73.74,25.54,1.24,51.08,1.87,76.62.33,13.54,1.24,27.08.95,40.6-.16,7.55.07,16.8-4,22.19-6.88,9.12-4.85,15.18,1.57,22.16,1.23,1.33,2.24,2.87,3.89,5,3.77-6,7.57-3.22,11.6-.75,6,3.7,12.39,6.88,18.3,10.74,26.78,17.49,53.85,34.51,79.4,53.86,15.43,11.69,31.74,22.26,47.91,32.93,15.94,10.51,32.15,20.6,48.38,30.65a19,19,0,0,0,9.15,3.07c18.17.26,36.34.08,54.51,0v5.55c-4.62.09-9.25.24-13.87.26-15.95,0-31.91.11-47.86,0-2.7,0-5.75-.33-8-1.61-12.83-7.29-25.68-14.58-38.09-22.55-7.21-4.64-13.34-10.93-20.4-15.83-28.35-19.66-56.86-39.07-85.33-58.54-2.88-2-5.89-3.74-9.4-5.95-.77,4.38-1.28,7.33-1.83,10.45a14.4,14.4,0,0,1-3.06,0c-6.06-1.54-7.47-6.46-8.92-11.71-4.13-14.92-13-22.39-29.54-24.36,1.15,3.82,2.76,7.16,3.1,10.63,1.07,10.95,7.89,17.56,16.43,23,10.64,6.8,21.1,13.91,32,20.23,30.44,17.61,59.18,37.72,87.84,58,13.77,9.75,27.61,20,46.11,17.93.51-.05,1.1.58,3,1.68l-32,3.05c4.18,1.71,8.35,1.82,12.52,1.68s8.21-1,12.46,2.07c-17.66,4.51-42.8,4.41-48.95-.28L653,483c-6.55-.81-10.84-1.24-15.09-1.91s-9,.68-12.52-3.43a82.46,82.46,0,0,1,15.57-.79c3.58.11,7.66.05,8.09-4,.22-2.08-3-4.58-4.83-6.78a11.55,11.55,0,0,0-2.31-1.52c-11.47-8.29-23.07-16.4-34.36-24.93-17-12.86-36-22.37-54.91-32.54C546,418,541.1,429.78,532.89,438.46c-8,8.5-19.44,13.82-30.17,21.09,3.26.2,5.65.38,8,.49,27.37,1.35,54.74,2.63,82.1,4.08,3.64.19,7.72,0,11.6,4.95-25.26-.06-48.78-3.27-72.42-.89l13.76,2c0,.81.06,1.62.08,2.44-3,.37-6.11,1.15-9.14,1-24.29-.95-48.57-2.43-72.87-3-25.23-.63-50.47-.46-75.71-.71a35.24,35.24,0,0,1-5.62-.93v-1.53L396,464.88c-.73-1.21-.83-1.58-1.06-1.72-1.83-1.15-3.66-2.27-5.52-3.36C368.1,447.28,352.65,430,346.9,405.44a206.37,206.37,0,0,1-4.26-28.14c-.48-5.2-1.91-8.1-7.51-8.05-13.81.13-27.85-1.36-41.36.67-10.25,1.53-19,7.34-21.78,20-4.13,18.56-12.76,35.24-27.11,48.43-5.6,5.16-11,10.51-17.26,16.48l10.94,4.47c-16.3,2.72-32.5,5.15-48.46,4.06-9.33-.64-18.14.16-27.21.9a203,203,0,0,1-21.93.45c-6.43-.16-12.87-1.61-19.27-1.43-15.4.44-30.77,1.74-46.16,2.24-11.85.38-23.73.07-35.6.07,6.18-2.08,12.51-2.84,18.82-3.71,2.1-.29,5.47-.25,6-1.42,2.52-5.38,7.07-3.75,11.06-3.9,4.74-.18,9.5,0,14.25,0l.44-2.07c-3.42-2.47-6.82-5-10.27-7.39-9.42-6.59-17.79-14.38-24-24-15.52-23.8-22.56-49.58-17.43-78.17,5.36-29.91,20.47-53.1,46.35-69.06,17.74-10.93,37-16.39,58-15.49,4.72.21,9.46,0,13.61,0-1.5-5.07-2.88-9.29-4-13.59a31.5,31.5,0,0,1-1-7.29c-.5-25.57-.88-51.14-1.34-76.7-.16-8.69,2.34-15.79,11-19.42,12.76-5.33,25.39-11,38.33-15.87a58.83,58.83,0,0,1,17.89-3.6c26.16-1.15,52.34-1.78,78.51-2.67A32,32,0,0,0,301.51,120.14ZM210.92,286.75l-2-2c-4.43-8.8-12.34-12.85-21.39-15.34L209,284.66l2,1.95,1.87,1.86,1.8,1.88,1.83,1.83,1.83,1.78L228,308.05c-.81-6.49-3.6-11.49-9.76-14l-1.84-1.76-1.83-1.83-1.78-1.91ZM346,182.94l1.81-1.94c2.5-2.28,4.77-4.91,7.58-6.72,1.87-1.2,5.16-2.35,6.62-1.49s1.6,4.23,2.35,6.62c3-1.9,6.21-4.26,9.7-6.15s7.53-7.06,11-1.84c3.19,4.76-2.42,7.62-5.54,10.1q-18.42,14.65-37.31,28.73c-2.11,1.58-4.94,2.35-7.55,3.08-8.57,2.39-9.7,3.78-10.3,12.72-.94,14.1-1.42,28.27-3.17,42.27-1.48,11.74-1.79,23.2.65,34.82,1.57,7.48,2.1,15.18,3.48,22.71.88,4.85,1.3,10.15,6.7,13.92,1.48-5.21,3-9.56,3.81-14,.24-1.42-1.2-4.16-2.48-4.64-4.74-1.76-5.59-5.54-5.67-9.62-.28-13.53-.78-27.09-.23-40.61.2-4.88,3.09-9.67,4.82-14.48.52-1.42,1.82-2.74,1.82-4.11,0-6.62,4.53-8.83,9.72-10.62,17.13-5.89,34.19-12.07,52.88-8.9,2.66.45,5.52-.43,8.27-.37,5.63.12,11.24.46,17.5.74a11.8,11.8,0,0,0,.58-3.29c-.52-19.7-1-39.4-1.77-59.09-.21-5.45-2-6.3-8-6.07-6.7.26-13.41.15-20.12.23-3.68.05-7.37.06-11,.3-8.25.52-16.5,1.51-24.76,1.7-13.2.29-26.4.07-39.61.07,7,.24,5.37,6.83,7.32,10.95l7.75-8.63c2.23,10-4.89,17.16-5.92,27.52,4.88-7.79,8.54-14.18,12.83-20.12,1.16-1.6,4.46-2.93,6.34-2.49,3.7.87,2.35,4.28,1.89,6.95l-1.78,1.94-2.06,2-.14-.16Zm-85.12,42.67-.3.24.2-.34,1.88-1.88c2.58-2.54,5-5.23,7.78-7.57,2.54-2.16,5.38-4,8.08-5.91-7.44,2.16-12.44,7-15.73,13.61ZM203.51,330.92l3.62-1.73.12.14-3.62,1.72-3.88,1.8-12.83,7.27-.29.2.22-.29c5.94.49,9.69-2.85,12.8-7.31Zm83-81.65,8.52-20.34-2.68-1c-4.31,6.34-4.29,14.14-5.73,21.45Zm-49.73-14.6c1.58-.91,3.63-1.44,4.66-2.77,8.35-10.75,16.51-21.65,26-34.12-14.57,10.46-23.7,22.77-30.53,37l-.29.24Zm-50,46.54.14-.13c.47.79,1,1.56,1.41,2.35,4.44,7.85,4.45,7.89-3.32,13.31-3.15,2.19-4.38,4.78-2.49,8.48,6.08.31,8.26-8.51,16-6.23-1.37,2.05-2,3.4-3,4.38-9.71,9.67-19.49,19.25-29.21,28.9-1.92,1.91-3.64,4-5.46,6l-.2.66.34-.52c8.07-5.54,16.18-11,24.18-16.66,3.76-2.66,7-6.07,11-8.39,6.15-3.62,14.15-.68,18.15,6.1,4.11,7,2.93,10.84-4.72,15.52-7.19,4.4-14.37,8.84-21.56,13.26l1,2,34.06-11.91c-.55-2.26-.8-4.72-1.73-6.88-5-11.55-9.89-23.13-15.22-34.51C202.34,288.74,195.16,284.13,186.78,281.21ZM68.2,410.67l-1.44-2.13c2.75-2.54,5.16-5.63,8.31-7.5,11.61-7,23.55-13.35,35.16-20.29,2.36-1.42,5.34-4.28,5.39-6.54.1-4.32-4.19-4.64-7.63-4.62-7.67.05-15.35.38-23,.46-3.08,0-6.15-.33-9.23-.51,3.48-5.05,7.8-6.23,12.39-6.53,6.76-.43,13.54-.64,20.3-1,3-.15,6.29.28,7.64-4.87C103.36,348.49,87.4,344.76,76.23,333l40,14.58c-1.36-4.55-1.94-7.49-3.09-10.19q-8.33-19.5-16.94-38.88C95,295.67,93,293,97,290.33c6.47,5,12,10.52,15.28,18.14,3.43,7.9,7.24,15.64,11.1,23.35a84.17,84.17,0,0,0,5.2,8.05l2-.42a82.68,82.68,0,0,0,2.31-8.45c2.53-14.87,4.79-29.78,7.48-44.62.42-2.32,2.67-6.23,3.86-6.15,4.14.28,3.3,4.19,3.4,7.15a5.8,5.8,0,0,1-.12.92c-2.06,15.55-4.16,31.1-6.13,46.66-.33,2.54-.05,5.15-.05,8.73,7.37-3.93,10.53-8.46,10.36-15.91-.29-13.54.16-27.1.39-40.65.1-5.82.13-11.73,5.65-15.76a10.09,10.09,0,0,0-1.79-1.53,13.36,13.36,0,0,0-3.46-1.18C134,266.33,116,269.91,99,276.05c-19.39,7-31.82,22.55-41.23,40.26-3.12,5.87-4.17,12.82-6.42,19.18-8.63,24.33-9,48.62,3.91,71.28,11.73,20.68,28.83,35.77,53.2,40.67,2.68.54,5.21,1.86,7.88,2.53,7.66,1.92,15.35,2.76,22,1-2.11-8.64-4.24-16.21-5.74-23.9-2.19-11.18-3.82-22.46-5.88-33.67-1.71-9.23-4.24-10.52-12.2-6.29-12,6.34-23.79,12.91-35.77,19.21C75.38,408.12,71.72,409.25,68.2,410.67Zm342.68-49.83-2.73-.35c-1,6.2-4.87,9-10.29,9-11.05,0-22.16.33-33.12-.75s-14.54.79-13.3,11.31c1.92,16.42,3.49,33.27,13.82,47.2a104,104,0,0,0,14.89,16.07c3.82,3.36,8.73,5.6,13.4,7.83,8.49,4,16.78,7.94,26.73,8.63,11.66.81,22.57-2.4,33.86-3.2,12.29-.86,21.28-7.74,29-16.33,10.29-11.51,15.58-25.75,18.94-40.5,1.87-8.17,1.79-16.8-.49-24l-47.14,6.83c10.59,2.35,21,3,31.42,3.92,4.3.4,9.2.48,10.71,7H453.48c11.87,9.72,26,16.16,35.38,30.76-3.79-.54-6.46-.23-8.33-1.31-5.81-3.34-11.45-7-16.91-10.93-4.09-2.92-7.2-7.36-14.07-8.48,1.14,3.58,1.72,6.17,2.78,8.55,3.86,8.73,8,17.33,11.78,26.1,1.34,3.12,3.48,6.58-.45,11.12a126.93,126.93,0,0,1-15-23.35c-4.05-7.92-6.49-16.77-14.09-23.19-2.91,17.19-.85,34.63-3.54,52.13-5.8-2.23-5.16-6.37-5.23-9.81-.2-10.78,0-21.56-.09-32.35-.07-6.83-1.86-9.25-8.25-9.81a12.88,12.88,0,0,0-8.22,2.64c-6.52,5.12-12.57,10.82-18.84,16.25-3,2.63-6,5.3-9.21,7.71-2.42,1.83-5.41,4.15-8,1.06-.6-.72,1.66-4.78,3.44-6.37,6.42-5.75,13.2-11.1,19.83-16.61,3.08-2.56,6.24-5,9.18-7.74,2.58-2.39,4.49-11.48,2.18-13.55s-5.78-2.84-8.88-3.21c-3.3-.4-6.74.42-10.12.6-8.31.46-16.61,1.09-24.92,1.14-2,0-5.28-1.6-5.71-3.1-.53-1.88.85-4.73,2.21-6.57.91-1.25,3.15-1.82,4.89-2.12,4.24-.72,8.55-1.62,12.82-1.54,8.9.14,17.8,1.12,26.7,1.23,3.19,0,6.39-1.44,9.58-2.23Q412.65,365.66,410.88,360.84Zm80.75-42,2.16-1c.65-9.18,2-18.37,1.8-27.53-.56-23.65-1.9-47.28-2.78-70.93a309,309,0,0,1,3-58.32c-11.46,1-22.78,1.59-34,3-8.17,1-8.05,1.48-9.08,9.78-3.88,31.18-5.83,62.49-6.7,93.88-.11,3.89,0,7.78,0,10.19,8.49,3.06,15.73,4.82,22.12,8.2,8.52,4.51,10.9,12,7.43,19.4ZM198.68,417.32c-3-.93-5-1-6.17-2-5.41-4.54-10.43-9.56-15.92-14-6.64-5.35-13.47-10.5-20.49-15.33-3.22-2.2-16.44,1.85-18.18,5.1a4.85,4.85,0,0,0-.47,2.66c1.78,17.47,3.44,34.94,5.54,52.37.67,5.53,3.36,7.09,9.15,6.51a85.3,85.3,0,0,0,10-1.77c29.82-6.71,50.77-23.61,60.66-53.09,2-5.88-.9-10.35-6.94-10.94s-12.25-1.15-18.39-1.67c-7.11-.61-14.22-1.18-23-1.9Zm222.62-156c-12,3.78-12,3.78-13.09-7.35-.06-.61-.08-1.23-.17-1.84-1.11-7.51-2.94-9-10.35-7.6a97.83,97.83,0,0,0-10.58,3.16c-5.28,1.66-10.45,3.78-15.84,4.89-3.06.63-7.11.69-9.55-.84-6.77-4.23-11.75.08-17.13,2.51-.91.41-1.58,2.6-1.45,3.88,1,9.72,2,19.44,3.37,29.13,1,7.2,2.89,8.62,9.79,7,4.14-1,8-3.1,12.07-4.4,5.23-1.66,10.49-3.64,15.88-4.36,10.92-1.46,21.95-2,32.89-3.33,1.5-.17,3.86-2.23,4-3.57C421.57,273.17,421.3,267.68,421.3,261.34Zm-159,122.52c-3.64-.5-6.36-.8-9-1.25-11.12-1.86-12.77-.95-16.13,9.47-7.48,23.15-19.44,43.05-40.51,56.42a2.32,2.32,0,0,0-.74.54c-.94,1.44-1.83,2.92-2.74,4.38,1.47.87,2.87,2.33,4.42,2.5,5.31.61,10-.74,14.7-3.82,18-11.75,30.61-28.25,41.3-46.33C257.36,399.35,261.75,392.8,262.31,383.86ZM237.83,323.2l-1.66.86c1.75,8.67,3.52,17.34,5.22,26,.93,4.75,3.43,6.79,8.48,6,7-1,14.05-1.9,21.11-2.34,8.58-.54,17.21-.92,25.8-.72,14.44.34,28.87,1.21,43.3,1.84,4.52.2,7.74-1.62,9.15-6.11,2.94-9.36,8.8-16.86,15.24-24,2.6-2.86,4.59-5.8,1.89-11.12-4,4.83-7.62,9.26-11.33,13.6-5.14,6-10.27,12-15.66,17.81-1,1-3.85,1.85-4.68,1.22-3.23-2.43-6-1.82-9.47-.63-1.86.64-5.3-.05-6.54-1.45-3.7-4.22-7.92-3.84-12.66-3.11s-9.78,1.12-14.69,1.51c-7.67.62-15.44.52-23,1.79-12.65,2.12-15.72.93-22.5-10.31C243.51,330.27,240.52,326.83,237.83,323.2Zm282,64.12c-8.29,31-4.7,32.45-37.18,70.65a37.91,37.91,0,0,0,4.68.36,8.94,8.94,0,0,0,3.55-.8c17.05-8.62,34.61-16.86,42.17-36.25,2.51-6.44,3.57-13.49,4.74-20.36.27-1.64-1.21-4.43-2.7-5.37C530.31,392.51,525.12,390.09,519.87,387.32ZM164.79,151.87c3.94,3.36,8.4,5.46,10.77,2.68,4.56-5.33,9.74-3.88,15.15-3.91q99.23-.63,198.45-1.44c1.58,0,3.15-.27,4.72-.42A24.09,24.09,0,0,0,383,146.49c-26.16,0-52.31.06-78.47.33s-52.07-2.53-78.15-.76c-5.48.37-11-.45-16.56-.8-6.14-.4-12.33-1.68-18.39-1.18C182.54,144.82,173.05,144.45,164.79,151.87ZM440.42,348.81c6.62,1.08,11.59-.66,15.13-5.62,4.8-6.73,9.4-13.61,14.07-20.43,1.83-2.66,1.3-4.76-.74-7.37-7.51-9.63-18.18-11.73-29.3-13-3.6-.43-4.87,1.66-5.45,4.74-1,5.11-2.27,10.17-2.94,15.32-.35,2.75.33,5.64.55,8.46l1.33-.11q3.54-6.81,7.09-13.62l2.11.78C444.93,328.08,438.65,337.94,440.42,348.81Zm-60.81-24.54c-.91-.07-1.8-.38-2-.13-5.77,7.07-11.8,13.95-17.05,21.39-3,4.3-1.37,7.73,4.22,8.12,11.87.83,23.81.75,35.72.83,1.1,0,2.21-1.48,4-2.79-8.34-5.39-15.8-9.85-25.23-6.08-3.55,1.43-7.28,1.45-8.84-2-1-2.24-.31-6,1-8.38C373.55,331.33,376.75,328,379.61,324.27ZM431.2,149.55l.72,2.11,51.81-4.57c-3.66-5.93-7.86-9-12.9-8.5A226.66,226.66,0,0,0,442,143.46C438.14,144.37,434.79,147.45,431.2,149.55Zm36,196.72,32.22,7.21c-1.61-3.52-2.3-6.46-4-8.53a147.17,147.17,0,0,0-11.32-11.58c-1.93-1.84-4.22-2.61-6.34,0Zm-64.9-20.18c-.61-3-.84-4.19-1.1-5.37-.73-3.42.15-6.24,3.51-7.64,3.83-1.59,7.4-.82,9.82,2.66,2.13,3.06,3.82,6.43,5.7,9.67l2-.49c0-6,.11-12.05-.05-18.07-.09-3.3-2.6-4.31-5.22-3.44-8.38,2.8-16.64,5.94-25.86,9.27C395,317.33,398,321,402.29,326.09ZM438,231.33c5-30.45,4.27-57.85-.72-66.34-.72,1.19-1.84,2.18-1.8,3.12C436.27,189.19,437.16,210.26,438,231.33ZM415,345.62c2.08,5.44,3.61,9.9,5.53,14.19.65,1.47,2.18,3.33,3.5,3.49,1.06.14,3-1.77,3.53-3.16,1.61-4.41,2.73-9,3.93-13.15Zm33.61-50.87c-3.57-8.7-6.77-16.47-10-24.24a8,8,0,0,0-1.52,4.72c-.24,3.65-.6,7.31-.64,11C436.42,294.61,437.46,295.41,448.65,294.75Zm-307,71.55c.1-2.89-4.34-6.79-7.62-6.67s-7.14,4.4-7.15,8.42c0,3.76,1.3,6.66,5.63,6.95S141.47,370.72,141.64,366.3Zm59.63-11.69c7.67,0,13.83.25,19.95-.1,3.24-.18,4.76-2.67,3.87-5.88-1-3.45-3.41-2.61-5.8-1.6C213.8,349.36,208.3,351.66,201.27,354.61Zm43-65.43c6.64.52,9.16-4,11.58-8.51,6.56-12.19,6.95-14,4.69-19.68C255,270.4,257.08,284,244.28,289.18Zm182.32,94c-1.32,4.55-.76,7.8,3.52,9.1.68.21,3-2.21,3.18-3.61C434,383.55,429.66,384.56,426.6,383.17ZM296.73,223.28l2.7.84c3.58-3.39,3.83-7.56,3.17-12l-1.92-.55Q298.7,217.46,296.73,223.28Zm12,96.16c-4.61.73-5.87,2.48-3.9,5.11.44.6,1.6.65,2.43,1Zm-98.64-74.1,1.92.8,3.21-8.63L214,237Q212.07,241.17,210.14,245.34Zm178.67,55.83.55,1.84,5.87-1.72-.51-1.77Zm52.08,64.19c-1.05-1-1.68-1.93-2.07-1.83a3.41,3.41,0,0,0-2.09,1.5c-.23.46.44,1.38.7,2.1ZM414.5,295.17a2.47,2.47,0,0,0,0-.56,3.75,3.75,0,0,0-.82-.1l0,.78Zm-169.43,9.46.29.79,1.4-.53a13.75,13.75,0,0,0-1.17-.88A5.19,5.19,0,0,0,245.07,304.63Zm7.17,16.44.33.69.33-.67Z" transform="translate(-14.86 -120.14)"/>
    <path class="cls-2" d="M543.37,341.61c-9.26-18.81-15.3-25.06-24.31-25.67C519,332.19,528.36,336.26,543.37,341.61Z" transform="translate(-14.86 -120.14)"/>
    <path class="cls-1" d="M156.41,470l-.17-2.31c-11.22,0-22.46-.35-33.67.07-18.37.7-36.72,1.85-55.06,3-2.33.14-4.6,1.25-6.9,1.91l.5,2.93c5-.24,10-.22,15-.79,5.47-.63,10.85-2.44,16.3-2.61,16.86-.51,33.75-.38,50.63-.72C147.51,471.36,152,470.51,156.41,470Zm296,9.94c-15.45-5.92-31.08-.23-46.64-.87-1,0-2,1.48-3.05,2.28C419.65,484.45,435.93,481,452.38,479.94Zm20.05-.19-.27,2.67c4.6,1.07,9.21,2.65,13.83-1.59ZM242.71,459.57l-1.25-.09c.2.15.39.41.6.43S242.49,459.7,242.71,459.57Zm457.09,26-1.18-.35c.06.21.12.58.2.59A3.78,3.78,0,0,0,699.8,485.54Z" transform="translate(-14.86 -120.14)"/>
    <path class="cls-1" d="M734.25,491.86c.4-1.31.49-3.51,1.26-3.78,6.92-2.45,13.88-1.71,20.69.63.4.13.18,2.06.24,3.15Z" transform="translate(-14.86 -120.14)"/>
    <path class="cls-2" d="M369.93,120.14c-9.86,2.2-19.72,3.33-29.58,0Z" transform="translate(-14.86 -120.14)"/>
    <path class="cls-1" d="M14.86,473.37c4.39-1.65,8.74-3.68,14.53-1.63-4.47,5.55-9.95,2.66-14.53,3.48Z" transform="translate(-14.86 -120.14)"/>
    <path class="cls-2" d="M414.5,295.17l-.82.12,0-.78a3.75,3.75,0,0,1,.82.1A2.47,2.47,0,0,1,414.5,295.17Z" transform="translate(-14.86 -120.14)"/>
    <path class="cls-2" d="M245.07,304.63a5.19,5.19,0,0,1,.52-.62,13.75,13.75,0,0,1,1.17.88l-1.4.53Z" transform="translate(-14.86 -120.14)"/>
    <path class="cls-2" d="M203.63,331.05l3.62-1.72-.12-.14-3.62,1.73Z" transform="translate(-14.86 -120.14)"/>
    <path class="cls-2" d="M203.51,330.92l-3.86,1.8.1.13,3.88-1.8Z" transform="translate(-14.86 -120.14)"/>
    <path class="cls-2" d="M286.55,249.27l.11.15Z" transform="translate(-14.86 -120.14)"/>
    <polygon class="cls-2" points="237.38 200.93 238.04 200.96 237.71 201.62 237.38 200.93"/>
    <path class="cls-2" d="M207.25,329.33l-.12-.14Z" transform="translate(-14.86 -120.14)"/>
    <path class="cls-2" d="M161,338.44l-.34.52.2-.66Z" transform="translate(-14.86 -120.14)"/>
    <polygon class="cls-2" points="171.99 219.89 171.76 220.18 172.06 219.98 171.99 219.89"/>
    <polygon class="cls-2" points="221.96 114.53 221.75 114.85 222.03 114.61 221.96 114.53"/>
    <polygon class="cls-2" points="245.89 105.37 245.7 105.71 246 105.47 245.89 105.37"/>
    <path class="cls-2" d="M260.86,225.61l1.91-1.86-.13-.12-1.88,1.88Z" transform="translate(-14.86 -120.14)"/>
    <path class="cls-2" d="M343.94,184.93l.14.16Z" transform="translate(-14.86 -120.14)"/>
    <path class="cls-2" d="M346.14,183.08l1.78-1.94-.13-.14L346,182.94Z" transform="translate(-14.86 -120.14)"/>
    <path class="cls-2" d="M346,182.94l-2,2,.14.16,2.06-2Z" transform="translate(-14.86 -120.14)"/>
    <path class="cls-2" d="M186.92,281.08l-.14.13Z" transform="translate(-14.86 -120.14)"/>
    <path class="cls-1" d="M543.37,341.61c-15-5.35-24.42-9.42-24.31-25.67C528.07,316.55,534.11,322.8,543.37,341.61Z" transform="translate(-14.86 -120.14)"/>
    <path class="cls-1" d="M156.41,470c-4.46.51-8.9,1.36-13.36,1.45-16.88.34-33.77.21-50.63.72-5.45.17-10.83,2-16.3,2.61-5,.57-10,.55-15,.79l-.5-2.93c2.3-.66,4.57-1.77,6.9-1.91,18.34-1.12,36.69-2.27,55.06-3,11.21-.42,22.45-.07,33.67-.07Z" transform="translate(-14.86 -120.14)"/>
    <path class="cls-1" d="M452.38,479.94c-16.45,1.08-32.73,4.51-49.69,1.41,1-.8,2.07-2.32,3.05-2.28C421.3,479.71,436.93,474,452.38,479.94Z" transform="translate(-14.86 -120.14)"/>
    <path class="cls-1" d="M472.43,479.75,486,480.83c-4.62,4.24-9.23,2.66-13.83,1.59Z" transform="translate(-14.86 -120.14)"/>
    <path d="M242.71,459.57c-.22.13-.45.36-.65.34s-.4-.28-.6-.43Z" transform="translate(-14.86 -120.14)"/>
    <path class="cls-1" d="M699.8,485.54a3.78,3.78,0,0,1-1,.24c-.08,0-.14-.38-.2-.59Z" transform="translate(-14.86 -120.14)"/>
    <path class="cls-1" d="M366.23,210.7c6.66-3.06,13.28-6.22,20-9.12,2.66-1.14,6.43-3.42,7.91.52.68,1.82-1.59,6-3.68,7.39-11,7.22-21.5,15.51-34.6,18.91-2.05.53-5.19,1.81-6.11.94-4.82-4.55-9.51-1.85-16.37.74,1.33-3.71,1.49-6.13,2.77-7.44,12.55-12.76,26.05-24.38,42-32.74,3.2-1.67,7-3.12,10.46-3.08,2.36,0,6,2.41,6.71,4.52.9,2.76-2,4.45-5.16,5-9.78,1.72-17.17,7.55-23.85,14.48l-3.77,1.67-.09-.14Z" transform="translate(-14.86 -120.14)"/>
    <path class="cls-2" d="M362.57,212.5l3.77-1.67-.11-.13-3.75,1.66Z" transform="translate(-14.86 -120.14)"/>
    <path class="cls-2" d="M362.48,212.36l.09.14Z" transform="translate(-14.86 -120.14)"/>
  </g>
</svg>
