<svg id="Layer_1" data-name="Layer 1" xmlns="http://www.w3.org/2000/svg" viewBox="0 0 514.5 582.99">
  <defs>
    <style>
      .cls-1 {
        fill: #fff;
      }

      .cls-2 {
        fill: #ffd100;
      }
    </style>
  </defs>
  <title>yellow-bucket</title>
  <g>
    <path class="cls-1" d="M632.41,493c-1.5-4.6-4.54-6.09-8.48-6.17a59.19,59.19,0,0,0-9.79.1c-1.77.26-4.67,1.87-4.7,2.93a7,7,0,0,0,3,5.14C619.54,499.42,626.07,497.18,632.41,493Zm-6.77,43.81,2-3.32c-2.13-1.25-4.17-3.3-6.43-3.59a97.24,97.24,0,0,0-16.19-.56c-.93,0-2.49,2.61-2.44,4s1.64,3.68,2.76,3.81C612.11,537.87,619,538.7,625.64,536.8Zm-39.47,51.35c-3.09-7.82-3.08-8-6.88-8.22a44.48,44.48,0,0,0-9.86.33c-1.53.25-4.14,2.34-4,2.92.54,1.83,2,4.6,3.4,4.74C574.2,588.47,579.64,588.15,586.17,588.15ZM633.63,511c-3.42,0-5-.41-6.33.1-1.79.71-3.31,2.09-4.95,3.19,1.22,1.67,2.19,4.45,3.7,4.78a44,44,0,0,0,12,.67c1.34-.09,3.46-2,3.59-3.2a5.33,5.33,0,0,0-2.46-4.35A18,18,0,0,0,633.63,511Zm-5.72,33.68c3.32,8.15,5.1,9.39,13.15,8.49,1.82-.2,3.47-1.85,5.2-2.83-1.36-1.89-2.5-5.13-4.13-5.4C637.58,544.18,632.83,544.66,627.91,544.66ZM607,552.87c.91-1.07,3.16-2.64,3.73-4.67.86-3.05-4.38-6.58-8.87-5.73-1.53.3-3.52,2.55-3.79,4.16C597.52,549.74,601.81,553,607,552.87Zm-7.56,7c-.74.68-3,1.79-3.44,3.37-.81,3.34,2.9,5.95,7.77,5.3,1.75-.23,4.3-1.79,4.72-3.26C609.38,562,605.65,559.61,599.4,559.83Z" transform="translate(-138.75 -14.5)"/>
    <path class="cls-2" d="M335.45,15.76c3.39,2.12,7.41.92,11,.76,9.35-.43,17.09,1.68,24.08,8.59,5.18,5.11,11.84,8.62,15.28,15.6,3.12,6.32,6.61,12.38,5.63,19.86-.67,5.16,2,6.76,7,7.45,12.35,1.7,24.67,3.89,36.87,6.46,24.61,5.19,48.55,12.25,70.19,25.7,9.87,6.13,18.35,13.65,24.56,23.42,3.79,6,5.75,12.59,4.41,19.9-.38,2.06.1,4.29.22,6.43.18,2.91.79,5.86.52,8.72-1.21,13.15-2.69,26.28-4,39.42-2.1,20.45-4.28,40.9-6.22,61.37-1,11-1.87,22-2.32,33a18.61,18.61,0,0,0,2.33,9.31c4.18,7.52,5,14.24-1.53,21.06-5.18,5.44-4.76,12.83-5.41,19.75-1.35,14.25-2.94,28.49-4,42.77a197,197,0,0,0-.33,22.14c.08,2.28,2,4.46,2.85,6.77,2.39,6.44,3.21,12.76-1.3,18.81-1.72,2.31-3.85,4.86-4.23,7.52-2.11,14.79-5.2,29.56-3.43,45.4,4.23.21,7.82.52,11.42.54q33.81.18,67.62.26c4,0,8.37-.59,11.22,3.19,1,1.34,2,3.47,1.62,4.85s-2.6,2.77-4,2.77c-11.43,0-22.93.35-34.27-.78-17.64-1.75-35.09-2.21-52.6,2.79,8.14.85,16.29,1.66,24.42,2.58,12.77,1.44,26.15,1.09,38.12,5,10,3.29,19,3.91,28.83,1.79,6.57-1.41,11.3,2.48,15.86,6.19,1.06.86,1.76,3.61,1.17,4.7a5.18,5.18,0,0,1-4.57,1.88c-19.88-5.37-39.42,3.72-59.22-.16,0,.91,0,1.83,0,2.74,4.08,0,8.18-.29,12.22.08,4.35.39,8.63,1.54,13,2.11,2.18.29,4.44-.14,6.64.06,4.11.36,7.52,2.66,7.49,6.68-.06,5.64-7.24,3.81-10.27,4.44a29.62,29.62,0,0,1-11.63.43c-8.7-1.68-15-.33-24.42,5,4,0,5.8,0,7.58,0,8.84-.29,17.67-.66,26.51-.85,1.39,0,3.26.32,4.1,1.24,1.62,1.75,3.29,3.93,3.64,6.14.14.88-3,2.86-4.93,3.35-2.44.62-5.13.21-7.72.31q-29.82,1.11-59.64,2.29c-1,0-2,.62-5.79,1.8,4.31,1.23,6.29,2.27,8.27,2.29,17,.15,34,.1,51,.17,2.94,0,6.18-.38,8.74.71,1.84.78,3.55,3.61,3.82,5.71.16,1.23-2.4,3.54-4.15,4.11-2.36.77-5.11.46-7.69.37-16.56-.6-33.11-1.7-49.67-1.75-8.58,0-17.16,1.76-25.86,2.74.36,4.94,3.18,5.48,6.24,5.7,10.63.77,21.27,1.51,31.9,2.3,2.18.17,4.53.11,6.48.92,3.16,1.33,4.35,4.38,2.88,7.31-.7,1.39-3.48,2.54-5.27,2.47-11-.42-22-1.09-33-1.94-15.39-1.2-30.73-2.89-46.13-3.86-8.78-.55-17.63-.1-26.2-.1-.55,1.1-1.22,1.79-1.11,2.32.45,2.3,1.12,4.55,1.72,6.83-2.77.31-5.63,1.23-8.29.83-14.2-2.13-28.49-5.43-42.77-3.41-22.1,3.13-44.21,2.13-66.29,1.77a190.13,190.13,0,0,1-51.16-7.34c-15.85-4.7-31.77-9.24-47.41-14.56s-29-14.34-42.11-24c-4.52-3.33-6.15-7.49-6.45-13.2-1.11-20.92-2.84-41.81-4.43-62.7-.5-6.59-1.52-13.14-1.86-19.73-.29-5.56-.29-10.71-4.7-15.3-4-4.14-3.06-9.82-.46-14.54,3.67-6.66,2.88-13.48,2-20.46-.57-4.37-1-8.76-1.33-13.15q-2.09-24.06-4.08-48.12c-.25-3-.35-6-.3-9,.11-7,0-13.72-4.52-20-1.76-2.45-2.13-7.56-.78-10.29,5.3-10.75,2.66-21.67,2-32.58-.13-2.18-1-4.33-1.09-6.51-.89-15.43-1.42-30.89-2.59-46.3-.89-11.7-2.76-23.33-3.81-35-.59-6.61-.26-13.29-.65-19.92-.12-2-1.25-3.89-2-5.83l.83-5.53c1.86-2.34,1.9-4.68-.05-7l-.82-16.39c.76-1.19,1.51-2.39,2.29-3.58,3.79-5.79,6.44-13.1,11.64-17,9-6.81,19.27-12.13,29.55-16.92,8.27-3.85,17.34-6,26.05-8.92,7.86-2.66,7.67-2.69,8.2-10.75C216.81,63,218,58,218.39,52.9c.8-10.64,7.66-15.18,18.19-17a95,95,0,0,0,17.51-4.6,200.78,200.78,0,0,1,53.13-12.57c6.75-.64,13.36-2.74,20-4.18ZM194.13,165.18l.12.12q-4.4-4.91-8.78-9.81c-5-5.61-8.68-11.76-9.19-19.57-.42-6.31-.7-5.8-7.64-6.59-6-.68-12.77-.26-18.94-6.09,8.39,0,15.18.32,21.92-.14a17.54,17.54,0,0,0,8.86-3.15C188.4,114,196,107.62,203.6,101.32a29.38,29.38,0,0,0,3.31-3.79c-6.13-7.55-13.07-9.15-21-5.21s-15.75,8-23.42,12.34c-18.38,10.41-22.26,31.47-8.84,47.84a81.49,81.49,0,0,0,8.52,8.51c8.07,7.31,17.7,11.89,27.87,15.35,11.79,4,23.7,7.66,35.54,11.52,3.89,1.26,6.22,0,7.18-3.82-4.52-2.09-8.89-4-13.16-6.12C211.06,173.75,202.61,169.44,194.13,165.18Zm55.46-70.94c3.19.2,4.4,2.05,4.58,5.08.66,11.76,1.43,23.5,2.13,35.25.76,12.86,1.45,25.71,2.26,38.56a12.55,12.55,0,0,0,1.2,5.33c1,1.76,2.56,3.8,4.33,4.46,12.2,4.55,25.18,5.72,37.92,5.94,4.83.09,8.17.26,11.58,3.46,3,2.86,8.23,3.72,8.53,9.2-4,2.85-6.85.7-10.06-1.4a23.87,23.87,0,0,0-8.72-3.76c-13-2.21-26.12-4-39.17-6-4.35-.68-8.63-1.87-13-2.43a3.92,3.92,0,0,0-3.13,2.17c-.26.92.81,3,1.7,3.33a69,69,0,0,0,11.82,2.69c14.23,1.67,28.49,3.12,42.74,4.61,3.37.35,6.86.39,6.65,6.34a92.57,92.57,0,0,1-22.87-.2q-25.06-3.69-49.94-8.54c-25.06-4.89-49.5-11.72-71.24-25.8-6.12-4-11.93-8.41-18.43-13-1.91,8.66.36,16.45,1.11,24.36,1.84,19.4,3.22,38.84,4.49,58.28,1.08,16.53,1.43,33.11,2.78,49.62.46,5.63,0,10.47-2.81,13.27l6.15,13.54c3.57,1.21,7.19,1.47,9.45,3.36,23.2,19.28,51.25,27.41,79.73,33.47a486.27,486.27,0,0,0,65.45,8.85c26.86,2,53.83.34,80.69-1.89,1.44-.12,3.34-.1,4.22-1,6.72-6.65,15.85-6.13,23.92-7.21,29.33-3.93,54.5-17.32,79-32.62,1.46-.92,2.43-2.63,3.63-4a7.11,7.11,0,0,0-5.59,1.28c-21.1,13.91-43.69,24.3-68.67,29-4.69.87-9.52,1-14.2,1.95-19.54,3.95-39.38,5.07-59.19,5.75-12.46.43-25-1.45-37.47-1.67-19.95-.36-39.54-3.53-59.11-6.88-25.16-4.32-49.55-11.37-72.48-22.68-6.89-3.39-13.16-8.17-19.35-12.79-2.54-1.91-4.25-5-6.08-7.73a3.06,3.06,0,0,1,.36-3c1-.73,2.75-1.37,3.74-1,2,.82,3.67,2.38,5.5,3.6,6.72,4.49,13.25,9.31,20.21,13.38,18.38,10.75,38.94,15.23,59.4,20a373,373,0,0,0,77.52,9.85c21,.42,42-1,63-1.94,8.8-.39,17.59-1.39,26.31-2.62,7.27-1,14.41-2.89,21.63-4.23a123.82,123.82,0,0,0,45-17.45c7.91-5.1,9.93-22.81,2.58-28.36-6.23-4.72-6.25-10.48-6.16-16.53.36-26.54,1-53.08,1.72-79.61.15-5.27-2.92-8.42-7-8-10.17,1-11.41-4.82-11.61-12.52-.07-2.9-1.16-5.76-1.44-8.67-1-10-4.64-14.67-14.23-14.53-17.67.28-35.33,1.35-53,2.57-11.71.82-23.37,2.32-35,3.82-6.9.88-13.72,2.34-20.57,3.56-5.14.92-7.48,4.34-7.91,9.24-.22,2.57.15,5.21-.24,7.75-.83,5.43-1.84,10.85-3.13,16.19a4.09,4.09,0,0,1-3.2,2.31c-1,0-2.54-1.51-2.87-2.64a14.08,14.08,0,0,1,0-5.3c.79-6.57,2.38-13.13,2.34-19.68s1.07-12.25,7.31-17.56c-4.21-.24-6.78-.08-9.18-.64-1.53-.35-4.1-2-4-2.66.4-1.89,1.55-4.68,3-5.1a101.57,101.57,0,0,1,16.16-3.21c14.95-1.8,29.92-3.59,44.93-4.89,18.31-1.59,36.65-2.77,55-3.94,6.08-.38,10.52,2.21,13.18,8.08a9.14,9.14,0,0,0,5.4,4.75c6.27,1.4,9.07,5.76,11.41,11,1.3,2.9,3,5.62,4.48,8.42a25.72,25.72,0,0,0,3.76-1.48c1.87-1.17,3.58-2.61,5.46-3.78,9.78-6.1,14.45-24,3.23-34.68a92.33,92.33,0,0,0-28.62-18.53c-32.7-13.66-67.26-18.67-102.29-20.21-23.2-1-46.49-1-69.62,2-5.34.72-10.67,1.58-16.11,2.38,1.22,12.21,2.41,23.17,3.35,34.15a38,38,0,0,1-.25,11c-.43,2-2.7,4.63-4.55,5-3.58.76-3.67-2.59-3.84-5.2-.77-12.11-1.5-24.23-2.34-36.34a69.49,69.49,0,0,0-1.51-7.53L249.7,94.37c-2.91.34-5.95.25-8.7,1.11-4.87,1.51-10.44,2.55-14.09,5.69-4.23,3.63.44,9,.42,13.6,0,.73,0,1.47.08,2.21.81,10.26,1.29,20.56,2.53,30.76.94,7.63,2.77,15.16,4.39,22.69,1,4.55,7.32,8.94,11.67,7.88,5.11-1.25,3.1-5.65,3.43-9a47.13,47.13,0,0,0,0-5.7c-.72-13.63-1.41-27.26-2.24-40.88-.27-4.43-.9-8.82-1.55-13.2C244.8,103.9,245.59,98.75,249.59,94.24Zm-88.4,232.3c0,10.93-.45,19.41.1,27.82,1.07,16.11,3.47,32.17,3.82,48.28.22,9.94,4.15,16.67,11.29,22.7,20.67,17.45,44.66,28.9,70.32,36,32.18,8.9,64.89,14.83,98.8,12.47,18-1.25,35.92-1.12,53.76-4.64,20.35-4,40.3-9,58.55-19,11.89-6.54,23.28-13.95,31.54-26.07-2-1.6-3.88-2.71-5.18-4.31-1.53-1.86-3.52-4.11-3.61-6.27-.32-8.09-.09-16.22.19-24.33.39-11.38,1.08-22.75,1.42-34.12.05-1.58-1.17-3.18-1.95-5.15-25.09,9.33-50,16.71-76.42,20.33.73,1.37,1.91,2.59,1.94,3.83.44,15.05.77,30.11.9,45.17,0,1-1.71,2.69-2.74,2.78-1.62.15-4.07-.28-4.86-1.39-1.12-1.57-1.42-4-1.41-6,0-11.79.33-23.59.38-35.39,0-2.43-.65-4.87-1.08-7.85-4.25,0-7.92-.18-11.57,0-10.64.62-21.26,1.69-31.91,2.06-28,1-55.84-1.72-83.44-6.46-24.29-4.16-48.45-8.9-71.31-18.65a96.2,96.2,0,0,0-9.87-3.07c-3.18,8.18,1.11,16.24-2.86,23.39-4.38-1-5-3.68-5.21-6.83-.36-4.74-1.43-9.46-1.46-14.2C179.25,336.12,169.51,333.49,161.19,326.54ZM486.11,539.11c-8.9-2.23-8.2-8-8.15-13.66.14-17,.2-34,.29-51,0-3.61,0-7.22,0-11.06l-53.86,24.47c4.3,4,2.82,9.37,2.36,14.32-.14,1.54-2.31,3.73-3.91,4.12-3.41.82-4.91-1.9-4.75-5.42a14,14,0,0,0-.16-2.59c-1.26-9.24-2.32-9.82-12.16-7.81a337.12,337.12,0,0,1-59,7.16c-19.19.5-38.15-1.82-57.19-4.08A265.87,265.87,0,0,1,205.19,469c-3.14-1.51-6.61-2.33-11.38-4v30.22c-6.36-1.59-8.4-4.93-8.43-9.91,0-6.65-.36-13.31-.07-19.94a13.16,13.16,0,0,0-6-12.26c-2.67-1.86-5.45-3.57-9.18-6,0,10.68-.47,20.22.11,29.7,1,16.86,3.43,33.68,3.79,50.54.18,8.61,3.41,14.4,10.1,18.17,15.69,8.87,31.17,18,48.47,24,28.47,9.88,57.88,13.91,87.56,16.55,20.61,1.84,41.35.16,61.8-2.48,20.08-2.59,39.67-7.88,58.78-14.77C457.35,562.86,471.55,553.32,486.11,539.11ZM242.81,86.81c23.38-4.62,46-6.46,68.69-8.72s45.36,1.7,69.09.33c0-8.47-.23-15.8.05-23.11.47-12.17-3.7-18.1-18.79-18.64a60.8,60.8,0,0,0-8.82.6c-4,.42-8,1-12,1.5C331.19,40,321.33,41,311.52,42.4c-10.9,1.56-21.7,4.23-32.64,5-10.49.78-20.26,3.64-30,7-1.94.66-4.87,2.12-5.07,3.54C242.51,67.19,238.3,76.42,242.81,86.81ZM490.6,436.58c-1.27-.17-1.69-.37-1.92-.24-1.25.74-2.49,1.51-3.67,2.36-19.45,14.18-39.82,26.51-63.32,33.08-23.16,6.47-46.84,9.17-70.7,10.28-25.82,1.2-51.36-2-76.8-6.27-32.79-5.5-63.4-16.38-90.73-35.59-4.79-3.36-8.87-7.73-13.33-11.57-2.11-1.82-4.25-2.33-6.82.45,15.36,12.9,29.93,25.71,47.91,34,30.05,13.79,61.56,23.07,94.37,25.28,32.29,2.17,64.91,2.54,96.91-4.36,10.84-2.34,22.74-2.83,30.77-12.54.85-1,2.6-1.33,4-1.88,6.44-2.63,13.2-4.67,19.29-8C468.77,455,482,449.59,490.6,436.58Zm19.56-281.64c-.76.59-1.36,1.41-1.78,1.33-10.84-2.18-17,4.78-23.12,11.79-1.07,1.24-2.25,3.83-1.68,4.72a8.6,8.6,0,0,0,5.12,3.4,11.59,11.59,0,0,0,6.44-.86C507.6,170,518.24,162.2,525,150.16c7.55-13.45-1.06-34.44-15.77-39.2a4.75,4.75,0,0,0-2.11-.52c-5.62,1.23-11.23,2.56-17.21,4,10.3,15.35,10.8,15.38,10.31,25.71-.32,6.59,1.77,10.47,7.88,12.54C508.94,152.92,509.47,154.14,510.16,154.94Zm-275.28-107C273.91,36,314.48,34.13,354,26.2c-10.21-1.35-20.45-2.92-30.58-2.42s-20.36,2.69-30.38,4.84a271.7,271.7,0,0,0-30.84,8.16C252.92,40,242.38,40.4,234.88,47.91ZM431.16,87.55c5.1,1.82,8.88,3,12.52,4.51,10.18,4.23,21,7.48,30.25,13.24,8.65,5.38,15.47,3.7,26.16-1.5a60.38,60.38,0,0,1-5.64-2.47c-15-9.1-31.88-13.31-48.6-17.7C441.55,82.51,436.31,81.57,431.16,87.55Zm-226.82-.31c3.53,2.64,5.4,4.42,7.58,5.59,7.59,4.09,19.17-.73,20.73-9.18,1.25-6.81,1.33-13.91,1.3-20.87,0-4.4-2.82-7.05-7.89-7.78V82.79C218.72,80.24,212.71,84.21,204.34,87.24Zm220.26-6.5c-15.87-5.83-17.62-5.82-23.39.39,6.79,2.23,13,5.52,20.17,3.58C422.65,84.37,423.44,82.24,424.6,80.74Z" transform="translate(-138.75 -14.5)"/>
    <path class="cls-2" d="M653.25,570.9c-6.93-.21-13.86-.32-20.77-.71a12.13,12.13,0,0,1-5.17-1.71c-1.09-.62-2.65-2.48-2.4-3,.7-1.37,2.28-3.32,3.43-3.26,8.32.42,16.61,1.28,24.91,2Z" transform="translate(-138.75 -14.5)"/>
    <path class="cls-2" d="M460.31,597.5c-1.38-2.34-2.77-4.68-4.29-7.24,5.92-3,10.6-1.15,14.78,1.74,1,.68.44,3.6.6,5.5Z" transform="translate(-138.75 -14.5)"/>
    <path class="cls-1" d="M138.75,140.85c3.09,3,3,5.92,0,8.87Z" transform="translate(-138.75 -14.5)"/>
    <path class="cls-2" d="M632.41,493c-6.34,4.19-12.87,6.43-20,2a7,7,0,0,1-3-5.14c0-1.06,2.93-2.67,4.7-2.93a59.19,59.19,0,0,1,9.79-.1C627.87,486.9,630.91,488.39,632.41,493Z" transform="translate(-138.75 -14.5)"/>
    <path class="cls-2" d="M625.64,536.8c-6.69,1.9-13.53,1.07-20.28.3-1.12-.13-2.71-2.45-2.76-3.81s1.51-3.93,2.44-4a97.24,97.24,0,0,1,16.19.56c2.26.29,4.3,2.34,6.43,3.59Z" transform="translate(-138.75 -14.5)"/>
    <path class="cls-2" d="M586.17,588.15c-6.53,0-12,.32-17.31-.23-1.36-.14-2.86-2.91-3.4-4.74-.17-.58,2.44-2.67,4-2.92a44.48,44.48,0,0,1,9.86-.33C583.09,580.15,583.08,580.33,586.17,588.15Z" transform="translate(-138.75 -14.5)"/>
    <path class="cls-2" d="M633.63,511a18,18,0,0,1,5.58,1.19,5.33,5.33,0,0,1,2.46,4.35c-.13,1.24-2.25,3.11-3.59,3.2a44,44,0,0,1-12-.67c-1.51-.33-2.48-3.11-3.7-4.78,1.64-1.1,3.16-2.48,4.95-3.19C628.58,510.57,630.21,511,633.63,511Z" transform="translate(-138.75 -14.5)"/>
    <path class="cls-2" d="M627.91,544.66c4.92,0,9.67-.48,14.22.26,1.63.27,2.77,3.51,4.13,5.4-1.73,1-3.38,2.63-5.2,2.83C633,554.05,631.23,552.81,627.91,544.66Z" transform="translate(-138.75 -14.5)"/>
    <path class="cls-2" d="M607,552.87c-5.15.08-9.44-3.13-8.93-6.24.27-1.61,2.26-3.86,3.79-4.16,4.49-.85,9.73,2.68,8.87,5.73C610.12,550.23,607.87,551.8,607,552.87Z" transform="translate(-138.75 -14.5)"/>
    <path class="cls-2" d="M599.4,559.83c6.25-.22,10,2.17,9.05,5.41-.42,1.47-3,3-4.72,3.26-4.87.65-8.58-2-7.77-5.3C596.35,561.62,598.66,560.51,599.4,559.83Z" transform="translate(-138.75 -14.5)"/>
    <path class="cls-1" d="M494.45,101.33a60.38,60.38,0,0,0,5.64,2.47c-10.69,5.2-17.51,6.88-26.16,1.5-9.25-5.76-20.07-9-30.25-13.24-3.64-1.51-7.42-2.69-12.52-4.51,5.15-6,10.39-5,14.69-3.92" transform="translate(-138.75 -14.5)"/>
    <path class="cls-2" d="M415.85,157.76c5,1.27,12.64,2.34,19.57,5.23,9.13,3.79,9.18,12.14.72,17.59a18.26,18.26,0,0,1-5.94,2.84c-10.71,2.19-21.37,5.13-32.5,3.42-8.3-1.27-16.59-2.56-24.9-3.78-4.42-.65-9-1-10.05-6.64-.86-4.77,1.61-8.87,7.18-11a75,75,0,0,1,14.8-4.07C394.12,160,403.61,159.15,415.85,157.76Zm-33.3,12.54c9.89,5.23,35.44,3.58,45.19-3.24C413,165.19,398.48,167.08,382.55,170.3Z" transform="translate(-138.75 -14.5)"/>
    <path class="cls-2" d="M475.74,230.27c-.65,22.06-1.39,44.11-1.88,66.18a101.37,101.37,0,0,0,1,15.36c.4,3.05-.25,5.32-3.14,6.08-3.42.91-5.61-1.07-6.63-4.26a10.93,10.93,0,0,1-.33-3.29c.05-8.48,0-17,.28-25.44.4-10.63,1.44-21.24,1.69-31.88.34-14,.18-28,.25-42,0-2.21,0-4.43.17-6.63.23-2.77,1.37-5.71,4.46-4.9,1.78.46,4,3.44,4.1,5.39.45,8.45.19,16.95.19,25.43Z" transform="translate(-138.75 -14.5)"/>
    <path class="cls-2" d="M448,203.22c4.89.94,5.54,3.8,5.43,6.78-.41,11.73-1,23.45-1.49,35.18-.15,3.31-.29,6.62-.3,9.94-.07,21.37-.07,42.74-.2,64.11,0,2.72,1.09,6.84-3.05,7.13-4.39.3-3.57-3.86-3.57-6.58,0-27.27-.16-54.54.32-81.8C445.31,226.69,446.93,215.42,448,203.22Z" transform="translate(-138.75 -14.5)"/>
    <path class="cls-2" d="M352.76,206.61,342.71,208c0,21.34,0,42.25,0,63.15,0,1.46.15,3.1-.45,4.32a5.05,5.05,0,0,1-3.12,2.24c-.63.15-2.16-1-2.33-1.81a30.47,30.47,0,0,1-.57-6.55c-.05-19.86-.13-39.72,0-59.58.05-9.52,1.92-10.71,11.39-7.83a56.32,56.32,0,0,1,5.59,2.32Z" transform="translate(-138.75 -14.5)"/>
    <path class="cls-2" d="M236.23,285.44c-.66-4.65-1.75-9.29-1.9-14-.35-11.43-.07-22.88-.41-34.31-.22-7.33-1.16-14.63-1.65-21.95a55.94,55.94,0,0,1,0-9.94c.16-1.46,1.73-2.77,2.66-4.15,1.22,1.5,3,2.83,3.52,4.54.63,2,.13,4.39.23,6.6.52,11.73,1.33,23.46,1.54,35.2.14,7.65-1.57,15.45-.57,22.93C240.34,275.84,239.76,280.46,236.23,285.44Z" transform="translate(-138.75 -14.5)"/>
    <path class="cls-2" d="M379.11,205.88c6.09-4.18,10.87-4.76,15.92-5.22,12.4-1.13,24.77-2.67,37.15-4a5.38,5.38,0,0,1,1.1-.15c3.73.5,9.79-2.64,10.66,2.23,1.16,6.46-5.5,3.63-8.85,4.4A172.45,172.45,0,0,1,388,207.42C385.72,207.31,383.45,206.65,379.11,205.88Z" transform="translate(-138.75 -14.5)"/>
    <path class="cls-2" d="M409.26,255c-6.42.46-8.7-2-8.69-7,0-11-.16-22.05.1-33.06,0-1.71,2-3.37,3-5.05,1.78,1.53,4.16,2.76,5.16,4.69.92,1.77.42,4.31.42,6.51C409.28,232.39,409.26,243.68,409.26,255Z" transform="translate(-138.75 -14.5)"/>
    <path class="cls-2" d="M422.66,234.8c0-7.34,0-14.68,0-22,0-2.69.49-5.87,4-4.78,1.82.55,4.1,3.44,4.13,5.31.07,5.43-1.17,10.86-1.37,16.31-.28,7.7-.06,15.41-.1,23.12a29.2,29.2,0,0,1-.37,6.56c-.26,1.12-2.14,2.94-2.57,2.76-1.41-.6-3.43-1.9-3.52-3.06-.44-5.48-.32-11-.38-16.49,0-2.57,0-5.14,0-7.71Z" transform="translate(-138.75 -14.5)"/>
    <path class="cls-2" d="M291.81,135.67c-4.93-12.67-4.6-23.29-4.24-33.9a11.54,11.54,0,0,1,1.36-5.22c1.4-2.39,3.49-2.38,5.42-.4A3.3,3.3,0,0,1,295.44,98C295.77,109.88,298.19,122,291.81,135.67Z" transform="translate(-138.75 -14.5)"/>
    <path class="cls-2" d="M172.24,201.11c0-3.31-.31-6.67.16-9.91.18-1.3,2.1-2.35,3.23-3.51.93,1,2.57,1.91,2.68,3,.94,9.47,1.72,19,2.19,28.46.05,1.06-2,2.5-3.43,3.17-.39.19-2.43-1.6-2.64-2.7-1.18-6.09-2-12.24-3-18.38Z" transform="translate(-138.75 -14.5)"/>
    <path class="cls-2" d="M421.45,130.08c-2-1.9-3.13-2.45-3.45-3.29-3.24-8.48-2.75-17,.13-25.46.32-.94,2.36-2.12,3.16-1.86a4.11,4.11,0,0,1,2.26,3.15c-.13,7.26-.54,14.51-.95,21.76A48.41,48.41,0,0,1,421.45,130.08Z" transform="translate(-138.75 -14.5)"/>
    <path class="cls-2" d="M285.17,107.47c0,1.08.4,3-.12,4.74A7.67,7.67,0,0,1,282,116c-.44.28-2.92-1.25-3.11-2.22a105.67,105.67,0,0,1-2-15.12c-.06-1.2,2.68-3.76,3.26-3.53,1.75.7,3.79,2.22,4.38,3.9C285.37,101.36,285,104.12,285.17,107.47Z" transform="translate(-138.75 -14.5)"/>
    <path class="cls-2" d="M319.18,153.47c4.52,11.16-4.83,20.16-5.57,30.57-5.5-5.28-1.33-10.7-.81-15.85s2.4-10.19,3.69-15.28Z" transform="translate(-138.75 -14.5)"/>
    <path class="cls-2" d="M411.1,270.34c-.05,2.92-1.36,5.54-4.91,5.56-4.13,0-5.4-3.07-5.57-6.67-.14-3-.19-6.05,3.92-6.46C408.13,262.42,410.79,265.38,411.1,270.34Z" transform="translate(-138.75 -14.5)"/>
    <path class="cls-2" d="M309,110c4.62,3.44,2.06,9,4,13.1.35.72-1.58,3.06-2.93,3.83-.71.4-3.46-.86-3.54-1.56a118.3,118.3,0,0,1-.48-13.71C306.08,111.12,307.77,110.64,309,110Z" transform="translate(-138.75 -14.5)"/>
    <path class="cls-2" d="M311.1,105.26c-6.84-2.07-8.67-5.76-8.06-10.51.22-1.69,2.11-3.17,3.23-4.75,1.61,1.24,4.3,2.25,4.61,3.76C311.58,97.13,311.1,100.75,311.1,105.26Z" transform="translate(-138.75 -14.5)"/>
    <path class="cls-2" d="M269.18,147.57c6.38,1.2,4.73,5.87,5.54,9,.26,1-2.09,3.62-3.57,3.91-2.83.56-6.18-4-5.45-7.74C266.1,150.69,268.14,149,269.18,147.57Z" transform="translate(-138.75 -14.5)"/>
    <path class="cls-2" d="M430.82,291.47c-1.89,2.76-2.77,5.4-4.52,6.25-2.39,1.15-6.29-3.89-5.36-7.57.48-1.89,3-3.24,4.66-4.84Z" transform="translate(-138.75 -14.5)"/>
    <path class="cls-2" d="M431,273.92c-2.1,2.71-3.17,5.5-4.9,6a3.69,3.69,0,0,1-4.72-4.29c.59-2.82-.11-7.46,4.24-7.62C427.11,268,428.77,271.4,431,273.92Z" transform="translate(-138.75 -14.5)"/>
    <path class="cls-2" d="M183.1,265.66a9.15,9.15,0,0,1-.29,2.65c-.33.9-1.26,2.36-1.74,2.29a6.63,6.63,0,0,1-3.53-1.74,4,4,0,0,1-1-3c.42-3,.33-6.62,2-8.76C180.1,255.16,183.05,259.36,183.1,265.66Z" transform="translate(-138.75 -14.5)"/>
    <path class="cls-2" d="M326.83,125.38c-4.86-.79-6.48-3.51-6-7,.21-1.44,2.43-3.64,3.74-3.64,3.47,0,4.87,2.86,4.58,6C329,122.39,327.57,124,326.83,125.38Z" transform="translate(-138.75 -14.5)"/>
    <path class="cls-2" d="M179.45,247.54c-6.47-3.59-5.27-8-4.25-12.66C181.31,237.81,181.31,237.81,179.45,247.54Z" transform="translate(-138.75 -14.5)"/>
    <path class="cls-2" d="M343.7,292.62l-3.92,4.88c-1.2-2-3-3.8-3.44-5.92-.49-2.34.11-5.76,3.48-5C341.36,286.9,342.25,290.22,343.7,292.62Z" transform="translate(-138.75 -14.5)"/>
    <path class="cls-2" d="M340.45,319.5c-1-.68-1.42-.81-1.61-1.08-2.2-3-3.72-6.27-1.53-9.9.28-.48,2.12-.6,2.77-.18C343,310.23,343,311.89,340.45,319.5Z" transform="translate(-138.75 -14.5)"/>
    <path class="cls-2" d="M325.19,95.4l-4.34-4.54c1.23-1.06,2.63-3.12,3.64-2.94,1.64.29,3,2,4.53,3.16Z" transform="translate(-138.75 -14.5)"/>
    <path class="cls-2" d="M297,160.23l-4.43,3.88c-.95-2.1-2.19-4.12-2.7-6.32-.18-.77,1.46-2,2.26-2.95Z" transform="translate(-138.75 -14.5)"/>
    <path class="cls-2" d="M324,100c1.3,2.1,2.57,3.35,2.72,4.74.08.7-2.36,2.53-2.75,2.3a6.82,6.82,0,0,1-3-3.45C320.84,102.94,322.55,101.7,324,100Z" transform="translate(-138.75 -14.5)"/>
    <path class="cls-2" d="M294.6,144.36l-3.14,2.36c-.57-.8-1.75-1.79-1.57-2.35.34-1.07,1.46-1.88,2.26-2.8Z" transform="translate(-138.75 -14.5)"/>
    <path class="cls-2" d="M473.5,389.08c0,7.72,0,15.43,0,23.15,0,2.65-.26,5.82-3.7,5.47-2.07-.21-4.47-2-5.75-3.84-1.16-1.61-1.45-4.18-1.36-6.29.58-15,1.28-30,2.19-45,.08-1.41,2-3.95,2.79-3.83,1.88.31,4.23,1.43,5.14,3,1,1.71.81,4.23.83,6.41.09,7,0,14,0,20.94Z" transform="translate(-138.75 -14.5)"/>
    <path class="cls-2" d="M241.8,430.85c-1-1.74-2.8-3.46-2.83-5.22-.32-15.8-.34-31.61-.42-47.42,0-.72-.05-1.72.37-2.12a7.3,7.3,0,0,1,3.32-2.06c.72-.12,2.09,1,2.43,1.78a11.77,11.77,0,0,1,.59,4.33q0,23.16-.13,46.32A15.57,15.57,0,0,1,244,430.4Z" transform="translate(-138.75 -14.5)"/>
    <path class="cls-2" d="M339.11,421.27c-.93-2.26-2.61-4.5-2.67-6.78-.29-11.36-.25-22.73,0-34.1,0-1.43,1.66-2.84,2.55-4.25,1.4.92,3.07,1.61,4.12,2.83a7.05,7.05,0,0,1,1.5,4C345.15,395.74,345.41,408.45,339.11,421.27Z" transform="translate(-138.75 -14.5)"/>
    <path class="cls-2" d="M442.76,390c0-4.78-.33-9.58.19-14.3.16-1.53,2.48-3.89,3.88-3.94s4.25,2.32,4.2,3.55c-.42,10.58-1.32,21.14-2.25,31.68a3,3,0,0,1-2.45,1.63c-1.22-.28-3.18-1.34-3.22-2.16-.29-5.47-.15-11-.15-16.46Z" transform="translate(-138.75 -14.5)"/>
    <path class="cls-2" d="M429.26,388c-.15,3.31.31,6.83-.69,9.86-.61,1.84-3.38,3.73-5.41,4-1.29.2-4.37-2.49-4.33-3.83a197.62,197.62,0,0,1,2-21.83c.14-1,2.82-2.37,4.21-2.25s3.58,1.77,3.75,3c.49,3.61.17,7.34.17,11Z" transform="translate(-138.75 -14.5)"/>
    <path class="cls-2" d="M418.87,436.06c-.33-3.65-1.06-5.63-.52-7.15A16.76,16.76,0,0,1,422.3,423c.47-.47,3.6.51,3.68,1.09.38,2.73.77,5.79-.14,8.25C425.3,433.81,422.31,434.34,418.87,436.06Z" transform="translate(-138.75 -14.5)"/>
    <path class="cls-2" d="M423.39,417.93c-5.33-.46-5.49-3.67-4.91-6.5.33-1.58,2.27-3.87,3.64-4,3.29-.27,5.91,3.55,4.79,6.95C426.38,416,424.26,417.1,423.39,417.93Z" transform="translate(-138.75 -14.5)"/>
    <path class="cls-2" d="M179.94,382.33c2-1.94,2.93-3.73,4.27-4.06,2.8-.7,5.53.42,5.15,3.76-.25,2.22-2.05,4.27-3.15,6.39Z" transform="translate(-138.75 -14.5)"/>
    <path class="cls-2" d="M471.16,500.5c0,11.28.21,22.58-.21,33.85-.06,1.81-2.79,4.77-4.49,4.93s-3.91-2.32-5.74-3.83c-.41-.34-.34-1.4-.32-2.12.39-15.05.78-30.09,1.25-45.13a51.37,51.37,0,0,1,1.06-10.91c.39-1.55,2.8-3.61,4.27-3.59s4.16,2.25,4.24,3.63c.41,7.7.2,15.44.2,23.17Z" transform="translate(-138.75 -14.5)"/>
    <path class="cls-2" d="M446.8,526.28c0,7,.11,14-.1,21,0,1.12-1.5,3.1-2.32,3.11a7.34,7.34,0,0,1-4.66-1.82,5.69,5.69,0,0,1-1.35-4c.6-13.92,1.27-27.84,2.2-41.74.09-1.34,2.08-2.54,3.19-3.81,1.05,1.37,2.95,2.7,3,4.11.3,7.72.15,15.46.15,23.19Z" transform="translate(-138.75 -14.5)"/>
    <path class="cls-2" d="M419.23,513.75c4.39.84,7.5,1.73,7.54,6,.07,6.48.21,13,0,19.43a26.36,26.36,0,0,1-1.62,8.49,5.28,5.28,0,0,1-3.91,2.89c-1.45,0-2.94-1.68-4.26-2.81a2.87,2.87,0,0,1-.71-2C416.31,535.3,414.6,524.64,419.23,513.75Z" transform="translate(-138.75 -14.5)"/>
    <path class="cls-2" d="M344.88,569.48a77.83,77.83,0,0,1-.11,8.78c-.14,1.18-1.47,3.11-2.28,3.12a7.43,7.43,0,0,1-4.67-1.78,6,6,0,0,1-1.45-4,129.68,129.68,0,0,1,.1-15.4c.14-1.59,2.45-4.36,3.41-4.21,1.76.26,4.22,2,4.67,3.64.85,3.1.5,6.53.65,9.82Z" transform="translate(-138.75 -14.5)"/>
    <path class="cls-2" d="M241.69,539.28c1.75-2.28,2.88-5.29,4.53-5.6,3.43-.64,5.43,2.18,5.29,5.42-.13,3-1.16,6-2,9-.08.27-2.58.4-2.91-.1C244.87,545.44,243.53,542.67,241.69,539.28Z" transform="translate(-138.75 -14.5)"/>
    <path class="cls-2" d="M193.11,519c-7.33-3.8-6-9.75-4.68-16.08C197.41,507.06,198.23,510,193.11,519Z" transform="translate(-138.75 -14.5)"/>
    <path class="cls-2" d="M340.56,549.29c-2.24-4.23-3.76-6-4.16-8.09-.51-2.61.16-5.31,3.63-5.59,4.09-.33,5.24,2.4,4.71,5.63C344.4,543.26,342.82,545.08,340.56,549.29Z" transform="translate(-138.75 -14.5)"/>
    <path class="cls-2" d="M251,503.88c-2.12,2.07-3.53,4.55-4.76,4.47-4.08-.29-4.74-4-5-7.2-.21-2.63,1.4-5.87,4.21-4.68C247.74,497.43,249,501,251,503.88Z" transform="translate(-138.75 -14.5)"/>
    <path class="cls-2" d="M413.62,533.78c-2.63,2.64-4.07,5.34-5.74,5.49-3.4.3-5-2.44-5.23-5.78s1.52-5.22,4.58-4.5C409.16,529.44,410.71,531.51,413.62,533.78Z" transform="translate(-138.75 -14.5)"/>
    <path class="cls-2" d="M403.5,513.3c4.59-.23,6.62,1.93,6.55,5.07,0,1.22-2.7,3.3-4.25,3.38-3.33.18-5.43-2.12-4.93-5.52C401.05,515,402.91,513.92,403.5,513.3Z" transform="translate(-138.75 -14.5)"/>
    <path class="cls-2" d="M248.32,526.23c-5.87-1.74-6.06-5.22-4.7-9,.27-.73,2.92-1.52,3.63-1C251.13,518.84,250,522.33,248.32,526.23Z" transform="translate(-138.75 -14.5)"/>
    <path class="cls-2" d="M410.38,504.65c-3.17,1-4.82,2.05-6.15,1.74s-2.44-2-3.64-3.05c1.2-1,2.61-3,3.57-2.83C405.9,500.87,407.38,502.54,410.38,504.65Z" transform="translate(-138.75 -14.5)"/>
    <path class="cls-2" d="M339.88,521c1.27,2.67,2.35,4.31,2.74,6.11.13.57-1.6,1.54-2.48,2.33-1.17-1.54-2.61-3-3.36-4.68C336.56,524.29,338.27,522.93,339.88,521Z" transform="translate(-138.75 -14.5)"/>
    <path class="cls-2" d="M320.26,45.54c4.06,0,8.16-.38,12.16.12a23.42,23.42,0,0,1,9.29,3c5.62,3.54,5.81,9.85.31,13.54a38.63,38.63,0,0,1-12,5.34c-10,2.5-20,5.2-30.15,6.18-6.74.65-13.81-1.19-20.61-2.53-4.65-.92-8.33-4.2-8.41-9.08-.06-4.37,3.37-7.26,7.45-8.74,10.72-3.89,21.61-7.21,33.12-7.78,3-.15,5.91,0,8.86,0ZM296.07,58.18c10.78,1.35,19.44-.18,28.35-3-.91-1.3-1.34-2.34-1.67-2.31-6.91.65-13.83,1.31-20.71,2.26C300.44,55.35,299,56.64,296.07,58.18Z" transform="translate(-138.75 -14.5)"/>
    <path class="cls-2" d="M194.13,165.18c-1.18,2-2,5.28-3.64,5.77-2.37.7-5.38-.45-8-1.17-.55-.14-1.06-2.64-.94-2.7,2.44-1.16,4.89-2.51,7.5-3,1.61-.3,3.47.77,5.22,1.22Z" transform="translate(-138.75 -14.5)"/>
    <path class="cls-2" d="M238.67,154.36c-2.32-2.1-3.65-2.71-3.77-3.5-1.8-12-3.66-23.94-5-36-.42-3.76-1.57-8.55,3.22-10.81,2.64-1.24,5.13,3.32,5.33,10.51C238.79,127.33,238.74,140.06,238.67,154.36Z" transform="translate(-138.75 -14.5)"/>
    <path class="cls-1" d="M296.07,58.18c2.92-1.54,4.37-2.83,6-3,6.88-1,13.8-1.61,20.71-2.26.33,0,.76,1,1.67,2.31C315.51,58,306.85,59.53,296.07,58.18Z" transform="translate(-138.75 -14.5)"/>
  </g>
</svg>
